<svg version="1.1" id="Layer_1" xmlns="http://www.w3.org/2000/svg" xmlns:xlink="http://www.w3.org/1999/xlink" x="0px" y="0px"
	 width="100%" viewBox="0 0 368 208" enable-background="new 0 0 368 208" xml:space="preserve" preserveAspectRatio="xMidYMid meet" shape-rendering="geometricPrecision" text-rendering="geometricPrecision">
<path fill="#FFFFFF" opacity="1.000000" stroke="none" 
	d="
M106.107994,93.544037 
	C98.180817,111.634537 98.685120,129.445282 109.939613,145.782471 
	C126.799240,170.256119 151.720230,180.632477 180.397461,182.491302 
	C200.997375,183.826538 220.763733,179.616821 239.055115,169.621704 
	C260.629456,157.832611 275.034698,140.907242 275.481750,115.263222 
	C275.826874,95.465591 264.847595,80.962723 250.303009,69.140694 
	C234.531876,56.321709 215.715073,50.853611 195.753235,49.468361 
	C171.569565,47.790134 149.278168,53.373314 129.274780,67.636482 
	C119.732025,74.440842 111.593246,82.239449 106.107994,93.544037 
M263.842224,154.315170 
	C254.146606,165.872162 241.640457,173.211929 227.754395,178.558212 
	C225.653717,179.367004 222.718094,179.365463 221.762589,183.417328 
	C227.492355,183.018539 233.410355,184.017670 237.911469,181.942917 
	C243.786301,179.234940 248.962479,176.685593 255.600540,178.543579 
	C257.656433,179.119034 260.274780,177.487106 262.442322,177.894394 
	C274.302399,180.122971 286.300629,179.368790 298.232971,179.840500 
	C304.276703,180.079422 310.126007,178.964371 315.307831,175.341919 
	C319.667786,172.294037 324.266998,169.590836 328.691406,166.632050 
	C332.501099,164.084320 334.683899,160.497986 335.007874,155.862350 
	C335.215027,152.898651 335.437225,149.935989 335.636932,146.971802 
	C336.756165,130.356842 338.764832,113.900436 343.591064,97.870628 
	C346.434326,88.427063 351.003632,80.131805 358.352539,73.469620 
	C363.228180,69.049576 363.274292,57.263611 358.385315,52.832008 
	C356.717804,51.320473 354.828766,51.305050 352.796997,52.140301 
	C350.128754,53.237190 347.220795,53.920757 344.485718,53.119606 
	C339.324036,51.607666 334.621948,52.998760 329.865540,54.592270 
	C325.762024,55.967030 321.662628,57.354107 317.562439,58.738693 
	C315.921295,59.292877 313.428955,59.763584 312.911133,58.401596 
	C310.901001,53.114403 306.372345,50.538425 302.409760,47.248981 
	C301.513947,46.505367 301.355042,44.851978 300.904633,43.600208 
	C300.454254,42.348423 300.072601,41.072098 299.645081,39.811863 
	C298.402893,36.150116 296.066315,34.960392 292.274536,36.154568 
	C287.360046,37.702320 282.382233,39.068806 277.386078,40.333130 
	C266.878235,42.992229 257.569946,46.795860 257.203278,59.896118 
	C257.185150,60.544037 256.966797,61.222271 256.697449,61.821564 
	C254.479172,66.757202 255.872162,70.143974 259.939728,73.914116 
	C283.463806,95.718071 285.132751,129.337891 263.842224,154.315170 
M55.868328,186.626312 
	C59.685387,186.894989 63.498699,187.264893 67.320465,187.406326 
	C71.933060,187.577011 77.191216,189.214752 80.899239,185.990341 
	C85.970879,181.580185 91.359276,180.949814 97.736427,180.120987 
	C104.113281,179.292175 109.644035,178.780975 115.411667,181.680771 
	C118.595230,183.281387 120.821358,181.790161 122.236099,178.773941 
	C126.645134,169.373901 126.213539,167.117065 118.652000,160.118484 
	C118.040726,159.552719 117.436539,158.977539 116.856255,158.380295 
	C105.981850,147.188019 98.678230,134.230423 97.672050,118.360893 
	C96.486740,99.666161 104.692871,84.881058 117.538254,72.189293 
	C124.256401,65.551498 132.174210,60.645180 140.796158,56.887531 
	C144.143188,55.428822 145.554825,53.514370 143.684998,49.916447 
	C141.835587,46.357807 139.509964,47.539856 137.054810,48.979412 
	C135.474182,49.906204 133.949463,50.954849 132.294662,51.722435 
	C129.878998,52.842945 127.501572,52.820530 125.293411,51.013008 
	C118.313454,45.299500 118.063828,45.296631 110.236641,49.911545 
	C102.470070,54.490719 100.125694,53.776440 96.866905,45.560287 
	C96.142227,43.733215 95.430252,41.614311 93.290497,42.209244 
	C88.043961,43.667976 81.756897,43.236832 78.874474,49.577232 
	C77.942406,51.627495 75.830254,52.781723 73.660278,53.134804 
	C63.735180,54.749725 64.055870,65.157196 58.612907,70.607635 
	C58.190437,71.030678 58.819366,72.490318 58.939335,73.470642 
	C59.629967,79.114227 59.935505,84.814468 58.816631,90.382973 
	C54.871571,110.017105 48.315525,128.866104 41.051212,147.474350 
	C37.167572,157.422668 32.033428,166.768600 26.868923,176.099838 
	C24.662373,180.086655 25.593390,182.397415 29.415722,182.531906 
	C38.117695,182.838058 46.412853,185.463348 55.868328,186.626312 
z"/>
<path fill="#262626" opacity="1.000000" stroke="none" 
	d="
M191.509857,109.501465 
	C190.835022,111.532578 189.898880,113.035851 187.983139,112.991631 
	C184.946106,112.921524 185.156555,109.768608 183.664749,107.750305 
	C181.818329,109.599899 182.709335,114.452866 178.680603,113.185547 
	C175.742249,112.261223 173.149063,113.751068 170.449142,113.175766 
	C169.746613,113.026077 169.061722,112.310280 168.578400,111.690903 
	C164.431900,106.377205 164.437790,106.360214 160.872925,111.630966 
	C160.291992,112.489876 159.667130,113.217712 158.570023,113.347343 
	C156.265289,113.619667 154.212494,113.155296 154.855392,110.299492 
	C156.752502,101.872513 158.867798,93.493744 160.978958,85.116585 
	C161.433472,83.313034 162.841263,82.395836 164.711853,82.370628 
	C167.113083,82.338257 168.396774,83.789726 168.875412,85.931160 
	C170.104797,91.431435 171.155106,96.972443 172.433884,102.460609 
	C172.910187,104.504692 173.822601,106.447144 174.688065,108.859360 
	C176.816757,107.136742 176.423203,105.232018 176.546356,103.529694 
	C176.954117,97.893250 177.345612,92.255409 177.698227,86.615288 
	C177.837189,84.392441 178.419815,82.767365 181.108765,82.653694 
	C183.820877,82.539047 185.648666,83.412453 186.216064,86.224060 
	C186.705215,88.647881 187.184158,91.073753 187.783707,94.081169 
	C189.915268,91.313065 189.933777,88.452774 190.500977,85.877922 
	C191.054382,83.365685 192.328995,82.613503 194.659592,82.676811 
	C197.171783,82.745056 198.004623,84.096199 198.389587,86.415024 
	C199.608704,93.758263 199.060364,101.314026 201.049225,109.157600 
	C202.992630,107.257011 203.124115,105.139053 203.589767,103.199387 
	C204.986496,97.381447 206.356033,91.556892 207.710098,85.728851 
	C208.178177,83.714172 209.300522,82.392845 211.438065,82.350128 
	C213.486694,82.309189 214.921066,83.267479 215.432190,85.380081 
	C217.383804,93.446648 219.392456,101.499855 221.268341,109.583908 
	C221.604446,111.032295 221.541962,112.702751 219.549759,113.177002 
	C217.536392,113.656303 216.124039,113.039284 215.035889,111.098579 
	C211.762772,105.261055 211.353622,105.279175 207.964752,111.167274 
	C206.995407,112.851456 205.627579,113.639664 203.859314,113.271065 
	C201.911072,112.864952 200.109955,112.637558 198.100601,113.184021 
	C196.202591,113.700180 194.960205,112.430878 194.505127,110.579201 
	C194.073730,108.823822 193.748413,107.042366 193.345551,105.125420 
	C191.738174,106.171036 192.388184,107.961563 191.509857,109.501465 
z"/>
<path fill="#262626" opacity="1.000000" stroke="none" 
	d="
M144.977646,117.964996 
	C153.861313,117.849457 162.744781,117.704147 171.628815,117.640350 
	C173.721512,117.625313 176.403748,117.143349 176.868973,120.104294 
	C177.308456,122.901398 174.537582,122.807281 172.871674,123.665054 
	C172.486099,123.863586 172.276779,124.404373 171.709656,125.152855 
	C178.962234,127.921913 175.479935,131.006210 171.976349,133.686386 
	C172.485260,136.071411 174.306961,135.757751 175.616684,136.271133 
	C178.055130,137.226929 178.027527,139.490479 176.752213,140.685440 
	C174.526947,142.770523 171.428085,142.021790 168.638016,141.586227 
	C166.314133,141.223434 165.898529,139.406570 165.885010,137.466141 
	C165.851486,132.658752 165.873993,127.850975 165.873993,122.754189 
	C162.055481,122.700821 160.430450,124.216881 160.370712,127.406555 
	C160.305313,130.898758 160.359268,134.393311 160.285446,137.885223 
	C160.253754,139.384033 160.214523,140.995651 158.094925,141.164261 
	C155.877731,141.340637 155.091446,139.951370 155.018402,138.110062 
	C154.879761,134.615601 154.898880,131.114670 154.865616,127.616302 
	C154.838898,124.805634 153.965546,122.741501 150.476074,122.662460 
	C148.463898,126.264099 149.692154,130.163864 149.472748,133.882812 
	C149.152328,139.314026 147.105576,142.134811 142.977585,142.287903 
	C138.838577,142.441422 135.856842,139.133881 135.668472,133.908417 
	C135.530487,130.080841 135.785446,126.237740 135.609756,122.413307 
	C135.435623,118.622482 138.402252,116.600037 140.108749,113.900452 
	C140.797379,112.811066 142.457153,112.610207 143.804672,113.116547 
	C145.939438,113.918701 145.528336,115.659737 144.728973,117.731155 
	C140.731796,120.531174 139.888504,131.404068 143.339645,136.028198 
	C146.012344,129.925369 143.645218,123.729584 144.977646,117.964996 
z"/>
<path fill="#262626" opacity="1.000000" stroke="none" 
	d="
M133.174286,130.010437 
	C133.358032,131.732391 133.460831,133.056671 133.488586,134.382523 
	C133.563477,137.961182 133.001511,140.929871 128.526749,141.605118 
	C124.307632,142.241821 121.113625,140.947830 119.652260,137.070816 
	C117.573326,131.555435 118.234917,125.896507 120.713783,120.653061 
	C122.157082,117.600121 125.191383,116.964897 128.420807,117.493011 
	C130.404633,117.817436 132.015778,118.716690 132.057968,120.891212 
	C132.103195,123.222374 130.188354,123.241997 128.494995,123.346466 
	C126.955261,123.441444 125.135727,123.632683 125.092232,125.492447 
	C125.035706,127.908981 127.218918,127.563477 128.800858,127.655075 
	C130.504944,127.753746 132.146698,127.852379 133.174286,130.010437 
z"/>
<path fill="#262626" opacity="1.000000" stroke="none" 
	d="
M216.189972,126.602402 
	C218.293655,118.838272 222.148300,115.943443 227.304749,118.000420 
	C228.709503,118.560806 230.152252,119.343689 230.100555,121.136200 
	C230.045364,123.050072 228.572220,123.619423 226.965683,123.618347 
	C224.822678,123.616920 222.817398,123.719231 222.545593,126.453583 
	C222.222412,129.704941 221.156967,133.172775 224.457169,135.839355 
	C225.848557,134.256668 224.743317,133.378128 224.134354,132.478546 
	C222.993469,130.793137 222.158478,128.949448 224.659821,128.023987 
	C226.646729,127.288857 229.137268,126.977203 230.323730,129.529175 
	C231.779907,132.661270 231.995392,136.034012 230.477463,139.176315 
	C229.083054,142.062927 226.212143,141.986069 223.492477,141.818802 
	C219.755157,141.588959 217.861008,139.138016 216.918228,135.904236 
	C216.078781,133.024841 215.710358,130.032043 216.189972,126.602402 
z"/>
<path fill="#262626" opacity="1.000000" stroke="none" 
	d="
M193.171051,131.756042 
	C193.408020,139.227737 189.524414,143.318298 183.707703,142.116302 
	C180.469269,141.447083 178.534515,139.862671 179.892365,136.216812 
	C180.216675,136.025223 180.472656,135.790695 180.769867,135.712250 
	C182.409912,135.279419 184.711807,137.478226 185.685028,135.062714 
	C186.761871,132.390015 183.790085,132.034622 182.370590,130.916931 
	C179.270035,128.475586 179.080673,125.190132 179.945969,121.881050 
	C180.728027,118.890228 183.013367,117.201027 186.229614,117.151413 
	C188.568390,117.115334 191.296829,116.950455 192.050034,119.767532 
	C192.937866,123.088142 189.724503,123.103409 187.393402,124.132072 
	C188.922791,126.979309 192.425919,128.170593 193.171051,131.756042 
z"/>
<path fill="#262626" opacity="1.000000" stroke="none" 
	d="
M243.055847,117.873611 
	C246.791107,122.575096 240.951691,122.515190 239.592880,125.172890 
	C246.283188,127.991905 242.800186,131.089172 239.890305,133.725754 
	C240.081085,135.124481 240.696991,135.605453 241.534576,135.901566 
	C243.367432,136.549530 245.840652,136.786240 245.090225,139.660858 
	C244.360825,142.454865 241.836838,141.229233 240.029572,141.498810 
	C235.072083,142.238205 232.951523,140.193146 233.519470,135.103134 
	C233.831451,132.307159 233.610535,129.450317 233.608444,126.620949 
	C233.601669,117.474876 233.597824,117.474876 243.055847,117.873611 
z"/>
<path fill="#262626" opacity="1.000000" stroke="none" 
	d="
M215.056793,139.691788 
	C207.958237,143.849304 203.738281,141.746002 203.704758,134.434189 
	C203.685760,130.290375 203.691696,126.146210 203.726089,122.002541 
	C203.741913,120.095917 204.016342,118.151321 206.362427,117.865181 
	C208.794662,117.568527 211.497314,116.922241 213.566711,118.557396 
	C214.777939,119.514465 214.557205,121.243492 213.042831,122.377983 
	C212.026260,123.139542 210.408646,123.110428 209.882538,125.069672 
	C215.432083,127.854462 214.018890,130.882309 209.754044,133.469711 
	C209.948349,137.252060 215.521942,135.365646 215.056793,139.691788 
z"/>
<path fill="#262626" opacity="1.000000" stroke="none" 
	d="
M247.409119,119.691208 
	C251.394257,116.920746 252.447449,117.370483 252.558655,121.527634 
	C252.642899,124.676529 252.693481,127.832832 252.573685,130.978775 
	C252.464554,133.844101 252.524460,136.335526 256.280701,136.756439 
	C258.797577,137.038483 258.820312,139.193909 257.660767,140.396011 
	C255.502121,142.633865 252.421341,141.963669 249.651138,141.639160 
	C247.259674,141.358994 247.003418,139.406769 247.019974,137.514557 
	C247.070801,131.712769 247.192001,125.911606 247.409119,119.691208 
z"/>
<path fill="#262626" opacity="1.000000" stroke="none" 
	d="
M199.219971,156.896378 
	C207.529861,155.793564 208.440125,156.500748 208.330185,164.482239 
	C208.299667,166.698151 210.856384,168.156937 209.639435,170.782791 
	C207.066132,172.094604 203.529907,168.198059 201.488968,172.187057 
	C197.834747,168.148804 196.733963,161.219543 199.219971,156.896378 
z"/>
<path fill="#262626" opacity="1.000000" stroke="none" 
	d="
M163.682159,162.153442 
	C165.113907,159.880707 164.241211,155.237595 167.788544,156.258301 
	C171.542068,157.338364 169.032364,161.003281 168.518219,163.528320 
	C167.775970,167.173630 166.924820,170.880112 161.892746,170.597229 
	C157.670502,170.359879 155.277542,167.440277 156.075729,163.269501 
	C156.509872,161.000870 157.149582,158.767303 157.784164,156.542923 
	C158.149933,155.260773 158.614929,153.858475 160.420364,154.273193 
	C162.251038,154.693741 162.481110,156.056610 162.406540,157.723679 
	C162.312225,159.831879 160.734680,161.765900 161.680038,164.010803 
	C163.160370,164.518082 163.217270,163.286194 163.682159,162.153442 
z"/>
<path fill="#262626" opacity="1.000000" stroke="none" 
	d="
M176.983826,156.688354 
	C179.353607,156.929474 181.608124,156.983063 182.298889,159.245789 
	C182.807343,160.911331 180.706909,161.026871 179.645340,162.145844 
	C181.501953,164.417465 183.557343,166.898773 181.537109,169.999619 
	C180.105438,172.197067 177.922043,173.557892 175.193253,172.908127 
	C173.382263,172.476913 170.748016,172.278183 170.888092,169.675598 
	C171.024338,167.144272 173.686432,168.229614 175.268646,167.687027 
	C169.646271,161.927383 170.092728,158.472092 176.983826,156.688354 
z"/>
<path fill="#262626" opacity="1.000000" stroke="none" 
	d="
M233.359863,160.811279 
	C234.237839,162.470474 233.489838,164.064713 232.501083,163.824097 
	C228.524994,162.856522 225.947235,165.365814 222.935013,167.713333 
	C220.486237,163.043045 220.457657,158.588043 220.861359,154.212173 
	C221.176605,150.795105 224.057648,149.888199 226.534851,152.409180 
	C228.969086,154.886444 230.977707,157.781937 233.359863,160.811279 
z"/>
<path fill="#262626" opacity="1.000000" stroke="none" 
	d="
M152.758698,162.288345 
	C152.206329,164.075195 152.578232,165.701035 150.812027,167.536041 
	C148.347977,163.555252 144.522034,162.494675 139.025162,163.469421 
	C141.993103,157.923538 145.142349,154.319992 148.822968,151.399460 
	C151.031250,149.647217 153.064987,151.160080 153.225677,153.923019 
	C153.378891,156.557480 153.020569,159.221680 152.758698,162.288345 
z"/>
<path fill="#262626" opacity="1.000000" stroke="none" 
	d="
M195.778915,57.765121 
	C198.207718,55.264961 200.733261,55.112164 203.331467,56.439880 
	C206.074677,57.841702 206.437317,60.442257 206.577072,63.228134 
	C206.740265,66.481178 203.681152,69.415649 206.597183,72.923607 
	C201.394592,74.464165 198.400543,71.746895 195.872131,69.186249 
	C192.612320,65.884827 193.503922,61.871693 195.778915,57.765121 
M201.548157,67.298042 
	C202.924149,65.629646 203.079529,63.632843 202.664215,61.688965 
	C202.241959,59.712608 200.921707,58.796730 199.072479,60.249737 
	C197.513184,61.474930 197.144348,63.314171 197.531357,65.179482 
	C197.902695,66.969177 198.887390,68.193787 201.548157,67.298042 
z"/>
<path fill="#262626" opacity="1.000000" stroke="none" 
	d="
M116.083633,92.813828 
	C115.629791,98.316498 117.604698,100.029358 121.828590,98.112282 
	C121.247246,96.246284 119.742470,98.547119 118.752747,97.064629 
	C118.945564,95.437767 117.485001,92.372757 121.362160,92.660164 
	C124.182213,92.869209 127.123878,94.166023 126.842377,97.823608 
	C126.644005,100.401115 125.197563,102.574791 122.492668,103.348900 
	C118.776344,104.412445 115.614784,103.173187 113.043121,100.482300 
	C111.140404,98.491386 110.699875,95.948250 112.020226,93.590340 
	C112.743172,92.299301 113.780220,89.194160 116.083633,92.813828 
z"/>
<path fill="#262626" opacity="1.000000" stroke="none" 
	d="
M194.926086,137.486633 
	C194.945129,132.069382 194.960999,127.095650 195.086914,122.124710 
	C195.135971,120.187698 195.792419,118.231575 198.026672,118.164177 
	C200.810638,118.080200 200.310364,120.525047 200.342346,122.212570 
	C200.439743,127.353142 200.425507,132.496918 200.373016,137.638596 
	C200.356827,139.226608 200.654648,141.170013 198.199127,141.385590 
	C195.682709,141.606522 195.167297,139.904251 194.926086,137.486633 
z"/>
<path fill="#262626" opacity="1.000000" stroke="none" 
	d="
M136.267273,85.694046 
	C135.091293,84.057198 134.048050,82.762314 133.184311,81.357109 
	C132.076584,79.554962 129.402756,77.937256 132.071716,75.456055 
	C134.234985,73.444977 136.642380,71.856339 139.572906,73.950943 
	C142.119614,75.771202 144.294373,78.224380 142.657059,81.462410 
	C141.468521,83.812943 140.319672,86.027184 140.857986,88.618988 
	C138.035965,89.022377 137.495026,87.178612 136.267273,85.694046 
z"/>
<path fill="#262626" opacity="1.000000" stroke="none" 
	d="
M151.011505,71.738289 
	C148.093765,65.251549 153.458786,65.133080 156.726532,63.462616 
	C161.204224,68.532829 162.198044,72.296516 159.507126,74.357895 
	C155.796936,77.200081 153.141357,75.794189 151.011505,71.738289 
z"/>
<path fill="#262626" opacity="1.000000" stroke="none" 
	d="
M250.163574,86.927673 
	C253.432114,84.509621 255.850571,86.499252 256.460541,88.690529 
	C257.481781,92.359413 254.636719,94.885201 251.675064,96.494530 
	C248.389221,98.279999 246.790421,95.500244 245.475220,93.244804 
	C243.887939,90.522797 245.605682,88.913177 247.956161,87.797020 
	C248.552994,87.513603 249.206253,87.349037 250.163574,86.927673 
z"/>
<path fill="#262626" opacity="1.000000" stroke="none" 
	d="
M188.535767,172.251099 
	C186.537827,168.334076 189.414474,163.509415 185.023422,160.503464 
	C184.155014,159.909027 185.046265,158.022171 186.330414,157.872574 
	C188.779480,157.587280 191.291336,157.551056 193.751205,157.743256 
	C195.602554,157.887894 196.005234,159.920105 194.937851,160.614914 
	C191.497177,162.854584 192.598434,166.133774 192.337006,169.143906 
	C192.153168,171.260513 192.466599,173.942810 188.535767,172.251099 
z"/>
<path fill="#262626" opacity="1.000000" stroke="none" 
	d="
M226.462799,66.471802 
	C229.542358,69.340530 229.611557,75.312088 226.700851,77.412689 
	C224.026993,79.342346 222.066040,77.191948 220.273544,75.561485 
	C219.136047,74.526817 218.222122,72.620026 219.811249,71.745148 
	C222.365952,70.338654 220.619705,64.060364 226.462799,66.471802 
z"/>
<path fill="#262626" opacity="1.000000" stroke="none" 
	d="
M208.350830,69.958855 
	C208.964813,66.800537 208.830658,63.675587 211.913086,61.866249 
	C214.378342,63.657848 212.567062,65.914215 212.852570,68.066002 
	C215.040939,67.157692 214.063629,63.267471 217.658951,63.717258 
	C218.914444,67.444901 218.460236,71.452805 215.278534,73.559998 
	C212.944611,75.105713 209.430038,74.097855 208.350830,69.958855 
z"/>
<path fill="#262626" opacity="1.000000" stroke="none" 
	d="
M176.705048,63.985085 
	C176.957886,60.722313 178.314743,58.937813 181.325928,58.735443 
	C183.719162,58.574600 185.083649,59.851219 185.584061,62.031227 
	C186.224548,64.821480 185.977554,67.837265 184.019379,69.766518 
	C181.679733,72.071617 178.109039,69.350166 176.705048,63.985085 
z"/>
<path fill="#262626" opacity="1.000000" stroke="none" 
	d="
M125.058609,91.080414 
	C122.093803,87.945793 121.655540,84.924767 124.759529,82.220802 
	C126.233284,80.936981 128.688995,81.021889 129.689514,82.580116 
	C131.015121,84.644638 132.328186,86.965797 133.033585,89.211266 
	C133.430740,90.475533 130.852570,92.220863 128.619370,92.301743 
	C127.422440,92.345085 126.330856,92.091125 125.058609,91.080414 
z"/>
<path fill="#262626" opacity="1.000000" stroke="none" 
	d="
M214.198456,168.240555 
	C213.116898,164.733093 212.295395,161.513306 211.298538,158.348740 
	C210.401932,155.502426 211.422729,154.250580 214.527466,154.226044 
	C216.834488,157.878677 217.667953,162.131332 218.254333,166.339813 
	C218.649246,169.173981 217.229660,170.528656 214.198456,168.240555 
z"/>
<path fill="#262626" opacity="1.000000" stroke="none" 
	d="
M251.457977,100.190506 
	C252.817627,96.547394 255.842606,95.373848 258.733307,94.199768 
	C260.433014,93.509407 262.733887,93.249657 263.293518,95.576408 
	C263.733978,97.407761 262.466675,99.526176 260.497253,99.651489 
	C257.218719,99.860100 255.116364,101.903458 252.894455,103.632545 
	C251.385437,102.894966 251.511459,101.662102 251.457977,100.190506 
z"/>
<path fill="#262626" opacity="1.000000" stroke="none" 
	d="
M166.593658,68.419350 
	C166.907013,69.925377 167.372253,71.195732 165.907303,71.775467 
	C164.760193,72.229416 164.058197,71.386658 163.592346,70.463600 
	C162.164581,67.634598 161.169434,64.635109 161.035416,61.476662 
	C160.954575,59.571850 161.849045,57.631298 163.893326,57.352802 
	C166.659698,56.975929 166.379623,59.690800 166.606323,61.202717 
	C166.939560,63.425304 166.571152,65.753090 166.593658,68.419350 
z"/>
<path fill="#262626" opacity="1.000000" stroke="none" 
	d="
M243.620148,86.402496 
	C243.058777,88.470940 241.893784,88.784454 240.485275,88.041306 
	C239.318054,87.425446 239.076538,86.233429 239.461807,85.021751 
	C240.382080,82.127602 241.969955,79.597664 244.274185,77.650818 
	C245.418976,76.683586 247.121063,76.171883 248.320847,77.509476 
	C249.608658,78.945229 249.288879,80.689011 247.892807,81.929070 
	C246.423141,83.234497 244.530411,84.086372 243.620148,86.402496 
z"/>
<path fill="#262626" opacity="1.000000" stroke="none" 
	d="
M230.410217,80.652451 
	C228.793930,76.128311 232.648819,68.933350 237.083130,67.414513 
	C237.755524,71.545479 234.356949,78.726456 230.410217,80.652451 
z"/>
<path fill="#262626" opacity="1.000000" stroke="none" 
	d="
M142.298431,69.477425 
	C143.731171,68.182266 144.977356,67.399078 146.867722,68.575684 
	C146.242218,71.792702 149.160980,74.831993 147.590714,78.934753 
	C143.659561,76.880226 141.972168,73.921799 142.298431,69.477425 
z"/>
<path fill="#262626" opacity="1.000000" stroke="none" 
	d="
M172.873062,71.178238 
	C169.228226,67.829094 168.289642,64.392433 169.477097,59.465431 
	C174.541931,61.178276 172.848419,66.841820 175.535812,69.797821 
	C175.774231,70.060066 174.308594,71.112289 172.873062,71.178238 
z"/>
<path fill="#262626" opacity="1.000000" stroke="none" 
	d="
M236.985992,82.596298 
	C236.061554,83.041565 235.215622,83.216850 235.008286,82.465942 
	C234.053131,79.006393 237.500092,75.074158 241.870560,74.806610 
	C241.911865,78.354889 239.718323,80.459160 236.985992,82.596298 
z"/>
</svg>
