<svg version="1.1" id="Layer_1" xmlns="http://www.w3.org/2000/svg" xmlns:xlink="http://www.w3.org/1999/xlink" x="0px" y="0px"
	 width="100%" viewBox="0 0 366 256" enable-background="new 0 0 366 256" xml:space="preserve">
<path fill="#262626" opacity="1.000000" stroke="none" 
	d="
M194.000000,257.000000 
	C129.333359,257.000000 65.166702,257.000000 1.000043,257.000000 
	C1.000029,171.666718 1.000029,86.333420 1.000014,1.000100 
	C122.999916,1.000067 244.999832,1.000067 366.999817,1.000033 
	C366.999878,86.333229 366.999878,171.666458 366.999939,256.999847 
	C309.500000,257.000000 252.000000,257.000000 194.000000,257.000000 
M267.496613,202.170258 
	C250.630981,201.993515 236.415344,195.743332 224.962845,183.384293 
	C218.703430,176.629379 218.792206,176.547150 211.457596,181.979233 
	C211.323959,182.078217 211.193130,182.182953 211.050812,182.267960 
	C208.427963,183.834641 208.401260,185.569168 210.244598,187.959213 
	C231.998077,216.164307 271.213409,224.226669 302.316589,206.818451 
	C340.694336,185.338745 351.211273,136.530319 325.268707,100.299164 
	C298.271027,62.594460 238.968307,62.061447 210.888916,99.308464 
	C210.059998,100.408012 208.995621,102.780357 209.341156,103.085121 
	C212.058533,105.481720 214.895508,107.969101 218.148529,109.396103 
	C219.143906,109.832748 221.833084,107.309380 223.265610,105.710571 
	C239.770325,87.289619 260.157196,81.179543 283.787018,87.674477 
	C309.934570,94.861443 327.828491,122.472878 324.785126,149.505447 
	C321.419586,179.399521 298.569580,200.758713 267.496613,202.170258 
M265.303497,174.813644 
	C272.017303,172.407791 278.662750,169.780777 285.469879,167.676880 
	C289.729950,166.360229 291.111053,163.914841 291.066864,159.628998 
	C290.902039,143.640121 291.008392,127.648506 290.988495,111.657951 
	C290.986694,110.201523 290.809998,108.745308 290.705627,107.153519 
	C289.198517,107.153519 287.948883,106.840202 286.939240,107.200111 
	C269.293915,113.490082 251.658035,119.808876 234.095520,126.324631 
	C232.772751,126.815392 231.275909,128.765228 231.139740,130.161621 
	C230.744034,134.219559 230.999435,138.341003 230.999435,142.778595 
	C237.631317,140.550110 243.766937,138.488388 250.768112,136.135803 
	C250.768112,151.278381 250.768112,165.195633 250.768112,179.854599 
	C255.864258,178.070038 260.205841,176.549698 265.303497,174.813644 
M155.093948,113.188820 
	C155.059601,117.678352 154.999298,122.167870 154.995621,126.657433 
	C154.983200,141.794388 155.018021,156.931427 154.964401,172.068207 
	C154.955399,174.606598 155.083267,177.010025 158.350418,176.937653 
	C167.360840,176.738052 176.425293,176.891571 185.361084,175.919342 
	C197.451965,174.603882 206.637802,165.796356 208.842056,154.010117 
	C209.751343,149.148254 210.149887,144.071747 209.907059,139.135834 
	C209.173141,124.217354 202.040314,114.050659 188.957047,111.890991 
	C178.754105,110.206779 168.141876,110.970444 157.709122,110.776665 
	C156.960541,110.762764 156.192123,111.817574 155.093948,113.188820 
M95.187698,149.499924 
	C95.183121,155.655609 95.178566,161.811310 95.173958,167.966995 
	C95.166954,177.329865 95.166908,177.329285 104.574982,176.807953 
	C104.906586,176.789581 105.247772,176.853088 105.571609,176.799973 
	C107.842812,176.427368 109.369934,175.681046 109.250732,172.778046 
	C109.032707,167.467880 109.106705,162.133041 109.363258,156.823181 
	C109.449753,155.032959 110.458878,153.287323 111.046333,151.521301 
	C113.084419,152.598038 115.815872,153.173782 117.026123,154.848694 
	C120.217400,159.265198 122.751534,164.156952 125.541458,168.862946 
	C130.196671,176.715256 137.119659,179.007599 146.462524,175.535248 
	C141.369965,166.996765 136.309158,158.511520 131.490906,150.432953 
	C135.048157,146.428146 139.540100,143.271866 141.335800,138.985931 
	C146.326340,127.074661 142.454880,110.398750 122.422707,110.013634 
	C115.437706,109.879349 108.430763,110.290924 101.466270,109.889870 
	C96.603653,109.609848 95.037491,111.319290 95.138290,116.059196 
	C95.368134,126.868233 95.196869,137.685806 95.187698,149.499924 
M36.840195,146.283844 
	C33.415775,156.240952 29.991352,166.198074 26.297766,176.937820 
	C30.567398,176.937820 33.933990,177.331192 37.138504,176.780807 
	C38.881283,176.481476 41.368607,174.857254 41.779079,173.354935 
	C45.097950,161.207932 45.314320,163.704071 56.368912,163.271606 
	C57.698074,163.219589 59.030949,163.258072 60.362083,163.261505 
	C70.292213,163.287186 68.303207,162.594345 71.237511,171.135345 
	C71.892097,173.040680 73.126724,176.016174 74.422356,176.201157 
	C78.854729,176.833969 83.433159,176.443756 88.523544,176.443756 
	C82.324829,157.897552 76.417496,140.136993 70.449295,122.396935 
	C66.469254,110.566528 66.428459,110.675812 53.953815,110.419327 
	C50.419487,110.346664 48.500854,111.453285 47.378376,114.944443 
	C44.085621,125.185661 40.483017,135.327255 36.840195,146.283844 
z"/>
<path fill="#F2F2F2" opacity="1.000000" stroke="none" 
	d="
M267.972656,202.168259 
	C298.569580,200.758713 321.419586,179.399521 324.785126,149.505447 
	C327.828491,122.472878 309.934570,94.861443 283.787018,87.674477 
	C260.157196,81.179543 239.770325,87.289619 223.265610,105.710571 
	C221.833084,107.309380 219.143906,109.832748 218.148529,109.396103 
	C214.895508,107.969101 212.058533,105.481720 209.341156,103.085121 
	C208.995621,102.780357 210.059998,100.408012 210.888916,99.308464 
	C238.968307,62.061447 298.271027,62.594460 325.268707,100.299164 
	C351.211273,136.530319 340.694336,185.338745 302.316589,206.818451 
	C271.213409,224.226669 231.998077,216.164307 210.244598,187.959213 
	C208.401260,185.569168 208.427963,183.834641 211.050812,182.267960 
	C211.193130,182.182953 211.323959,182.078217 211.457596,181.979233 
	C218.792206,176.547150 218.703430,176.629379 224.962845,183.384293 
	C236.415344,195.743332 250.630981,201.993515 267.972656,202.168259 
z"/>
<path fill="#F7F7F7" opacity="1.000000" stroke="none" 
	d="
M264.925446,174.921509 
	C260.205841,176.549698 255.864258,178.070038 250.768112,179.854599 
	C250.768112,165.195633 250.768112,151.278381 250.768112,136.135803 
	C243.766937,138.488388 237.631317,140.550110 230.999435,142.778595 
	C230.999435,138.341003 230.744034,134.219559 231.139740,130.161621 
	C231.275909,128.765228 232.772751,126.815392 234.095520,126.324631 
	C251.658035,119.808876 269.293915,113.490082 286.939240,107.200111 
	C287.948883,106.840202 289.198517,107.153519 290.705627,107.153519 
	C290.809998,108.745308 290.986694,110.201523 290.988495,111.657951 
	C291.008392,127.648506 290.902039,143.640121 291.066864,159.628998 
	C291.111053,163.914841 289.729950,166.360229 285.469879,167.676880 
	C278.662750,169.780777 272.017303,172.407791 264.925446,174.921509 
z"/>
<path fill="#F1F1F1" opacity="1.000000" stroke="none" 
	d="
M155.263443,112.782150 
	C156.192123,111.817574 156.960541,110.762764 157.709122,110.776665 
	C168.141876,110.970444 178.754105,110.206779 188.957047,111.890991 
	C202.040314,114.050659 209.173141,124.217354 209.907059,139.135834 
	C210.149887,144.071747 209.751343,149.148254 208.842056,154.010117 
	C206.637802,165.796356 197.451965,174.603882 185.361084,175.919342 
	C176.425293,176.891571 167.360840,176.738052 158.350418,176.937653 
	C155.083267,177.010025 154.955399,174.606598 154.964401,172.068207 
	C155.018021,156.931427 154.983200,141.794388 154.995621,126.657433 
	C154.999298,122.167870 155.059601,117.678352 155.263443,112.782150 
M168.727966,140.501450 
	C168.714706,147.491196 168.594742,154.483780 168.781586,161.468170 
	C168.817337,162.804871 169.763550,164.923126 170.794983,165.300766 
	C179.647873,168.541916 191.264084,163.027786 194.264908,154.373489 
	C196.749283,147.208557 196.338379,140.028839 194.172546,132.874146 
	C192.454132,127.197472 188.464020,124.043495 182.773697,123.078995 
	C179.501099,122.524300 176.148331,122.460915 172.846527,122.055145 
	C169.751572,121.674797 168.625305,123.053261 168.692749,126.022720 
	C168.794739,130.513870 168.724274,135.008942 168.727966,140.501450 
z"/>
<path fill="#F2F2F2" opacity="1.000000" stroke="none" 
	d="
M95.188141,148.999908 
	C95.196869,137.685806 95.368134,126.868233 95.138290,116.059196 
	C95.037491,111.319290 96.603653,109.609848 101.466270,109.889870 
	C108.430763,110.290924 115.437706,109.879349 122.422707,110.013634 
	C142.454880,110.398750 146.326340,127.074661 141.335800,138.985931 
	C139.540100,143.271866 135.048157,146.428146 131.490906,150.432953 
	C136.309158,158.511520 141.369965,166.996765 146.462524,175.535248 
	C137.119659,179.007599 130.196671,176.715256 125.541458,168.862946 
	C122.751534,164.156952 120.217400,159.265198 117.026123,154.848694 
	C115.815872,153.173782 113.084419,152.598038 111.046341,151.521301 
	C110.458878,153.287323 109.449753,155.032959 109.363258,156.823181 
	C109.106705,162.133041 109.032707,167.467880 109.250732,172.778046 
	C109.369934,175.681046 107.842812,176.427368 105.571609,176.799973 
	C105.247772,176.853088 104.906586,176.789581 104.574982,176.807953 
	C95.166908,177.329285 95.166954,177.329865 95.173958,167.966995 
	C95.178566,161.811310 95.183121,155.655609 95.188141,148.999908 
M115.476868,140.996506 
	C117.952034,140.745010 120.754265,141.131851 122.816841,140.075073 
	C125.216156,138.845749 128.359818,136.549438 128.670303,134.360168 
	C129.123337,131.165802 128.236893,125.495712 126.330414,124.701828 
	C121.540573,122.707253 115.864044,122.659630 110.524101,122.510582 
	C110.091454,122.498512 109.410568,127.664093 109.042992,130.449829 
	C108.827454,132.083298 109.168785,133.788315 108.971725,135.426514 
	C108.449753,139.765671 110.136353,141.720505 115.476868,140.996506 
z"/>
<path fill="#F1F1F1" opacity="1.000000" stroke="none" 
	d="
M36.920982,145.895859 
	C40.483017,135.327255 44.085621,125.185661 47.378376,114.944443 
	C48.500854,111.453285 50.419487,110.346664 53.953815,110.419327 
	C66.428459,110.675812 66.469254,110.566528 70.449295,122.396935 
	C76.417496,140.136993 82.324829,157.897552 88.523544,176.443756 
	C83.433159,176.443756 78.854729,176.833969 74.422356,176.201157 
	C73.126724,176.016174 71.892097,173.040680 71.237511,171.135345 
	C68.303207,162.594345 70.292213,163.287186 60.362083,163.261505 
	C59.030949,163.258072 57.698074,163.219589 56.368912,163.271606 
	C45.314320,163.704071 45.097950,161.207932 41.779079,173.354935 
	C41.368607,174.857254 38.881283,176.481476 37.138504,176.780807 
	C33.933990,177.331192 30.567398,176.937820 26.297766,176.937820 
	C29.991352,166.198074 33.415775,156.240952 36.920982,145.895859 
M48.907890,150.738663 
	C54.195187,151.377747 59.482483,152.016815 66.020203,152.807022 
	C62.956875,143.110352 60.386681,134.974655 57.816490,126.838951 
	C57.436481,126.768829 57.056477,126.698708 56.676472,126.628586 
	C54.094608,134.373520 51.512745,142.118439 48.907890,150.738663 
z"/>
<path fill="#2C2C2C" opacity="1.000000" stroke="none" 
	d="
M168.727539,140.001892 
	C168.724274,135.008942 168.794739,130.513870 168.692749,126.022720 
	C168.625305,123.053261 169.751572,121.674797 172.846527,122.055145 
	C176.148331,122.460915 179.501099,122.524300 182.773697,123.078995 
	C188.464020,124.043495 192.454132,127.197472 194.172546,132.874146 
	C196.338379,140.028839 196.749283,147.208557 194.264908,154.373489 
	C191.264084,163.027786 179.647873,168.541916 170.794983,165.300766 
	C169.763550,164.923126 168.817337,162.804871 168.781586,161.468170 
	C168.594742,154.483780 168.714706,147.491196 168.727539,140.001892 
z"/>
<path fill="#2C2C2C" opacity="1.000000" stroke="none" 
	d="
M115.023880,140.996719 
	C110.136353,141.720505 108.449753,139.765671 108.971725,135.426514 
	C109.168785,133.788315 108.827454,132.083298 109.042992,130.449829 
	C109.410568,127.664093 110.091454,122.498512 110.524101,122.510582 
	C115.864044,122.659630 121.540573,122.707253 126.330414,124.701828 
	C128.236893,125.495712 129.123337,131.165802 128.670303,134.360168 
	C128.359818,136.549438 125.216156,138.845749 122.816841,140.075073 
	C120.754265,141.131851 117.952034,140.745010 115.023880,140.996719 
z"/>
<path fill="#373737" opacity="1.000000" stroke="none" 
	d="
M48.919384,150.301025 
	C51.512745,142.118439 54.094608,134.373520 56.676472,126.628586 
	C57.056477,126.698708 57.436481,126.768829 57.816490,126.838951 
	C60.386681,134.974655 62.956875,143.110352 66.020203,152.807022 
	C59.482483,152.016815 54.195187,151.377747 48.919384,150.301025 
z"/>
</svg>