<svg version="1.1" id="Layer_1" xmlns="http://www.w3.org/2000/svg" xmlns:xlink="http://www.w3.org/1999/xlink" x="0px" y="0px"
	 width="100%" viewBox="0 0 236 226" enable-background="new 0 0 236 226" xml:space="preserve">
<path fill="transparent" opacity="1.000000" stroke="none" 
	d="
M136.000000,227.000000 
	C90.666672,227.000000 45.833340,227.000000 1.000006,227.000000 
	C1.000004,151.666672 1.000004,76.333351 1.000002,1.000016 
	C79.666656,1.000011 158.333313,1.000011 236.999969,1.000005 
	C236.999985,76.333321 236.999985,151.666641 237.000000,226.999969 
	C203.500000,227.000000 170.000000,227.000000 136.000000,227.000000 
M202.423126,31.000511 
	C180.766098,31.000559 159.108948,31.041628 137.452179,30.965240 
	C133.237701,30.950375 130.039215,31.927776 130.037979,36.842228 
	C130.034576,50.500027 129.423157,64.208038 130.369705,77.804474 
	C131.983170,100.980354 150.126511,117.577988 172.488205,117.486282 
	C195.015564,117.393906 213.040558,100.754005 214.580887,77.748886 
	C215.369431,65.972015 214.800797,54.103382 214.820526,42.276176 
	C214.839355,31.000664 214.825058,31.000639 202.423126,31.000511 
M51.500061,215.424911 
	C70.316895,215.424088 89.133736,215.409637 107.950539,215.434921 
	C111.382462,215.439529 114.374710,215.153412 114.327637,210.555344 
	C114.177643,195.905411 114.868042,181.198959 113.805588,166.618408 
	C112.464493,148.214142 98.126823,130.211807 71.760033,129.200623 
	C52.157951,128.448837 32.957893,144.345306 30.971292,164.430786 
	C29.437183,179.941391 30.212097,195.680679 29.969597,211.318436 
	C29.921837,214.398224 31.891691,215.337646 34.515690,215.368881 
	C39.843380,215.432312 45.172077,215.411209 51.500061,215.424911 
M203.439819,215.358536 
	C206.944931,215.157547 210.450058,214.956558 215.082626,214.690918 
	C213.157379,211.317764 212.097412,209.090622 210.709396,207.091202 
	C203.796936,197.133942 196.988998,187.093765 189.729233,177.393402 
	C187.086868,173.862732 187.461746,171.445007 189.875031,168.196777 
	C197.204559,158.331329 204.349838,148.326767 211.421509,138.274139 
	C212.584732,136.620590 213.014160,134.450836 213.782715,132.519638 
	C211.756668,132.011612 209.732529,131.070602 207.704300,131.061752 
	C184.398483,130.959915 161.092041,130.992340 137.785767,131.006058 
	C130.765152,131.010193 130.039078,131.641602 130.022751,138.675049 
	C129.969025,161.814758 129.974457,184.954712 130.019272,208.094452 
	C130.032440,214.888992 130.610458,215.408737 137.533798,215.410446 
	C159.175354,215.415771 180.816895,215.380005 203.439819,215.358536 
M104.020966,50.504116 
	C107.024315,46.318539 110.025154,42.131161 113.031876,37.948002 
	C115.145615,35.007217 114.294487,32.925289 111.054047,31.824554 
	C109.515739,31.302015 107.814377,31.038578 106.186089,31.035097 
	C83.193497,30.985937 60.200748,30.980978 37.208111,31.015594 
	C31.046379,31.024870 30.029682,32.045349 30.018473,38.361671 
	C29.976776,61.854122 29.974501,85.346748 30.020855,108.839188 
	C30.032707,114.846992 30.989365,115.883247 36.939651,115.957191 
	C47.268127,116.085548 57.613216,116.289223 67.919930,115.799828 
	C70.624672,115.671394 73.787170,113.642441 75.727470,111.548538 
	C78.973747,108.045288 81.373062,103.764046 84.187523,99.852463 
	C90.594841,90.947510 97.118240,82.124359 103.397476,73.130432 
	C104.635666,71.356949 104.988716,68.965485 105.749969,66.859016 
	C103.452522,66.221115 101.176346,65.484390 98.849403,64.983490 
	C97.517014,64.696678 96.102097,64.793243 93.838432,64.668304 
	C97.449844,59.654686 100.532761,55.374752 104.020966,50.504116 
z"/>
<path fill="#FFFFFF" opacity="1.000000" stroke="none" 
	d="
M202.908569,31.000511 
	C214.825058,31.000639 214.839355,31.000664 214.820526,42.276176 
	C214.800797,54.103382 215.369431,65.972015 214.580887,77.748886 
	C213.040558,100.754005 195.015564,117.393906 172.488205,117.486282 
	C150.126511,117.577988 131.983170,100.980354 130.369705,77.804474 
	C129.423157,64.208038 130.034576,50.500027 130.037979,36.842228 
	C130.039215,31.927776 133.237701,30.950375 137.452179,30.965240 
	C159.108948,31.041628 180.766098,31.000559 202.908569,31.000511 
z"/>
<path fill="#FFFFFF" opacity="1.000000" stroke="none" 
	d="
M51.000210,215.424927 
	C45.172077,215.411209 39.843380,215.432312 34.515690,215.368881 
	C31.891691,215.337646 29.921837,214.398224 29.969597,211.318436 
	C30.212097,195.680679 29.437183,179.941391 30.971292,164.430786 
	C32.957893,144.345306 52.157951,128.448837 71.760033,129.200623 
	C98.126823,130.211807 112.464493,148.214142 113.805588,166.618408 
	C114.868042,181.198959 114.177643,195.905411 114.327637,210.555344 
	C114.374710,215.153412 111.382462,215.439529 107.950539,215.434921 
	C89.133736,215.409637 70.316895,215.424088 51.000210,215.424927 
z"/>
<path fill="#FFFFFF" opacity="1.000000" stroke="none" 
	d="
M202.949127,215.359344 
	C180.816895,215.380005 159.175354,215.415771 137.533798,215.410446 
	C130.610458,215.408737 130.032440,214.888992 130.019272,208.094452 
	C129.974457,184.954712 129.969025,161.814758 130.022751,138.675049 
	C130.039078,131.641602 130.765152,131.010193 137.785767,131.006058 
	C161.092041,130.992340 184.398483,130.959915 207.704300,131.061752 
	C209.732529,131.070602 211.756668,132.011612 213.782715,132.519638 
	C213.014160,134.450836 212.584732,136.620590 211.421509,138.274139 
	C204.349838,148.326767 197.204559,158.331329 189.875031,168.196777 
	C187.461746,171.445007 187.086868,173.862732 189.729233,177.393402 
	C196.988998,187.093765 203.796936,197.133942 210.709396,207.091202 
	C212.097412,209.090622 213.157379,211.317764 215.082626,214.690918 
	C210.450058,214.956558 206.944931,215.157547 202.949127,215.359344 
z"/>
<path fill="#FFFFFF" opacity="1.000000" stroke="none" 
	d="
M103.818329,50.799465 
	C100.532761,55.374752 97.449844,59.654686 93.838432,64.668304 
	C96.102097,64.793243 97.517014,64.696678 98.849403,64.983490 
	C101.176346,65.484390 103.452522,66.221115 105.749969,66.859016 
	C104.988716,68.965485 104.635666,71.356949 103.397476,73.130432 
	C97.118240,82.124359 90.594841,90.947510 84.187523,99.852463 
	C81.373062,103.764046 78.973747,108.045288 75.727470,111.548538 
	C73.787170,113.642441 70.624672,115.671394 67.919930,115.799828 
	C57.613216,116.289223 47.268127,116.085548 36.939651,115.957191 
	C30.989365,115.883247 30.032707,114.846992 30.020855,108.839188 
	C29.974501,85.346748 29.976776,61.854122 30.018473,38.361671 
	C30.029682,32.045349 31.046379,31.024870 37.208111,31.015594 
	C60.200748,30.980978 83.193497,30.985937 106.186089,31.035097 
	C107.814377,31.038578 109.515739,31.302015 111.054047,31.824554 
	C114.294487,32.925289 115.145615,35.007217 113.031876,37.948002 
	C110.025154,42.131161 107.024315,46.318539 103.818329,50.799465 
z"/>
</svg>