<svg version="1.1" id="Layer_1" xmlns="http://www.w3.org/2000/svg" xmlns:xlink="http://www.w3.org/1999/xlink" x="0px" y="0px"
	 width="100%" viewBox="0 0 608 608" enable-background="new 0 0 608 608" xml:space="preserve">
<path fill="#8F8F8F" opacity="1.000000" stroke="none" 
	d="
M147.452454,441.466858 
	C136.729370,425.922424 136.149323,410.144318 145.311127,394.201447 
	C169.045349,352.900482 192.962921,311.704865 216.788605,270.456390 
	C234.699905,239.447281 252.424271,208.328903 270.523315,177.429886 
	C287.486816,148.469559 326.580475,148.385468 343.421448,177.380768 
	C379.641296,239.741013 415.556976,302.277924 451.603882,364.738617 
	C457.431305,374.836121 463.484711,384.808350 469.103485,395.020172 
	C485.401306,424.640442 465.727722,458.069061 431.886627,458.141449 
	C376.232391,458.260529 320.577759,458.175201 264.923279,458.177032 
	C237.429306,458.177917 209.935013,458.259308 182.441467,458.150604 
	C168.376236,458.095001 156.381287,453.319489 147.452454,441.466858 
M257.119324,255.555573 
	C234.642303,294.493439 212.159470,333.427948 189.691772,372.371185 
	C182.702896,384.484985 175.634720,396.555481 168.834518,408.774719 
	C164.907349,415.831360 165.819138,421.471893 170.970108,426.469666 
	C174.287369,429.688202 178.221344,430.724091 182.799820,430.720398 
	C265.259399,430.653931 347.718994,430.674225 430.178619,430.674957 
	C431.178101,430.674957 432.178955,430.693665 433.176849,430.650116 
	C444.202850,430.168640 450.635559,419.508606 445.783875,409.687286 
	C444.531525,407.152100 443.089478,404.707733 441.675842,402.255493 
	C419.637665,364.025421 397.612152,325.788025 375.537262,287.579102 
	C357.127075,255.713303 338.800934,223.797394 320.139191,192.079208 
	C312.979919,179.911072 300.556122,180.387100 293.464325,192.635056 
	C281.449677,213.384995 269.467651,234.153839 257.119324,255.555573 
z"/>
<path fill="#8F8F8F" opacity="1.000000" stroke="none" 
	d="
M294.235840,310.549835 
	C292.645630,294.227051 290.775177,278.375702 289.790649,262.469452 
	C289.119537,251.626892 297.395966,243.689026 307.646912,244.068954 
	C317.966614,244.451416 325.407196,252.778656 324.375092,263.603302 
	C322.325500,285.099213 319.905487,306.559906 317.625183,328.033722 
	C316.590546,337.777252 315.461365,347.511230 314.499207,357.261810 
	C314.034821,361.967743 311.503113,364.639099 306.951569,365.063263 
	C302.916840,365.439301 299.446564,362.019684 298.896606,357.131348 
	C297.707886,346.566010 296.728180,335.976990 295.682648,325.395721 
	C295.208649,320.598816 294.781464,315.797302 294.235840,310.549835 
z"/>
<path fill="#8F8F8F" opacity="1.000000" stroke="none" 
	d="
M293.659943,401.196655 
	C289.010162,393.269073 289.537506,385.306641 294.836639,379.750397 
	C299.611694,374.743713 307.885406,373.483887 314.128357,376.914581 
	C320.554993,380.446228 322.969635,386.094635 322.337036,393.191620 
	C321.743561,399.849731 318.075470,404.406189 311.904938,406.472076 
	C304.984161,408.789185 298.815979,407.054016 293.659943,401.196655 
z"/>
</svg>
