<svg version="1.1" id="Layer_1" xmlns="http://www.w3.org/2000/svg" xmlns:xlink="http://www.w3.org/1999/xlink" x="0px" y="0px"
	 width="100%" viewBox="0 0 420 242" enable-background="new 0 0 420 242" xml:space="preserve" preserveAspectRatio="xMidYMid meet" shape-rendering="geometricPrecision" text-rendering="geometricPrecision">
<path fill="#262626" opacity="1.000000" stroke="none" 
	d="
M306.000000,243.000000 
	C204.000031,243.000000 102.500076,243.000000 1.000082,243.000000 
	C1.000054,162.333405 1.000054,81.666794 1.000027,1.000147 
	C140.999893,1.000098 280.999786,1.000098 420.999756,1.000049 
	C420.999817,81.666527 420.999817,162.333054 420.999908,242.999786 
	C382.833344,243.000000 344.666656,243.000000 306.000000,243.000000 
M197.056976,126.654121 
	C204.562637,131.075699 212.437653,127.584038 220.128372,128.577011 
	C220.128372,101.216492 220.128372,74.703209 220.128372,47.996471 
	C213.424286,47.996471 207.086060,48.293846 200.791061,47.900097 
	C195.965958,47.598289 194.766418,49.554573 194.923050,53.971661 
	C195.189743,61.492943 194.996490,69.030533 194.996490,77.984451 
	C188.622742,68.428986 183.196503,60.118954 177.543167,51.966393 
	C176.413147,50.336815 174.484543,48.293274 172.807922,48.181316 
	C166.243896,47.742989 159.633301,48.002174 152.906189,48.002174 
	C152.906189,74.603523 152.904327,100.564224 152.921097,126.524918 
	C152.921402,126.985268 153.145294,127.445473 153.285339,127.984627 
	C161.590515,127.984627 169.809387,127.984627 178.539139,127.984627 
	C178.539139,118.818062 178.539139,109.943748 178.539139,101.069435 
	C178.854385,100.975098 179.169632,100.880768 179.484879,100.786438 
	C185.183716,109.211914 190.882553,117.637398 197.056976,126.654121 
M69.276756,52.721558 
	C69.276756,77.788452 69.276756,102.855354 69.276756,127.981270 
	C78.262451,127.981270 86.487946,127.981270 95.236664,127.981270 
	C95.236664,118.846916 95.236664,110.007935 95.236664,101.168953 
	C100.940498,108.113327 105.487129,115.467209 110.610573,122.394463 
	C112.546463,125.011917 115.603096,127.981476 118.520775,128.443924 
	C124.447548,129.383286 130.627594,128.724670 137.003265,128.724670 
	C137.003265,122.427139 137.003265,117.114769 137.003265,111.802399 
	C137.003250,92.148087 137.007431,72.493767 136.997604,52.839458 
	C136.996460,50.549061 137.523148,47.948746 133.802368,47.981911 
	C126.513603,48.046875 119.223846,48.000996 111.153625,48.000996 
	C111.153625,57.668468 111.153625,66.939964 111.153625,77.602448 
	C107.202499,71.676643 103.447845,67.432152 101.261276,62.493408 
	C95.776123,50.104244 86.739960,45.440060 73.654800,47.988873 
	C73.333839,48.051392 72.982468,48.043209 72.658142,47.989857 
	C69.534836,47.476089 68.949013,49.213650 69.276756,52.721558 
M28.998840,161.501297 
	C28.998840,182.244385 28.998840,202.987473 28.998840,223.919540 
	C43.173153,223.919540 56.808495,224.298798 70.412399,223.807632 
	C82.796196,223.360504 91.378143,216.917328 94.571846,206.986374 
	C98.057716,196.146912 95.150780,187.525101 85.124763,179.281296 
	C86.230164,178.040344 87.378479,176.843475 88.423912,175.562653 
	C95.480583,166.917053 94.080147,155.220413 84.823402,148.972321 
	C81.610985,146.804016 77.618797,144.672012 73.914749,144.547531 
	C59.035770,144.047562 44.130146,144.340698 28.998840,144.340698 
	C28.998840,149.892548 28.998840,155.197235 28.998840,161.501297 
M105.788193,167.499939 
	C105.788193,186.246155 105.788193,204.992355 105.788193,223.751480 
	C114.836182,223.751480 123.252037,223.751480 132.216751,223.751480 
	C132.216751,214.161118 132.216751,204.806885 132.216751,195.452667 
	C132.767288,195.149200 133.317825,194.845734 133.868362,194.542267 
	C135.596100,196.566010 137.961914,198.325760 138.929276,200.664093 
	C141.591385,207.098969 143.524506,213.832718 146.081955,220.315720 
	C146.675949,221.821503 148.564575,223.797745 149.930176,223.856094 
	C157.824738,224.193359 165.741074,224.020737 174.384201,224.020737 
	C169.103653,211.867737 164.118439,200.394455 159.005829,188.627945 
	C169.597549,179.713287 172.875336,170.216217 168.648331,158.963806 
	C165.023102,149.313370 155.544373,143.952148 141.760941,143.833954 
	C132.764511,143.756790 123.767365,143.760071 114.770523,143.732529 
	C111.841690,143.723557 108.912804,143.731110 105.788185,143.731110 
	C105.788185,151.867157 105.788185,159.183548 105.788193,167.499939 
M222.872849,193.201019 
	C222.643417,195.177429 222.446579,197.158264 222.177628,199.129288 
	C221.656250,202.950287 219.000137,204.494949 215.579086,204.729111 
	C211.915329,204.979889 208.949234,203.590530 208.055542,199.677917 
	C207.505280,197.268753 207.141052,194.761002 207.126114,192.294907 
	C207.037323,177.634216 207.081863,162.972763 207.058899,148.311600 
	C207.056671,146.889252 206.899536,145.467117 206.825363,144.229309 
	C198.079224,144.229309 189.809464,144.229309 181.541931,144.229309 
	C181.541931,163.451157 180.842285,182.417160 181.777466,201.302200 
	C182.448273,214.848419 189.424698,221.410461 202.661713,224.434891 
	C211.613235,226.480164 220.577744,226.112579 229.348480,223.646515 
	C242.470108,219.957153 248.714355,211.615463 248.948196,197.579224 
	C249.145218,185.753510 249.005600,173.922195 249.012253,162.093353 
	C249.015594,156.147186 249.012833,150.201004 249.012833,144.170929 
	C240.090820,144.170929 231.682953,144.170929 222.877075,144.170929 
	C222.877075,160.358887 222.877075,176.311890 222.872849,193.201019 
M288.886292,115.176414 
	C289.344604,113.929283 289.915619,112.711067 290.244019,111.430626 
	C294.061310,96.546974 290.989990,84.059181 274.835846,78.529755 
	C270.286865,76.972679 265.767731,75.266327 261.408478,73.252754 
	C260.000793,72.602531 258.206879,70.682388 258.295685,69.467865 
	C258.391907,68.151558 260.278992,66.375694 261.745636,65.890907 
	C263.850830,65.195038 266.340088,65.108017 268.561096,65.446144 
	C271.827362,65.943398 274.965088,67.285316 278.231354,67.782822 
	C279.751892,68.014427 282.345367,67.617455 282.906219,66.628471 
	C285.398224,62.234230 287.330383,57.522484 289.602539,52.629238 
	C277.700226,46.775146 265.962952,44.694664 253.665283,47.611835 
	C239.493774,50.973511 233.288879,58.305546 232.299118,72.084145 
	C231.428940,84.198074 236.744659,91.533287 250.374054,96.871841 
	C254.551926,98.508278 258.907898,99.734421 262.959625,101.625572 
	C264.475708,102.333206 266.277405,104.403595 266.270874,105.845055 
	C266.264343,107.295639 264.421875,109.142601 262.922180,110.065933 
	C261.473236,110.958000 259.352844,111.418251 257.671844,111.152946 
	C252.307587,110.306313 247.037369,108.861504 241.671844,108.026894 
	C239.962402,107.760986 237.008240,108.107925 236.443466,109.155525 
	C234.037933,113.617607 232.314468,118.447403 230.376968,123.059853 
	C242.172913,130.580215 260.968170,132.237061 274.604828,127.282425 
	C280.622467,125.096001 285.468475,121.579773 288.886292,115.176414 
M316.076355,203.240936 
	C312.893707,203.952667 309.691132,204.586304 306.532196,205.391144 
	C297.850555,207.603104 290.957764,204.185577 287.640381,195.983582 
	C284.279510,187.674149 284.685394,179.432129 288.075806,171.260468 
	C290.657288,165.038467 295.431091,161.918030 302.110168,162.070663 
	C305.584534,162.150024 309.041779,163.017563 312.515045,163.082031 
	C313.689148,163.103836 315.602539,161.995941 315.950348,160.982803 
	C317.293823,157.069626 317.999481,152.942459 319.220795,148.980728 
	C320.114594,146.081345 318.994476,145.051605 316.312164,144.675888 
	C310.554016,143.869385 304.839172,142.510040 299.058655,142.152481 
	C281.044556,141.038193 265.684387,151.316223 261.295929,168.347015 
	C259.343811,175.922760 258.659271,184.215347 259.359833,192.006287 
	C261.013702,210.398300 270.163239,220.908051 286.034973,224.453918 
	C297.085846,226.922760 307.891296,225.407715 318.364746,221.545776 
	C319.462280,221.141083 320.587250,218.490158 320.327118,217.147263 
	C319.450714,212.623199 317.954590,208.219223 316.076355,203.240936 
M397.006409,155.409668 
	C398.580627,151.870529 400.154877,148.331390 402.164520,143.813385 
	C394.107910,143.813385 387.334198,143.966522 380.572510,143.748398 
	C377.221405,143.640274 375.408142,145.003311 374.046600,147.912552 
	C369.200989,158.266373 364.045197,168.478256 359.382111,178.911621 
	C358.423645,181.056091 358.257202,184.264633 359.136719,186.402100 
	C363.868286,197.901321 368.959625,209.256821 374.171814,220.548813 
	C374.860870,222.041534 376.910065,223.815292 378.396790,223.878769 
	C386.180084,224.211136 393.985107,224.034027 402.572021,224.034027 
	C401.329956,220.708801 400.458801,217.892487 399.250610,215.229080 
	C394.935181,205.716110 390.615875,196.201492 386.061127,186.802292 
	C384.378784,183.330582 384.371429,180.316513 386.173767,176.917770 
	C389.815887,170.049500 393.191559,163.039917 397.006409,155.409668 
M28.997334,118.461243 
	C28.997334,121.737198 28.997334,125.013161 28.997334,128.336182 
	C37.971516,128.336182 46.375847,128.336182 54.717857,128.336182 
	C54.717857,101.585777 54.717857,75.160324 54.717857,48.672733 
	C46.025948,48.672733 37.622448,48.672733 28.997334,48.672733 
	C28.997334,71.822548 28.997334,94.646729 28.997334,118.461243 
M331.002350,211.489182 
	C331.002350,215.585922 331.002350,219.682648 331.002350,223.699371 
	C339.986816,223.699371 348.379852,223.699371 356.996948,223.699371 
	C356.996948,198.129898 357.044525,172.857651 356.856476,147.587128 
	C356.847076,146.324371 354.840302,144.041672 353.685547,143.990402 
	C346.267303,143.661041 338.827301,143.822159 331.002350,143.822159 
	C331.002350,166.300919 331.002350,188.396255 331.002350,211.489182 
M319.436066,48.980080 
	C319.508148,47.758705 319.580231,46.537334 319.662720,45.139904 
	C314.898285,45.879284 310.601471,46.316093 306.436768,47.307716 
	C304.813232,47.694290 302.451141,49.124149 302.191681,50.429790 
	C300.337616,59.759892 298.939606,69.180618 297.319733,79.040749 
	C299.757751,78.657310 301.512878,78.191032 303.280243,78.138840 
	C308.670990,77.979637 311.567444,75.360718 312.914459,70.074783 
	C314.663391,63.211830 317.071320,56.516815 319.436066,48.980080 
z"/>
<path fill="#F9F9F9" opacity="1.000000" stroke="none" 
	d="
M196.819183,126.358505 
	C190.882553,117.637398 185.183716,109.211914 179.484879,100.786438 
	C179.169632,100.880768 178.854385,100.975098 178.539139,101.069435 
	C178.539139,109.943748 178.539139,118.818062 178.539139,127.984627 
	C169.809387,127.984627 161.590515,127.984627 153.285339,127.984627 
	C153.145294,127.445473 152.921402,126.985268 152.921097,126.524918 
	C152.904327,100.564224 152.906189,74.603523 152.906189,48.002174 
	C159.633301,48.002174 166.243896,47.742989 172.807922,48.181316 
	C174.484543,48.293274 176.413147,50.336815 177.543167,51.966393 
	C183.196503,60.118954 188.622742,68.428986 194.996490,77.984451 
	C194.996490,69.030533 195.189743,61.492943 194.923050,53.971661 
	C194.766418,49.554573 195.965958,47.598289 200.791061,47.900097 
	C207.086060,48.293846 213.424286,47.996471 220.128372,47.996471 
	C220.128372,74.703209 220.128372,101.216492 220.128372,128.577011 
	C212.437653,127.584038 204.562637,131.075699 196.819183,126.358505 
z"/>
<path fill="#FAFAFA" opacity="1.000000" stroke="none" 
	d="
M69.276840,52.247959 
	C68.949013,49.213650 69.534836,47.476089 72.658142,47.989857 
	C72.982468,48.043209 73.333839,48.051392 73.654800,47.988873 
	C86.739960,45.440060 95.776123,50.104244 101.261276,62.493408 
	C103.447845,67.432152 107.202499,71.676643 111.153625,77.602448 
	C111.153625,66.939964 111.153625,57.668468 111.153625,48.000996 
	C119.223846,48.000996 126.513603,48.046875 133.802368,47.981911 
	C137.523148,47.948746 136.996460,50.549061 136.997604,52.839458 
	C137.007431,72.493767 137.003250,92.148087 137.003265,111.802399 
	C137.003265,117.114769 137.003265,122.427139 137.003265,128.724670 
	C130.627594,128.724670 124.447548,129.383286 118.520775,128.443924 
	C115.603096,127.981476 112.546463,125.011917 110.610573,122.394463 
	C105.487129,115.467209 100.940498,108.113327 95.236664,101.168953 
	C95.236664,110.007935 95.236664,118.846916 95.236664,127.981270 
	C86.487946,127.981270 78.262451,127.981270 69.276756,127.981270 
	C69.276756,102.855354 69.276756,77.788452 69.276840,52.247959 
z"/>
<path fill="#FBFBFB" opacity="1.000000" stroke="none" 
	d="
M28.998840,161.001617 
	C28.998840,155.197235 28.998840,149.892548 28.998840,144.340698 
	C44.130146,144.340698 59.035770,144.047562 73.914749,144.547531 
	C77.618797,144.672012 81.610985,146.804016 84.823402,148.972321 
	C94.080147,155.220413 95.480583,166.917053 88.423912,175.562653 
	C87.378479,176.843475 86.230164,178.040344 85.124763,179.281296 
	C95.150780,187.525101 98.057716,196.146912 94.571846,206.986374 
	C91.378143,216.917328 82.796196,223.360504 70.412399,223.807632 
	C56.808495,224.298798 43.173153,223.919540 28.998840,223.919540 
	C28.998840,202.987473 28.998840,182.244385 28.998840,161.001617 
M62.155579,190.987656 
	C59.702759,190.987656 57.249939,190.987656 54.368458,190.987656 
	C54.368458,194.341507 54.252934,197.293106 54.391426,200.232727 
	C54.725956,207.333374 56.006268,208.309464 62.928455,206.796265 
	C67.227448,205.856506 70.153923,203.642990 70.200455,198.737320 
	C70.247063,193.823639 67.698982,191.466202 62.155579,190.987656 
M59.188251,175.146011 
	C62.819389,175.567123 65.672653,173.916397 66.551208,170.662399 
	C67.159073,168.410950 66.933357,164.336166 65.569328,163.478241 
	C62.590420,161.604660 58.648380,161.262405 54.621803,160.164169 
	C54.621803,165.028534 54.818512,168.351486 54.563694,171.639450 
	C54.332123,174.627487 55.661057,175.422791 59.188251,175.146011 
z"/>
<path fill="#FAFAFA" opacity="1.000000" stroke="none" 
	d="
M105.788193,166.999939 
	C105.788185,159.183548 105.788185,151.867157 105.788185,143.731110 
	C108.912804,143.731110 111.841690,143.723557 114.770523,143.732529 
	C123.767365,143.760071 132.764511,143.756790 141.760941,143.833954 
	C155.544373,143.952148 165.023102,149.313370 168.648331,158.963806 
	C172.875336,170.216217 169.597549,179.713287 159.005829,188.627945 
	C164.118439,200.394455 169.103653,211.867737 174.384201,224.020737 
	C165.741074,224.020737 157.824738,224.193359 149.930176,223.856094 
	C148.564575,223.797745 146.675949,221.821503 146.081955,220.315720 
	C143.524506,213.832718 141.591385,207.098969 138.929276,200.664093 
	C137.961914,198.325760 135.596100,196.566010 133.868362,194.542267 
	C133.317825,194.845734 132.767288,195.149200 132.216751,195.452667 
	C132.216751,204.806885 132.216751,214.161118 132.216751,223.751480 
	C123.252037,223.751480 114.836182,223.751480 105.788193,223.751480 
	C105.788193,204.992355 105.788193,186.246155 105.788193,166.999939 
M143.007599,174.473999 
	C145.045441,170.980850 145.301819,167.273407 142.642654,164.242111 
	C139.622574,160.799377 135.428772,160.815872 131.268829,161.722305 
	C131.268829,167.279861 131.268829,172.542358 131.268829,179.319870 
	C135.535690,177.743698 139.072845,176.437073 143.007599,174.473999 
z"/>
<path fill="#FBFBFB" opacity="1.000000" stroke="none" 
	d="
M222.874969,192.732956 
	C222.877075,176.311890 222.877075,160.358887 222.877075,144.170929 
	C231.682953,144.170929 240.090820,144.170929 249.012833,144.170929 
	C249.012833,150.201004 249.015594,156.147186 249.012253,162.093353 
	C249.005600,173.922195 249.145218,185.753510 248.948196,197.579224 
	C248.714355,211.615463 242.470108,219.957153 229.348480,223.646515 
	C220.577744,226.112579 211.613235,226.480164 202.661713,224.434891 
	C189.424698,221.410461 182.448273,214.848419 181.777466,201.302200 
	C180.842285,182.417160 181.541931,163.451157 181.541931,144.229309 
	C189.809464,144.229309 198.079224,144.229309 206.825363,144.229309 
	C206.899536,145.467117 207.056671,146.889252 207.058899,148.311600 
	C207.081863,162.972763 207.037323,177.634216 207.126114,192.294907 
	C207.141052,194.761002 207.505280,197.268753 208.055542,199.677917 
	C208.949234,203.590530 211.915329,204.979889 215.579086,204.729111 
	C219.000137,204.494949 221.656250,202.950287 222.177628,199.129288 
	C222.446579,197.158264 222.643417,195.177429 222.874969,192.732956 
z"/>
<path fill="#F9F9F9" opacity="1.000000" stroke="none" 
	d="
M288.709076,115.510162 
	C285.468475,121.579773 280.622467,125.096001 274.604828,127.282425 
	C260.968170,132.237061 242.172913,130.580215 230.376968,123.059853 
	C232.314468,118.447403 234.037933,113.617607 236.443466,109.155525 
	C237.008240,108.107925 239.962402,107.760986 241.671844,108.026894 
	C247.037369,108.861504 252.307587,110.306313 257.671844,111.152946 
	C259.352844,111.418251 261.473236,110.958000 262.922180,110.065933 
	C264.421875,109.142601 266.264343,107.295639 266.270874,105.845055 
	C266.277405,104.403595 264.475708,102.333206 262.959625,101.625572 
	C258.907898,99.734421 254.551926,98.508278 250.374054,96.871841 
	C236.744659,91.533287 231.428940,84.198074 232.299118,72.084145 
	C233.288879,58.305546 239.493774,50.973511 253.665283,47.611835 
	C265.962952,44.694664 277.700226,46.775146 289.602539,52.629238 
	C287.330383,57.522484 285.398224,62.234230 282.906219,66.628471 
	C282.345367,67.617455 279.751892,68.014427 278.231354,67.782822 
	C274.965088,67.285316 271.827362,65.943398 268.561096,65.446144 
	C266.340088,65.108017 263.850830,65.195038 261.745636,65.890907 
	C260.278992,66.375694 258.391907,68.151558 258.295685,69.467865 
	C258.206879,70.682388 260.000793,72.602531 261.408478,73.252754 
	C265.767731,75.266327 270.286865,76.972679 274.835846,78.529755 
	C290.989990,84.059181 294.061310,96.546974 290.244019,111.430626 
	C289.915619,112.711067 289.344604,113.929283 288.709076,115.510162 
z"/>
<path fill="#F9F9F9" opacity="1.000000" stroke="none" 
	d="
M316.385925,203.505127 
	C317.954590,208.219223 319.450714,212.623199 320.327118,217.147263 
	C320.587250,218.490158 319.462280,221.141083 318.364746,221.545776 
	C307.891296,225.407715 297.085846,226.922760 286.034973,224.453918 
	C270.163239,220.908051 261.013702,210.398300 259.359833,192.006287 
	C258.659271,184.215347 259.343811,175.922760 261.295929,168.347015 
	C265.684387,151.316223 281.044556,141.038193 299.058655,142.152481 
	C304.839172,142.510040 310.554016,143.869385 316.312164,144.675888 
	C318.994476,145.051605 320.114594,146.081345 319.220795,148.980728 
	C317.999481,152.942459 317.293823,157.069626 315.950348,160.982803 
	C315.602539,161.995941 313.689148,163.103836 312.515045,163.082031 
	C309.041779,163.017563 305.584534,162.150024 302.110168,162.070663 
	C295.431091,161.918030 290.657288,165.038467 288.075806,171.260468 
	C284.685394,179.432129 284.279510,187.674149 287.640381,195.983582 
	C290.957764,204.185577 297.850555,207.603104 306.532196,205.391144 
	C309.691132,204.586304 312.893707,203.952667 316.385925,203.505127 
z"/>
<path fill="#FAFAFA" opacity="1.000000" stroke="none" 
	d="
M396.841766,155.749146 
	C393.191559,163.039917 389.815887,170.049500 386.173767,176.917770 
	C384.371429,180.316513 384.378784,183.330582 386.061127,186.802292 
	C390.615875,196.201492 394.935181,205.716110 399.250610,215.229080 
	C400.458801,217.892487 401.329956,220.708801 402.572021,224.034027 
	C393.985107,224.034027 386.180084,224.211136 378.396790,223.878769 
	C376.910065,223.815292 374.860870,222.041534 374.171814,220.548813 
	C368.959625,209.256821 363.868286,197.901321 359.136719,186.402100 
	C358.257202,184.264633 358.423645,181.056091 359.382111,178.911621 
	C364.045197,168.478256 369.200989,158.266373 374.046600,147.912552 
	C375.408142,145.003311 377.221405,143.640274 380.572510,143.748398 
	C387.334198,143.966522 394.107910,143.813385 402.164520,143.813385 
	C400.154877,148.331390 398.580627,151.870529 396.841766,155.749146 
z"/>
<path fill="#F9F9F9" opacity="1.000000" stroke="none" 
	d="
M28.997334,117.966080 
	C28.997334,94.646729 28.997334,71.822548 28.997334,48.672733 
	C37.622448,48.672733 46.025948,48.672733 54.717857,48.672733 
	C54.717857,75.160324 54.717857,101.585777 54.717857,128.336182 
	C46.375847,128.336182 37.971516,128.336182 28.997334,128.336182 
	C28.997334,125.013161 28.997334,121.737198 28.997334,117.966080 
z"/>
<path fill="#FCFCFC" opacity="1.000000" stroke="none" 
	d="
M331.002350,210.990387 
	C331.002350,188.396255 331.002350,166.300919 331.002350,143.822159 
	C338.827301,143.822159 346.267303,143.661041 353.685547,143.990402 
	C354.840302,144.041672 356.847076,146.324371 356.856476,147.587128 
	C357.044525,172.857651 356.996948,198.129898 356.996948,223.699371 
	C348.379852,223.699371 339.986816,223.699371 331.002350,223.699371 
	C331.002350,219.682648 331.002350,215.585922 331.002350,210.990387 
z"/>
<path fill="#F3F3F3" opacity="1.000000" stroke="none" 
	d="
M319.315796,49.364796 
	C317.071320,56.516815 314.663391,63.211830 312.914459,70.074783 
	C311.567444,75.360718 308.670990,77.979637 303.280243,78.138840 
	C301.512878,78.191032 299.757751,78.657310 297.319733,79.040749 
	C298.939606,69.180618 300.337616,59.759892 302.191681,50.429790 
	C302.451141,49.124149 304.813232,47.694290 306.436768,47.307716 
	C310.601471,46.316093 314.898285,45.879284 319.662720,45.139904 
	C319.580231,46.537334 319.508148,47.758705 319.315796,49.364796 
z"/>
<path fill="#303030" opacity="1.000000" stroke="none" 
	d="
M62.594852,190.988281 
	C67.698982,191.466202 70.247063,193.823639 70.200455,198.737320 
	C70.153923,203.642990 67.227448,205.856506 62.928455,206.796265 
	C56.006268,208.309464 54.725956,207.333374 54.391426,200.232727 
	C54.252934,197.293106 54.368458,194.341507 54.368458,190.987656 
	C57.249939,190.987656 59.702759,190.987656 62.594852,190.988281 
z"/>
<path fill="#2C2C2C" opacity="1.000000" stroke="none" 
	d="
M58.729218,175.131805 
	C55.661057,175.422791 54.332123,174.627487 54.563694,171.639450 
	C54.818512,168.351486 54.621803,165.028534 54.621803,160.164169 
	C58.648380,161.262405 62.590420,161.604660 65.569328,163.478241 
	C66.933357,164.336166 67.159073,168.410950 66.551208,170.662399 
	C65.672653,173.916397 62.819389,175.567123 58.729218,175.131805 
z"/>
<path fill="#2F2F2F" opacity="1.000000" stroke="none" 
	d="
M142.808807,174.802216 
	C139.072845,176.437073 135.535690,177.743698 131.268829,179.319870 
	C131.268829,172.542358 131.268829,167.279861 131.268829,161.722305 
	C135.428772,160.815872 139.622574,160.799377 142.642654,164.242111 
	C145.301819,167.273407 145.045441,170.980850 142.808807,174.802216 
z"/>
</svg>
