<svg version="1.1" id="Layer_1" xmlns="http://www.w3.org/2000/svg" xmlns:xlink="http://www.w3.org/1999/xlink" x="0px" y="0px"
	 width="100%" viewBox="0 0 1070 700" enable-background="new 0 0 1070 700" xml:space="preserve">
<path fill="#FFFEFF" opacity="1.000000" stroke="none" 
	d="
M744.000000,701.000000 
	C496.000000,701.000000 248.500031,701.000000 1.000033,701.000000 
	C1.000022,467.666687 1.000022,234.333389 1.000011,1.000065 
	C357.666626,1.000043 714.333252,1.000043 1071.000000,1.000021 
	C1071.000000,234.333267 1071.000000,467.666534 1071.000000,700.999878 
	C962.166687,701.000000 853.333313,701.000000 744.000000,701.000000 
M276.000610,316.498627 
	C276.000610,300.271576 276.000610,284.044525 276.000610,267.817444 
	C277.165375,267.822571 277.322327,268.277374 277.580200,268.665100 
	C291.219086,289.169434 304.909241,309.639923 318.454926,330.205597 
	C320.018494,332.579468 321.655090,333.531982 324.483917,333.459961 
	C331.810547,333.273407 339.145081,333.397583 346.476471,333.397614 
	C353.757935,333.397675 361.039429,333.397644 368.522766,333.397644 
	C368.522766,274.577728 368.522766,216.345016 368.522766,157.961029 
	C350.220215,157.961029 332.189484,157.961029 313.731628,157.961029 
	C313.731628,180.018661 313.731628,201.719635 313.731628,224.295395 
	C312.710449,223.124847 312.256989,222.708160 311.925537,222.210236 
	C298.465057,201.990784 284.945526,181.809891 271.640106,161.488815 
	C269.638367,158.431595 267.474121,157.410324 263.931732,157.521561 
	C255.775299,157.777649 247.605316,157.602341 239.440826,157.602188 
	C233.354263,157.602081 227.267715,157.602158 221.130524,157.602158 
	C221.130524,216.514618 221.130524,274.755066 221.130524,333.145264 
	C239.465439,333.145264 257.528656,333.145264 276.000580,333.145264 
	C276.000580,327.766510 276.000580,322.631958 276.000610,316.498627 
M536.497864,157.602997 
	C523.423645,157.602997 510.349426,157.602997 496.862396,157.602997 
	C496.862396,179.996521 496.862396,201.699234 496.862396,224.305054 
	C484.599030,205.979919 472.138214,188.920670 461.462402,170.809235 
	C455.266937,160.298676 448.252747,155.980667 436.106140,157.356796 
	C425.645691,158.541901 414.944550,157.602646 404.224426,157.602646 
	C404.224426,216.442276 404.224426,274.697113 404.224426,333.037109 
	C422.654419,333.037109 440.857574,333.037109 459.481995,333.037109 
	C459.481995,311.147491 459.481995,289.614014 459.481995,267.126648 
	C460.507233,268.373932 460.932831,268.809601 461.264984,269.307617 
	C474.745026,289.519653 488.186707,309.757507 501.751404,329.912476 
	C502.736755,331.376556 504.592285,333.215637 506.069794,333.239532 
	C521.202209,333.484283 536.340027,333.389404 551.719727,333.389404 
	C551.719727,274.669403 551.719727,216.275665 551.719727,157.602783 
	C546.793457,157.602783 542.145325,157.602783 536.497864,157.602997 
M261.001007,438.467773 
	C280.678864,413.612885 272.580597,384.150269 242.982773,372.706635 
	C231.920868,368.429657 220.345627,367.357117 208.682129,367.265076 
	C185.200806,367.079742 161.717010,367.209473 138.234222,367.209229 
	C136.475449,367.209229 134.716690,367.209259 132.813690,367.209259 
	C132.813690,426.152893 132.813690,484.382812 132.813690,542.648499 
	C133.460266,542.836975 133.920364,543.088684 134.380310,543.088440 
	C163.857010,543.072021 193.347168,543.555725 222.805069,542.794189 
	C239.033340,542.374573 253.703049,536.395874 265.085449,524.131958 
	C284.492401,503.222198 283.934875,464.012085 253.794724,445.103027 
	C256.126862,442.999359 258.337341,441.005402 261.001007,438.467773 
M300.999268,432.500000 
	C300.999268,469.263275 300.999268,506.026520 300.999268,542.849365 
	C319.906494,542.849365 338.292297,542.849365 357.078064,542.849365 
	C357.078064,521.813110 357.078064,501.062317 357.078064,480.354767 
	C366.694214,479.467133 370.454468,481.436066 373.702911,489.837189 
	C377.055695,498.508118 379.902649,507.374725 382.963013,516.158508 
	C386.106384,525.180481 389.240265,534.205872 392.346436,543.138184 
	C402.134979,543.138184 411.293640,543.138123 420.452332,543.138123 
	C429.567932,543.138123 438.683533,543.138184 448.548035,543.138184 
	C447.819733,540.090210 447.518555,537.633362 446.650848,535.396240 
	C441.725342,522.696960 436.715942,510.029572 431.633972,497.391968 
	C427.213043,486.398285 423.434540,474.991333 413.089142,467.482758 
	C414.781769,466.454163 416.078125,465.706390 417.334686,464.896820 
	C444.498138,447.395630 450.329803,409.476349 429.219421,386.269592 
	C418.051208,373.992310 403.263519,368.595032 387.259521,368.070679 
	C359.144409,367.149445 330.989624,367.438202 302.851349,367.237671 
	C302.389099,367.234375 301.925262,367.452698 300.999268,367.682495 
	C300.999268,388.948608 300.999268,410.224304 300.999268,432.500000 
M613.808533,494.118378 
	C614.019226,490.130219 614.407776,486.142273 614.412903,482.153839 
	C614.459961,445.671051 614.440308,409.188202 614.440125,372.705353 
	C614.440125,370.947479 614.440125,369.189636 614.440125,367.597198 
	C595.270630,367.597198 576.870972,367.597198 558.206604,367.597198 
	C558.206604,369.806183 558.206604,371.624237 558.206604,373.442261 
	C558.206421,408.426636 558.237366,443.411072 558.159546,478.395294 
	C558.151428,482.025879 557.910339,485.755219 557.059998,489.264954 
	C555.009888,497.726501 549.744141,501.599152 540.789734,501.849213 
	C532.756409,502.073547 526.457214,497.860535 524.300598,490.044983 
	C523.211853,486.099609 522.867493,481.841919 522.854797,477.723358 
	C522.746948,442.739319 522.792908,407.754791 522.792725,372.770416 
	C522.792725,371.015442 522.792725,369.260498 522.792725,367.481995 
	C503.791718,367.481995 485.538544,367.481995 466.859283,367.481995 
	C466.859283,369.553284 466.859283,371.351196 466.859283,373.149109 
	C466.859467,408.966431 466.813446,444.783905 466.908844,480.600983 
	C466.923401,486.074677 467.202759,491.605835 468.025360,497.009094 
	C471.467255,519.617065 483.725006,535.052979 505.807068,542.028931 
	C522.277283,547.231934 539.226196,547.800659 556.202209,545.861694 
	C585.949402,542.464111 608.585022,529.330383 613.808533,494.118378 
M647.329346,216.225677 
	C644.460327,214.930832 641.486328,213.823700 638.749573,212.292526 
	C635.495178,210.471741 632.889832,207.445251 634.172546,203.768936 
	C635.196411,200.834641 637.634827,197.800690 640.284058,196.193283 
	C642.943237,194.579803 646.618774,194.273972 649.886597,194.098938 
	C660.386841,193.536575 670.320190,196.090378 679.970581,200.091492 
	C682.945312,201.324814 686.957825,203.077164 688.839355,199.361664 
	C694.075439,189.022064 698.629761,178.337189 703.566589,167.540894 
	C701.321716,166.332458 699.502869,165.169907 697.546143,164.327957 
	C673.598999,154.023697 648.854004,150.969864 623.369690,157.060211 
	C598.200989,163.075119 582.309082,179.482300 579.581238,203.549911 
	C576.458435,231.101776 586.564575,251.987381 612.823364,262.234131 
	C616.532349,263.681458 620.331909,264.899872 624.104797,266.179321 
	C631.804871,268.790558 639.603699,271.141296 647.186768,274.054871 
	C651.412109,275.678345 654.385803,278.806183 654.214600,283.929077 
	C654.035583,289.288239 651.050171,292.740753 646.365112,294.405060 
	C642.664795,295.719574 638.638611,296.661682 634.733154,296.753815 
	C621.718384,297.060822 609.420532,293.875214 597.516296,288.622772 
	C595.168640,287.586884 589.943359,287.697876 589.347290,288.907288 
	C584.013855,299.729828 579.420349,310.917023 574.551025,322.130737 
	C576.452576,323.186768 577.848328,324.084717 579.340820,324.772644 
	C607.807190,337.893188 637.253479,340.648743 667.383301,331.984131 
	C692.375732,324.796936 706.823853,306.169891 708.342285,280.718689 
	C710.076294,251.655075 698.660706,233.998383 671.313538,223.951370 
	C663.679993,221.146881 655.807922,218.991714 647.329346,216.225677 
M698.210510,480.074432 
	C694.441650,467.063324 693.942627,453.863770 696.082886,440.546844 
	C698.873047,423.186340 709.346497,409.992615 724.531555,407.802551 
	C733.494568,406.509888 742.951050,408.557709 752.177185,409.220306 
	C754.934387,409.418335 757.663269,410.012207 760.769104,410.479462 
	C764.050842,397.323212 767.203369,384.684662 770.405945,371.845367 
	C750.409485,364.671997 730.495117,362.550568 709.990723,364.992554 
	C676.408630,368.991943 650.761536,390.564331 641.872253,423.093292 
	C635.219849,447.436646 635.815186,471.910858 643.241821,495.930450 
	C650.650085,519.890808 666.761658,535.713318 690.998047,542.673462 
	C706.881042,547.234680 723.103149,547.786682 739.446838,545.429993 
	C751.156250,543.741638 762.377014,540.521606 773.224121,535.368408 
	C770.006836,522.708069 766.871277,510.369141 763.410583,496.750885 
	C757.050415,498.736786 751.167114,500.677917 745.223206,502.411163 
	C722.660034,508.990631 706.140076,501.321655 698.210510,480.074432 
M924.831726,481.654968 
	C920.663025,472.787598 916.600159,463.868042 912.267029,455.081757 
	C910.799255,452.105560 910.858032,449.718323 912.377197,446.720123 
	C924.168518,423.449005 935.828918,400.110748 947.361450,376.710297 
	C948.670959,374.053101 948.938660,370.882416 949.748718,367.718140 
	C948.135315,367.435303 947.501221,367.227814 946.866882,367.227051 
	C930.541931,367.207397 914.216125,367.133911 897.893677,367.334778 
	C896.410217,367.352997 894.247559,368.815521 893.580627,370.182983 
	C880.616760,396.763824 867.787354,423.410767 855.104492,450.126862 
	C854.320923,451.777374 854.315002,454.404541 855.060486,456.082794 
	C867.469238,484.017670 880.082214,511.861755 892.556702,539.767639 
	C893.637756,542.185974 894.843201,543.245789 897.689026,543.218750 
	C914.512207,543.058472 931.337646,543.146667 948.162292,543.119873 
	C949.086914,543.118408 950.011169,542.835754 951.706055,542.557495 
	C950.805786,539.394897 950.358765,536.433105 949.154724,533.820068 
	C941.230286,516.622742 933.142761,499.500488 924.831726,481.654968 
M795.862000,435.500000 
	C795.862000,471.246765 795.862000,506.993561 795.862000,542.845093 
	C814.607910,542.845093 832.830261,542.845093 851.002197,542.845093 
	C851.002197,484.221008 851.002197,425.890991 851.002197,367.455719 
	C832.526062,367.455719 814.446716,367.455719 795.862488,367.455719 
	C795.862488,389.965759 795.862488,412.232880 795.862000,435.500000 
M188.392258,326.491089 
	C188.392258,270.282959 188.392258,214.074799 188.392258,157.970169 
	C169.375351,157.970169 151.149185,157.970169 132.911407,157.970169 
	C132.911407,216.543243 132.911407,274.749512 132.911407,333.118530 
	C151.445786,333.118530 169.670868,333.118530 188.392670,333.118530 
	C188.392670,331.062225 188.392670,329.276123 188.392258,326.491089 
M749.475403,220.243408 
	C749.836731,219.693726 750.345154,219.191055 750.538147,218.587540 
	C756.913757,198.643631 763.308228,178.705383 769.541138,158.716766 
	C770.245422,156.458115 770.013306,153.907471 770.239136,151.209122 
	C757.433411,153.345413 745.327271,155.364990 732.917603,157.435211 
	C729.335815,179.492126 725.783264,201.369308 722.020813,224.538666 
	C732.032288,223.015793 740.362244,221.748703 749.475403,220.243408 
z"/>
<path fill="#D2170E" opacity="1.000000" stroke="none" 
	d="
M276.000610,316.998047 
	C276.000580,322.631958 276.000580,327.766510 276.000580,333.145264 
	C257.528656,333.145264 239.465439,333.145264 221.130524,333.145264 
	C221.130524,274.755066 221.130524,216.514618 221.130524,157.602158 
	C227.267715,157.602158 233.354263,157.602081 239.440826,157.602188 
	C247.605316,157.602341 255.775299,157.777649 263.931732,157.521561 
	C267.474121,157.410324 269.638367,158.431595 271.640106,161.488815 
	C284.945526,181.809891 298.465057,201.990784 311.925537,222.210236 
	C312.256989,222.708160 312.710449,223.124847 313.731628,224.295395 
	C313.731628,201.719635 313.731628,180.018661 313.731628,157.961029 
	C332.189484,157.961029 350.220215,157.961029 368.522766,157.961029 
	C368.522766,216.345016 368.522766,274.577728 368.522766,333.397644 
	C361.039429,333.397644 353.757935,333.397675 346.476471,333.397614 
	C339.145081,333.397583 331.810547,333.273407 324.483917,333.459961 
	C321.655090,333.531982 320.018494,332.579468 318.454926,330.205597 
	C304.909241,309.639923 291.219086,289.169434 277.580200,268.665100 
	C277.322327,268.277374 277.165375,267.822571 276.000610,267.817444 
	C276.000610,284.044525 276.000610,300.271576 276.000610,316.998047 
z"/>
<path fill="#D2170E" opacity="1.000000" stroke="none" 
	d="
M536.997559,157.602890 
	C542.145325,157.602783 546.793457,157.602783 551.719727,157.602783 
	C551.719727,216.275665 551.719727,274.669403 551.719727,333.389404 
	C536.340027,333.389404 521.202209,333.484283 506.069794,333.239532 
	C504.592285,333.215637 502.736755,331.376556 501.751404,329.912476 
	C488.186707,309.757507 474.745026,289.519653 461.264984,269.307617 
	C460.932831,268.809601 460.507233,268.373932 459.481995,267.126648 
	C459.481995,289.614014 459.481995,311.147491 459.481995,333.037109 
	C440.857574,333.037109 422.654419,333.037109 404.224426,333.037109 
	C404.224426,274.697113 404.224426,216.442276 404.224426,157.602646 
	C414.944550,157.602646 425.645691,158.541901 436.106140,157.356796 
	C448.252747,155.980667 455.266937,160.298676 461.462402,170.809235 
	C472.138214,188.920670 484.599030,205.979919 496.862396,224.305054 
	C496.862396,201.699234 496.862396,179.996521 496.862396,157.602997 
	C510.349426,157.602997 523.423645,157.602997 536.997559,157.602890 
z"/>
<path fill="#D2170E" opacity="1.000000" stroke="none" 
	d="
M260.774414,438.739624 
	C258.337341,441.005402 256.126862,442.999359 253.794724,445.103027 
	C283.934875,464.012085 284.492401,503.222198 265.085449,524.131958 
	C253.703049,536.395874 239.033340,542.374573 222.805069,542.794189 
	C193.347168,543.555725 163.857010,543.072021 134.380310,543.088440 
	C133.920364,543.088684 133.460266,542.836975 132.813690,542.648499 
	C132.813690,484.382812 132.813690,426.152893 132.813690,367.209259 
	C134.716690,367.209259 136.475449,367.209229 138.234222,367.209229 
	C161.717010,367.209473 185.200806,367.079742 208.682129,367.265076 
	C220.345627,367.357117 231.920868,368.429657 242.982773,372.706635 
	C272.580597,384.150269 280.678864,413.612885 260.774414,438.739624 
M220.763184,494.918579 
	C224.721115,482.201752 220.058777,473.176544 207.948624,471.541992 
	C201.667267,470.694153 195.177185,471.392792 188.778168,471.392792 
	C188.778168,482.806824 188.778168,493.807617 188.778168,504.981720 
	C194.653732,504.981720 200.143463,505.240662 205.598236,504.914673 
	C212.097626,504.526276 217.442734,501.868011 220.763184,494.918579 
M214.636871,413.172363 
	C208.431961,401.891602 197.854385,407.073944 188.667389,405.573669 
	C188.667389,416.032562 188.667389,425.739441 188.667389,435.402863 
	C208.539337,438.137939 218.775528,429.643097 214.636871,413.172363 
z"/>
<path fill="#D3170E" opacity="1.000000" stroke="none" 
	d="
M300.999268,432.000000 
	C300.999268,410.224304 300.999268,388.948608 300.999268,367.682495 
	C301.925262,367.452698 302.389099,367.234375 302.851349,367.237671 
	C330.989624,367.438202 359.144409,367.149445 387.259521,368.070679 
	C403.263519,368.595032 418.051208,373.992310 429.219421,386.269592 
	C450.329803,409.476349 444.498138,447.395630 417.334686,464.896820 
	C416.078125,465.706390 414.781769,466.454163 413.089142,467.482758 
	C423.434540,474.991333 427.213043,486.398285 431.633972,497.391968 
	C436.715942,510.029572 441.725342,522.696960 446.650848,535.396240 
	C447.518555,537.633362 447.819733,540.090210 448.548035,543.138184 
	C438.683533,543.138184 429.567932,543.138123 420.452332,543.138123 
	C411.293640,543.138123 402.134979,543.138184 392.346436,543.138184 
	C389.240265,534.205872 386.106384,525.180481 382.963013,516.158508 
	C379.902649,507.374725 377.055695,498.508118 373.702911,489.837189 
	C370.454468,481.436066 366.694214,479.467133 357.078064,480.354767 
	C357.078064,501.062317 357.078064,521.813110 357.078064,542.849365 
	C338.292297,542.849365 319.906494,542.849365 300.999268,542.849365 
	C300.999268,506.026520 300.999268,469.263275 300.999268,432.000000 
M384.522339,428.636902 
	C386.949402,411.870300 376.350494,403.607391 357.324036,407.407715 
	C357.324036,418.803223 357.324036,430.190735 357.324036,441.852386 
	C361.116791,441.852386 364.602661,442.052429 368.058075,441.812927 
	C376.651123,441.217346 381.674561,437.274170 384.522339,428.636902 
z"/>
<path fill="#D3180F" opacity="1.000000" stroke="none" 
	d="
M613.737915,494.552887 
	C608.585022,529.330383 585.949402,542.464111 556.202209,545.861694 
	C539.226196,547.800659 522.277283,547.231934 505.807068,542.028931 
	C483.725006,535.052979 471.467255,519.617065 468.025360,497.009094 
	C467.202759,491.605835 466.923401,486.074677 466.908844,480.600983 
	C466.813446,444.783905 466.859467,408.966431 466.859283,373.149109 
	C466.859283,371.351196 466.859283,369.553284 466.859283,367.481995 
	C485.538544,367.481995 503.791718,367.481995 522.792725,367.481995 
	C522.792725,369.260498 522.792725,371.015442 522.792725,372.770416 
	C522.792908,407.754791 522.746948,442.739319 522.854797,477.723358 
	C522.867493,481.841919 523.211853,486.099609 524.300598,490.044983 
	C526.457214,497.860535 532.756409,502.073547 540.789734,501.849213 
	C549.744141,501.599152 555.009888,497.726501 557.059998,489.264954 
	C557.910339,485.755219 558.151428,482.025879 558.159546,478.395294 
	C558.237366,443.411072 558.206421,408.426636 558.206604,373.442261 
	C558.206604,371.624237 558.206604,369.806183 558.206604,367.597198 
	C576.870972,367.597198 595.270630,367.597198 614.440125,367.597198 
	C614.440125,369.189636 614.440125,370.947479 614.440125,372.705353 
	C614.440308,409.188202 614.459961,445.671051 614.412903,482.153839 
	C614.407776,486.142273 614.019226,490.130219 613.737915,494.552887 
z"/>
<path fill="#D3180F" opacity="1.000000" stroke="none" 
	d="
M647.687256,216.382187 
	C655.807922,218.991714 663.679993,221.146881 671.313538,223.951370 
	C698.660706,233.998383 710.076294,251.655075 708.342285,280.718689 
	C706.823853,306.169891 692.375732,324.796936 667.383301,331.984131 
	C637.253479,340.648743 607.807190,337.893188 579.340820,324.772644 
	C577.848328,324.084717 576.452576,323.186768 574.551025,322.130737 
	C579.420349,310.917023 584.013855,299.729828 589.347290,288.907288 
	C589.943359,287.697876 595.168640,287.586884 597.516296,288.622772 
	C609.420532,293.875214 621.718384,297.060822 634.733154,296.753815 
	C638.638611,296.661682 642.664795,295.719574 646.365112,294.405060 
	C651.050171,292.740753 654.035583,289.288239 654.214600,283.929077 
	C654.385803,278.806183 651.412109,275.678345 647.186768,274.054871 
	C639.603699,271.141296 631.804871,268.790558 624.104797,266.179321 
	C620.331909,264.899872 616.532349,263.681458 612.823364,262.234131 
	C586.564575,251.987381 576.458435,231.101776 579.581238,203.549911 
	C582.309082,179.482300 598.200989,163.075119 623.369690,157.060211 
	C648.854004,150.969864 673.598999,154.023697 697.546143,164.327957 
	C699.502869,165.169907 701.321716,166.332458 703.566589,167.540894 
	C698.629761,178.337189 694.075439,189.022064 688.839355,199.361664 
	C686.957825,203.077164 682.945312,201.324814 679.970581,200.091492 
	C670.320190,196.090378 660.386841,193.536575 649.886597,194.098938 
	C646.618774,194.273972 642.943237,194.579803 640.284058,196.193283 
	C637.634827,197.800690 635.196411,200.834641 634.172546,203.768936 
	C632.889832,207.445251 635.495178,210.471741 638.749573,212.292526 
	C641.486328,213.823700 644.460327,214.930832 647.687256,216.382187 
z"/>
<path fill="#D3180F" opacity="1.000000" stroke="none" 
	d="
M698.364990,480.440460 
	C706.140076,501.321655 722.660034,508.990631 745.223206,502.411163 
	C751.167114,500.677917 757.050415,498.736786 763.410583,496.750885 
	C766.871277,510.369141 770.006836,522.708069 773.224121,535.368408 
	C762.377014,540.521606 751.156250,543.741638 739.446838,545.429993 
	C723.103149,547.786682 706.881042,547.234680 690.998047,542.673462 
	C666.761658,535.713318 650.650085,519.890808 643.241821,495.930450 
	C635.815186,471.910858 635.219849,447.436646 641.872253,423.093292 
	C650.761536,390.564331 676.408630,368.991943 709.990723,364.992554 
	C730.495117,362.550568 750.409485,364.671997 770.405945,371.845367 
	C767.203369,384.684662 764.050842,397.323212 760.769104,410.479462 
	C757.663269,410.012207 754.934387,409.418335 752.177185,409.220306 
	C742.951050,408.557709 733.494568,406.509888 724.531555,407.802551 
	C709.346497,409.992615 698.873047,423.186340 696.082886,440.546844 
	C693.942627,453.863770 694.441650,467.063324 698.364990,480.440460 
z"/>
<path fill="#D3180F" opacity="1.000000" stroke="none" 
	d="
M924.970093,482.004333 
	C933.142761,499.500488 941.230286,516.622742 949.154724,533.820068 
	C950.358765,536.433105 950.805786,539.394897 951.706055,542.557495 
	C950.011169,542.835754 949.086914,543.118408 948.162292,543.119873 
	C931.337646,543.146667 914.512207,543.058472 897.689026,543.218750 
	C894.843201,543.245789 893.637756,542.185974 892.556702,539.767639 
	C880.082214,511.861755 867.469238,484.017670 855.060486,456.082794 
	C854.315002,454.404541 854.320923,451.777374 855.104492,450.126862 
	C867.787354,423.410767 880.616760,396.763824 893.580627,370.182983 
	C894.247559,368.815521 896.410217,367.352997 897.893677,367.334778 
	C914.216125,367.133911 930.541931,367.207397 946.866882,367.227051 
	C947.501221,367.227814 948.135315,367.435303 949.748718,367.718140 
	C948.938660,370.882416 948.670959,374.053101 947.361450,376.710297 
	C935.828918,400.110748 924.168518,423.449005 912.377197,446.720123 
	C910.858032,449.718323 910.799255,452.105560 912.267029,455.081757 
	C916.600159,463.868042 920.663025,472.787598 924.970093,482.004333 
z"/>
<path fill="#D2170E" opacity="1.000000" stroke="none" 
	d="
M795.862244,435.000000 
	C795.862488,412.232880 795.862488,389.965759 795.862488,367.455719 
	C814.446716,367.455719 832.526062,367.455719 851.002197,367.455719 
	C851.002197,425.890991 851.002197,484.221008 851.002197,542.845093 
	C832.830261,542.845093 814.607910,542.845093 795.862000,542.845093 
	C795.862000,506.993561 795.862000,471.246765 795.862244,435.000000 
z"/>
<path fill="#D2160D" opacity="1.000000" stroke="none" 
	d="
M188.392456,326.990540 
	C188.392670,329.276123 188.392670,331.062225 188.392670,333.118530 
	C169.670868,333.118530 151.445786,333.118530 132.911407,333.118530 
	C132.911407,274.749512 132.911407,216.543243 132.911407,157.970169 
	C151.149185,157.970169 169.375351,157.970169 188.392258,157.970169 
	C188.392258,214.074799 188.392258,270.282959 188.392456,326.990540 
z"/>
<path fill="#D31810" opacity="1.000000" stroke="none" 
	d="
M749.083862,220.362503 
	C740.362244,221.748703 732.032288,223.015793 722.020813,224.538666 
	C725.783264,201.369308 729.335815,179.492126 732.917603,157.435211 
	C745.327271,155.364990 757.433411,153.345413 770.239136,151.209122 
	C770.013306,153.907471 770.245422,156.458115 769.541138,158.716766 
	C763.308228,178.705383 756.913757,198.643631 750.538147,218.587540 
	C750.345154,219.191055 749.836731,219.693726 749.083862,220.362503 
z"/>
<path fill="#FEF9FA" opacity="1.000000" stroke="none" 
	d="
M220.563812,495.256958 
	C217.442734,501.868011 212.097626,504.526276 205.598236,504.914673 
	C200.143463,505.240662 194.653732,504.981720 188.778168,504.981720 
	C188.778168,493.807617 188.778168,482.806824 188.778168,471.392792 
	C195.177185,471.392792 201.667267,470.694153 207.948624,471.541992 
	C220.058777,473.176544 224.721115,482.201752 220.563812,495.256958 
z"/>
<path fill="#FDF8F8" opacity="1.000000" stroke="none" 
	d="
M214.777084,413.540039 
	C218.775528,429.643097 208.539337,438.137939 188.667389,435.402863 
	C188.667389,425.739441 188.667389,416.032562 188.667389,405.573669 
	C197.854385,407.073944 208.431961,401.891602 214.777084,413.540039 
z"/>
<path fill="#FEFDFD" opacity="1.000000" stroke="none" 
	d="
M384.386597,429.026978 
	C381.674561,437.274170 376.651123,441.217346 368.058075,441.812927 
	C364.602661,442.052429 361.116791,441.852386 357.324036,441.852386 
	C357.324036,430.190735 357.324036,418.803223 357.324036,407.407715 
	C376.350494,403.607391 386.949402,411.870300 384.386597,429.026978 
z"/>
</svg>