<svg version="1.1" id="Layer_1" xmlns="http://www.w3.org/2000/svg" xmlns:xlink="http://www.w3.org/1999/xlink" x="0px" y="0px"
	 width="100%" viewBox="0 0 424 248" enable-background="new 0 0 424 248" xml:space="preserve">
<path fill="transparent" opacity="1.000000" stroke="none" 
	d="
M312.000000,249.000000 
	C208.000031,249.000000 104.500076,249.000000 1.000083,249.000000 
	C1.000056,166.333405 1.000056,83.666801 1.000028,1.000150 
	C142.333206,1.000100 283.666412,1.000100 424.999725,1.000050 
	C424.999817,83.666519 424.999817,166.333038 424.999908,248.999786 
	C387.500000,249.000000 350.000000,249.000000 312.000000,249.000000 
M221.690308,107.231125 
	C223.212067,107.330772 224.733841,107.430412 227.005737,107.668930 
	C229.674042,106.726830 232.342346,105.784729 235.701843,105.173141 
	C237.258347,105.790932 238.814850,106.408722 240.371353,107.026520 
	C240.817780,105.691498 241.435760,104.385460 241.667465,103.014153 
	C241.961014,101.276787 241.940582,99.486374 242.082489,97.304642 
	C244.661835,100.630394 240.159363,105.616966 245.588715,107.005760 
	C246.446381,107.225151 248.005280,104.703224 249.413361,103.272575 
	C249.793488,103.885040 250.152054,105.221565 250.807785,105.388130 
	C253.663986,106.113625 256.594604,106.692711 259.526123,106.874619 
	C260.282440,106.921555 261.794220,105.367241 261.841400,104.488518 
	C262.081360,100.016663 262.123840,95.516365 261.893555,91.043640 
	C261.749969,88.255188 259.835876,87.028023 257.444305,88.689438 
	C254.601151,90.664597 252.144226,93.195694 249.622833,95.396126 
	C244.226059,90.645821 238.166763,91.249176 234.309677,96.015999 
	C231.876343,92.017143 227.889893,90.843018 225.208786,93.587914 
	C224.570984,94.240875 225.021194,95.956573 224.681656,97.759979 
	C223.830429,98.145294 222.979202,98.530609 222.085037,98.016945 
	C222.091782,96.038605 222.361450,94.011482 222.006927,92.100151 
	C221.793213,90.947899 220.608871,89.975685 219.860687,88.922569 
	C218.884598,89.930649 217.167892,90.869179 217.065506,91.959312 
	C216.696945,95.884018 216.909317,99.860565 216.831284,103.816132 
	C216.771896,106.824928 218.369141,107.523041 221.690308,107.231125 
M110.000000,95.000000 
	C110.000000,95.000000 109.991348,94.991348 110.723160,95.167053 
	C112.622734,94.176178 114.524933,93.190300 116.421455,92.193611 
	C129.481613,85.329994 142.518997,78.422462 155.613586,71.625221 
	C159.370834,69.674896 163.292358,68.041069 167.708847,66.021240 
	C168.478394,65.766510 169.247925,65.511772 170.530182,65.660782 
	C212.842850,52.482403 256.263000,45.351006 300.556946,42.990368 
	C300.485138,42.586525 300.413361,42.182678 300.341583,41.778831 
	C299.647827,41.306648 298.954102,40.834465 297.807770,40.054256 
	C300.819611,39.831837 303.158905,39.659081 305.498169,39.486328 
	C305.504059,39.072792 305.509949,38.659256 305.515808,38.245720 
	C304.144928,37.939178 302.774200,37.369282 301.403107,37.368305 
	C291.589142,37.361294 281.769928,37.311665 271.963867,37.629742 
	C268.623901,37.738079 265.316895,38.864250 261.144257,39.416298 
	C260.493073,39.305279 259.812805,39.011448 259.194885,39.109669 
	C236.937943,42.647545 214.429932,45.082909 192.489075,50.031452 
	C148.505188,59.951580 106.236664,74.770142 68.801193,100.798218 
	C49.751144,114.043297 36.147385,131.521439 29.133774,154.052704 
	C23.705822,171.490021 26.544600,187.204865 37.452747,201.377274 
	C44.887463,211.036819 55.559864,216.619232 66.558037,221.270447 
	C97.623901,234.408463 129.627686,234.833313 162.099533,227.783020 
	C189.381332,221.859589 213.800201,209.533829 236.825287,194.155685 
	C238.123062,193.288910 238.959488,191.731415 240.953308,189.386978 
	C237.588654,189.952866 235.794998,190.132782 234.064484,190.565262 
	C222.526657,193.448898 210.961563,196.235703 199.481613,199.336411 
	C171.291916,206.950363 142.967026,212.765945 113.530800,207.802567 
	C97.389847,205.080948 82.308952,200.085480 70.292801,188.343063 
	C65.259842,183.424713 61.284748,177.928314 60.030987,170.604721 
	C58.126446,159.479721 61.056568,149.452225 66.567596,140.163269 
	C76.857414,122.819550 90.861206,108.840065 107.893181,97.231506 
	C108.592766,96.484596 109.292343,95.737679 110.000000,95.000000 
M272.069611,148.557388 
	C270.035553,148.720459 268.001526,148.883545 265.899109,149.052094 
	C267.754639,156.848175 275.532867,158.618881 284.120697,157.565643 
	C290.524506,156.780243 293.841248,153.007095 293.973114,146.543106 
	C294.115356,139.571609 293.909729,132.592972 294.056152,125.621658 
	C294.112518,122.937241 293.319580,121.610268 290.490265,121.546448 
	C285.330597,121.430069 280.063690,120.419838 275.058044,121.190041 
	C271.928772,121.671509 268.166992,124.079506 266.481110,126.753075 
	C261.756683,134.245316 264.958862,143.142639 272.963623,147.532486 
	C272.888489,147.812714 272.875885,148.095734 272.069611,148.557388 
M187.085617,174.528610 
	C188.057907,164.966644 189.490356,155.422379 189.859451,145.837189 
	C190.164444,137.916641 189.644775,129.894547 188.675720,122.017693 
	C187.950836,116.125389 183.309738,113.872169 178.031250,115.951668 
	C173.915878,117.572929 171.750900,120.566185 171.682861,125.125694 
	C171.509094,136.768585 171.237961,148.410172 170.972702,160.051529 
	C170.673874,173.166443 163.104156,181.403549 150.367538,184.332642 
	C143.725815,185.860046 137.325821,188.932007 131.252411,192.133133 
	C129.456894,193.079529 127.982002,197.121506 128.484344,199.241623 
	C128.988022,201.367325 131.882568,203.892883 134.178177,204.476074 
	C154.105118,209.538498 180.354111,194.871521 187.085617,174.528610 
M119.776711,120.286743 
	C119.648430,128.775467 119.118118,137.285187 119.559593,145.744171 
	C119.784073,150.045441 120.990623,154.687592 123.093903,158.420181 
	C128.061722,167.236435 141.844452,171.624741 149.066025,167.380737 
	C152.755951,165.212219 153.200409,162.921600 150.275482,159.786545 
	C148.239548,157.604340 145.838654,155.765762 143.761002,153.618683 
	C139.029892,148.729462 136.542145,142.980270 137.197678,136.021576 
	C138.279327,124.539665 139.433304,113.060364 140.227844,101.557236 
	C140.672760,95.115829 139.276031,93.571587 132.947021,91.609703 
	C131.532898,91.171356 130.052155,90.946884 128.600769,90.629921 
	C122.683167,89.337631 118.637665,92.927483 118.978424,98.937469 
	C119.363434,105.727974 119.530655,112.530823 119.776711,120.286743 
M330.993042,125.836319 
	C331.001099,131.988220 330.979675,138.140350 331.027039,144.291946 
	C331.061829,148.809387 334.195099,148.987030 337.598846,149.043457 
	C341.113556,149.101700 342.258606,147.497757 342.057159,144.142426 
	C341.848389,140.664124 341.684814,137.109009 342.208435,133.695953 
	C342.429413,132.255402 344.460083,131.092468 345.668152,129.803360 
	C346.682068,131.078674 348.379852,132.259003 348.572815,133.648346 
	C349.026306,136.913712 348.573517,140.294861 348.854156,143.598007 
	C349.031677,145.687302 347.496704,149.194672 351.903015,148.874268 
	C355.103577,148.641541 359.682068,150.704147 359.567444,144.480347 
	C359.478912,139.672775 359.819763,134.847000 359.530609,130.055832 
	C359.111847,123.117165 354.002228,119.709892 347.065918,120.977432 
	C343.998077,121.538055 340.751129,121.067421 337.650055,121.513657 
	C335.158142,121.872231 331.128357,119.784821 330.993042,125.836319 
M261.169525,139.435043 
	C261.153046,134.784439 261.110870,130.133743 261.127197,125.483246 
	C261.143921,120.722954 257.535919,121.638481 254.723587,121.381508 
	C251.660400,121.101616 250.068420,122.308212 250.215149,125.656212 
	C250.374908,129.301102 250.539627,133.008392 250.020950,136.589813 
	C249.811066,138.038956 247.798325,139.226974 246.605972,140.533829 
	C245.667358,139.201111 244.073639,137.940750 243.916855,136.521667 
	C243.499405,132.743195 243.864090,128.883209 243.558487,125.084541 
	C243.464447,123.915878 242.343552,122.018036 241.463867,121.876396 
	C238.812485,121.449493 236.048447,121.722366 233.371048,121.722366 
	C233.138855,122.642075 232.924301,123.105247 232.919464,123.570595 
	C232.867569,128.552429 232.776917,133.535477 232.836823,138.516495 
	C232.942291,147.285446 237.605103,150.805008 246.116821,148.824219 
	C247.923340,148.403824 249.989563,148.142303 251.736618,148.588577 
	C259.444794,150.557648 261.333496,149.217651 261.184021,141.405548 
	C261.177673,141.073410 261.177032,140.741165 261.169525,139.435043 
M388.789581,112.333450 
	C386.882324,112.224678 383.440918,111.652618 383.311646,112.080765 
	C382.316925,115.374748 381.964813,118.862770 381.386139,122.459229 
	C379.623413,122.061485 377.862640,121.628510 376.086792,121.270531 
	C371.699158,120.386055 368.276520,121.823822 365.803406,125.572197 
	C362.327576,130.840408 362.624939,140.472366 366.581757,145.360977 
	C369.559875,149.040436 373.400726,150.445862 378.109650,149.261841 
	C380.004028,148.785507 382.092102,147.880585 383.845673,148.272629 
	C388.693848,149.356583 389.129242,146.657700 389.109283,143.085373 
	C389.053558,133.116425 389.046234,123.147202 388.789581,112.333450 
M305.974304,122.048958 
	C298.771423,126.445923 295.900482,132.708115 297.979309,139.487823 
	C299.924591,145.832077 305.770935,149.713013 312.958984,149.431686 
	C320.694244,149.128937 324.906311,146.255371 326.467560,139.575027 
	C322.301300,140.372116 318.430664,141.035492 314.597412,141.870468 
	C311.528625,142.538925 309.429169,141.937378 308.753693,137.872375 
	C313.486511,137.872375 317.924225,137.591660 322.309784,137.949631 
	C326.894745,138.323898 327.803406,136.370850 327.097595,132.349045 
	C325.470490,123.077110 317.338928,118.797325 305.974304,122.048958 
M216.676804,144.675354 
	C215.633972,146.033569 214.710129,147.507996 213.522095,148.724426 
	C211.416809,150.880051 211.317200,155.971588 213.495483,157.141830 
	C218.547501,159.855911 227.039261,155.962006 227.384781,150.264893 
	C227.886871,141.985916 227.733261,133.656387 227.589478,125.353081 
	C227.504059,120.420334 223.385498,121.628181 220.483063,121.377869 
	C217.331940,121.106087 216.675552,123.118225 216.718857,125.848488 
	C216.813766,131.832077 216.733490,137.818436 216.676804,144.675354 
M191.004776,107.239914 
	C191.055359,104.751602 191.729874,102.061386 191.005798,99.823746 
	C189.996994,96.706139 188.628830,92.973862 186.184052,91.211845 
	C181.790268,88.045128 177.353836,91.342308 173.360672,93.453354 
	C169.836975,95.316208 171.396622,98.507233 171.933990,101.427765 
	C173.601242,110.488731 176.429993,112.425255 185.272232,110.117889 
	C187.148361,109.628311 188.915833,108.722275 191.004776,107.239914 
M224.153885,111.275337 
	C222.497543,111.324593 220.648209,110.936195 219.243301,111.555687 
	C218.026047,112.092422 216.786057,113.670929 216.535507,114.976898 
	C216.316559,116.117989 217.125656,118.128227 218.086456,118.660233 
	C219.401184,119.388229 221.347672,119.408073 222.915985,119.128708 
	C224.629349,118.823502 226.220215,117.830635 227.864487,117.137489 
	C226.903961,115.184319 225.943451,113.231148 224.153885,111.275337 
z"/>
<path fill="#FFFFFF" opacity="1.000000" stroke="none" 
	d="
M170.017471,65.257050 
	C169.247925,65.511772 168.478394,65.766510 167.048798,66.053177 
	C148.079712,72.418152 130.694580,80.663979 114.465424,91.275078 
	C112.853302,92.329140 111.477066,93.743965 109.991348,94.991348 
	C109.991348,94.991348 110.000000,95.000000 109.673691,94.987648 
	C108.636772,95.701248 107.926170,96.427193 107.215569,97.153145 
	C90.861206,108.840065 76.857414,122.819550 66.567596,140.163269 
	C61.056568,149.452225 58.126446,159.479721 60.030987,170.604721 
	C61.284748,177.928314 65.259842,183.424713 70.292801,188.343063 
	C82.308952,200.085480 97.389847,205.080948 113.530800,207.802567 
	C142.967026,212.765945 171.291916,206.950363 199.481613,199.336411 
	C210.961563,196.235703 222.526657,193.448898 234.064484,190.565262 
	C235.794998,190.132782 237.588654,189.952866 240.953308,189.386978 
	C238.959488,191.731415 238.123062,193.288910 236.825287,194.155685 
	C213.800201,209.533829 189.381332,221.859589 162.099533,227.783020 
	C129.627686,234.833313 97.623901,234.408463 66.558037,221.270447 
	C55.559864,216.619232 44.887463,211.036819 37.452747,201.377274 
	C26.544600,187.204865 23.705822,171.490021 29.133774,154.052704 
	C36.147385,131.521439 49.751144,114.043297 68.801193,100.798218 
	C106.236664,74.770142 148.505188,59.951580 192.489075,50.031452 
	C214.429932,45.082909 236.937943,42.647545 259.194885,39.109669 
	C259.812805,39.011448 260.493073,39.305279 261.824677,39.672081 
	C263.714539,40.957207 264.923981,41.986557 265.824371,42.752857 
	C244.604416,46.895153 223.745575,50.544476 203.104126,55.165035 
	C191.884415,57.676556 181.034302,61.839161 170.017471,65.257050 
z"/>
<path fill="#FFFFFF" opacity="1.000000" stroke="none" 
	d="
M187.014191,174.932404 
	C180.354111,194.871521 154.105118,209.538498 134.178177,204.476074 
	C131.882568,203.892883 128.988022,201.367325 128.484344,199.241623 
	C127.982002,197.121506 129.456894,193.079529 131.252411,192.133133 
	C137.325821,188.932007 143.725815,185.860046 150.367538,184.332642 
	C163.104156,181.403549 170.673874,173.166443 170.972702,160.051529 
	C171.237961,148.410172 171.509094,136.768585 171.682861,125.125694 
	C171.750900,120.566185 173.915878,117.572929 178.031250,115.951668 
	C183.309738,113.872169 187.950836,116.125389 188.675720,122.017693 
	C189.644775,129.894547 190.164444,137.916641 189.859451,145.837189 
	C189.490356,155.422379 188.057907,164.966644 187.014191,174.932404 
z"/>
<path fill="#FFFFFF" opacity="1.000000" stroke="none" 
	d="
M119.784653,119.807526 
	C119.530655,112.530823 119.363434,105.727974 118.978424,98.937469 
	C118.637665,92.927483 122.683167,89.337631 128.600769,90.629921 
	C130.052155,90.946884 131.532898,91.171356 132.947021,91.609703 
	C139.276031,93.571587 140.672760,95.115829 140.227844,101.557236 
	C139.433304,113.060364 138.279327,124.539665 137.197678,136.021576 
	C136.542145,142.980270 139.029892,148.729462 143.761002,153.618683 
	C145.838654,155.765762 148.239548,157.604340 150.275482,159.786545 
	C153.200409,162.921600 152.755951,165.212219 149.066025,167.380737 
	C141.844452,171.624741 128.061722,167.236435 123.093903,158.420181 
	C120.990623,154.687592 119.784073,150.045441 119.559593,145.744171 
	C119.118118,137.285187 119.648430,128.775467 119.784653,119.807526 
z"/>
<path fill="#FFFFFF" opacity="1.000000" stroke="none" 
	d="
M272.983795,147.105682 
	C264.958862,143.142639 261.756683,134.245316 266.481110,126.753075 
	C268.166992,124.079506 271.928772,121.671509 275.058044,121.190041 
	C280.063690,120.419838 285.330597,121.430069 290.490265,121.546448 
	C293.319580,121.610268 294.112518,122.937241 294.056152,125.621658 
	C293.909729,132.592972 294.115356,139.571609 293.973114,146.543106 
	C293.841248,153.007095 290.524506,156.780243 284.120697,157.565643 
	C275.532867,158.618881 267.754639,156.848175 265.899109,149.052094 
	C268.001526,148.883545 270.035553,148.720459 272.872192,148.630081 
	C274.615509,148.992828 275.544373,149.332336 276.499634,149.561829 
	C278.109131,149.948471 280.287506,151.061768 281.219116,150.416000 
	C282.469177,149.549545 282.760803,147.300400 283.491425,145.580032 
	C279.426147,146.170288 276.204987,146.637985 272.983795,147.105682 
M282.679199,129.779419 
	C281.449982,129.481903 280.176544,128.815079 278.999878,128.956039 
	C275.463013,129.379730 273.925781,132.029480 275.112274,134.947784 
	C275.985199,137.094910 278.599670,138.534012 280.438080,140.288605 
	C281.634125,138.418335 283.153961,136.666916 283.900909,134.631805 
	C284.327545,133.469376 283.494995,131.844803 282.679199,129.779419 
z"/>
<path fill="#FFFFFF" opacity="1.000000" stroke="none" 
	d="
M330.993652,125.377083 
	C331.128357,119.784821 335.158142,121.872231 337.650055,121.513657 
	C340.751129,121.067421 343.998077,121.538055 347.065918,120.977432 
	C354.002228,119.709892 359.111847,123.117165 359.530609,130.055832 
	C359.819763,134.847000 359.478912,139.672775 359.567444,144.480347 
	C359.682068,150.704147 355.103577,148.641541 351.903015,148.874268 
	C347.496704,149.194672 349.031677,145.687302 348.854156,143.598007 
	C348.573517,140.294861 349.026306,136.913712 348.572815,133.648346 
	C348.379852,132.259003 346.682068,131.078674 345.668152,129.803345 
	C344.460083,131.092468 342.429413,132.255402 342.208435,133.695953 
	C341.684814,137.109009 341.848389,140.664124 342.057159,144.142426 
	C342.258606,147.497757 341.113556,149.101700 337.598846,149.043457 
	C334.195099,148.987030 331.061829,148.809387 331.027039,144.291946 
	C330.979675,138.140350 331.001099,131.988220 330.993652,125.377083 
z"/>
<path fill="#FFFFFF" opacity="1.000000" stroke="none" 
	d="
M261.171631,139.922012 
	C261.177032,140.741165 261.177673,141.073410 261.184021,141.405548 
	C261.333496,149.217651 259.444794,150.557648 251.736618,148.588577 
	C249.989563,148.142303 247.923340,148.403824 246.116821,148.824219 
	C237.605103,150.805008 232.942291,147.285446 232.836823,138.516495 
	C232.776917,133.535477 232.867569,128.552429 232.919464,123.570595 
	C232.924301,123.105247 233.138855,122.642075 233.371048,121.722366 
	C236.048447,121.722366 238.812485,121.449493 241.463867,121.876396 
	C242.343552,122.018036 243.464447,123.915878 243.558487,125.084541 
	C243.864090,128.883209 243.499405,132.743195 243.916855,136.521667 
	C244.073639,137.940750 245.667358,139.201111 246.605972,140.533829 
	C247.798325,139.226974 249.811066,138.038956 250.020950,136.589813 
	C250.539627,133.008392 250.374908,129.301102 250.215149,125.656212 
	C250.068420,122.308212 251.660400,121.101616 254.723587,121.381508 
	C257.535919,121.638481 261.143921,120.722954 261.127197,125.483246 
	C261.110870,130.133743 261.153046,134.784439 261.171631,139.922012 
z"/>
<path fill="#FFFFFF" opacity="1.000000" stroke="none" 
	d="
M388.904694,112.755768 
	C389.046234,123.147202 389.053558,133.116425 389.109283,143.085373 
	C389.129242,146.657700 388.693848,149.356583 383.845673,148.272629 
	C382.092102,147.880585 380.004028,148.785507 378.109650,149.261841 
	C373.400726,150.445862 369.559875,149.040436 366.581757,145.360977 
	C362.624939,140.472366 362.327576,130.840408 365.803406,125.572197 
	C368.276520,121.823822 371.699158,120.386055 376.086792,121.270531 
	C377.862640,121.628510 379.623413,122.061485 381.386139,122.459229 
	C381.964813,118.862770 382.316925,115.374748 383.311646,112.080765 
	C383.440918,111.652618 386.882324,112.224678 388.904694,112.755768 
M382.082672,139.251801 
	C382.068481,136.381500 382.340332,133.463440 381.873779,130.668655 
	C381.725006,129.777557 379.653259,128.746429 378.391907,128.645065 
	C377.344452,128.560913 375.503876,129.528931 375.224670,130.413010 
	C374.490021,132.739044 373.929962,135.325912 374.188873,137.712509 
	C374.590668,141.416229 378.612488,142.474686 382.082672,139.251801 
z"/>
<path fill="#FFFFFF" opacity="1.000000" stroke="none" 
	d="
M306.353394,121.916786 
	C317.338928,118.797325 325.470490,123.077110 327.097595,132.349045 
	C327.803406,136.370850 326.894745,138.323898 322.309784,137.949631 
	C317.924225,137.591660 313.486511,137.872375 308.753693,137.872375 
	C309.429169,141.937378 311.528625,142.538925 314.597412,141.870468 
	C318.430664,141.035492 322.301300,140.372116 326.467560,139.575027 
	C324.906311,146.255371 320.694244,149.128937 312.958984,149.431686 
	C305.770935,149.713013 299.924591,145.832077 297.979309,139.487823 
	C295.900482,132.708115 298.771423,126.445923 306.353394,121.916786 
M315.645721,131.746826 
	C315.720856,130.744720 316.258026,129.306381 315.793213,128.814056 
	C313.461639,126.344566 309.411224,127.788315 308.042786,131.819595 
	C310.405487,131.819595 312.625275,131.819595 315.645721,131.746826 
z"/>
<path fill="#FFFFFF" opacity="1.000000" stroke="none" 
	d="
M170.273834,65.458916 
	C181.034302,61.839161 191.884415,57.676556 203.104126,55.165035 
	C223.745575,50.544476 244.604416,46.895153 265.824371,42.752857 
	C264.923981,41.986557 263.714539,40.957207 262.249969,39.726601 
	C265.316895,38.864250 268.623901,37.738079 271.963867,37.629742 
	C281.769928,37.311665 291.589142,37.361294 301.403107,37.368305 
	C302.774200,37.369282 304.144928,37.939178 305.515808,38.245720 
	C305.509949,38.659256 305.504059,39.072792 305.498169,39.486328 
	C303.158905,39.659081 300.819611,39.831837 297.807770,40.054256 
	C298.954102,40.834465 299.647827,41.306648 300.341583,41.778831 
	C300.413361,42.182678 300.485138,42.586525 300.556946,42.990368 
	C256.263000,45.351006 212.842850,52.482403 170.273834,65.458916 
z"/>
<path fill="#FFFFFF" opacity="1.000000" stroke="none" 
	d="
M216.700775,144.239502 
	C216.733490,137.818436 216.813766,131.832077 216.718857,125.848488 
	C216.675552,123.118225 217.331940,121.106087 220.483063,121.377869 
	C223.385498,121.628181 227.504059,120.420334 227.589478,125.353081 
	C227.733261,133.656387 227.886871,141.985916 227.384781,150.264893 
	C227.039261,155.962006 218.547501,159.855911 213.495483,157.141830 
	C211.317200,155.971588 211.416809,150.880051 213.522095,148.724426 
	C214.710129,147.507996 215.633972,146.033569 216.700775,144.239502 
z"/>
<path fill="#FFFFFF" opacity="1.000000" stroke="none" 
	d="
M235.017426,96.259827 
	C238.166763,91.249176 244.226059,90.645821 249.622833,95.396126 
	C252.144226,93.195694 254.601151,90.664597 257.444305,88.689438 
	C259.835876,87.028023 261.749969,88.255188 261.893555,91.043640 
	C262.123840,95.516365 262.081360,100.016663 261.841400,104.488518 
	C261.794220,105.367241 260.282440,106.921555 259.526123,106.874619 
	C256.594604,106.692711 253.663986,106.113625 250.807785,105.388130 
	C250.152054,105.221565 249.793488,103.885040 249.413361,103.272575 
	C248.005280,104.703224 246.446381,107.225151 245.588715,107.005760 
	C240.159363,105.616966 244.661835,100.630394 242.082489,97.304642 
	C241.940582,99.486374 241.961014,101.276787 241.667465,103.014153 
	C241.435760,104.385460 240.817780,105.691498 240.371353,107.026520 
	C238.814850,106.408722 237.258347,105.790932 235.358719,104.577408 
	C235.016205,101.407730 235.016815,98.833778 235.017426,96.259827 
M254.819717,96.752014 
	C255.069626,97.348808 255.310150,97.950424 255.604614,98.524361 
	C255.616074,98.546700 256.144287,98.303917 256.431732,98.184685 
	C256.062195,97.719818 255.692642,97.254944 254.819717,96.752014 
M255.839005,101.498459 
	C255.901138,101.823647 255.963257,102.148834 256.025391,102.474022 
	C256.098969,102.151093 256.172546,101.828163 255.839005,101.498459 
z"/>
<path fill="#FFFFFF" opacity="1.000000" stroke="none" 
	d="
M190.869080,107.624016 
	C188.915833,108.722275 187.148361,109.628311 185.272232,110.117889 
	C176.429993,112.425255 173.601242,110.488731 171.933990,101.427765 
	C171.396622,98.507233 169.836975,95.316208 173.360672,93.453354 
	C177.353836,91.342308 181.790268,88.045128 186.184052,91.211845 
	C188.628830,92.973862 189.996994,96.706139 191.005798,99.823746 
	C191.729874,102.061386 191.055359,104.751602 190.869080,107.624016 
z"/>
<path fill="#FFFFFF" opacity="1.000000" stroke="none" 
	d="
M234.663544,96.137909 
	C235.016815,98.833778 235.016205,101.407730 235.013123,104.412155 
	C232.342346,105.784729 229.674042,106.726830 226.428833,107.307831 
	C219.389740,100.693954 228.890045,100.258942 230.085403,95.618179 
	C227.953629,96.270607 226.462296,96.727036 224.970947,97.183456 
	C225.021194,95.956573 224.570984,94.240875 225.208786,93.587914 
	C227.889893,90.843018 231.876343,92.017143 234.663544,96.137909 
z"/>
<path fill="#FFFFFF" opacity="1.000000" stroke="none" 
	d="
M110.357254,95.079201 
	C111.477066,93.743965 112.853302,92.329140 114.465424,91.275078 
	C130.694580,80.663979 148.079712,72.418152 166.763641,66.173630 
	C163.292358,68.041069 159.370834,69.674896 155.613586,71.625221 
	C142.518997,78.422462 129.481613,85.329994 116.421455,92.193611 
	C114.524933,93.190300 112.622734,94.176178 110.357254,95.079201 
z"/>
<path fill="#FFFFFF" opacity="1.000000" stroke="none" 
	d="
M224.568420,111.276657 
	C225.943451,113.231148 226.903961,115.184319 227.864471,117.137497 
	C226.220215,117.830635 224.629349,118.823502 222.915985,119.128708 
	C221.347672,119.408073 219.401184,119.388229 218.086456,118.660233 
	C217.125656,118.128227 216.316559,116.117989 216.535507,114.976898 
	C216.786057,113.670929 218.026047,112.092422 219.243301,111.555687 
	C220.648209,110.936195 222.497543,111.324593 224.568420,111.276657 
z"/>
<path fill="#FFFFFF" opacity="1.000000" stroke="none" 
	d="
M220.970627,106.970604 
	C218.369141,107.523041 216.771896,106.824928 216.831284,103.816132 
	C216.909317,99.860565 216.696945,95.884018 217.065506,91.959312 
	C217.167892,90.869179 218.884598,89.930649 219.860687,88.922569 
	C220.608871,89.975685 221.793213,90.947899 222.006927,92.100151 
	C222.361450,94.011482 222.091782,96.038605 221.971939,98.848595 
	C221.562775,102.110367 221.266693,104.540482 220.970627,106.970604 
z"/>
<path fill="#FFFFFF" opacity="1.000000" stroke="none" 
	d="
M221.330475,107.100861 
	C221.266693,104.540482 221.562775,102.110367 221.993408,99.298080 
	C222.979202,98.530609 223.830429,98.145294 224.826294,97.471725 
	C226.462296,96.727036 227.953629,96.270607 230.085403,95.618179 
	C228.890045,100.258942 219.389740,100.693954 226.053757,107.238396 
	C224.733841,107.430412 223.212067,107.330772 221.330475,107.100861 
z"/>
<path fill="#FFFFFF" opacity="1.000000" stroke="none" 
	d="
M272.973694,147.319092 
	C276.204987,146.637985 279.426147,146.170288 283.491425,145.580032 
	C282.760803,147.300400 282.469177,149.549545 281.219116,150.416000 
	C280.287506,151.061768 278.109131,149.948471 276.499634,149.561829 
	C275.544373,149.332336 274.615509,148.992828 273.300293,148.542160 
	C272.875885,148.095734 272.888489,147.812714 272.973694,147.319092 
z"/>
<path fill="#FFFFFF" opacity="1.000000" stroke="none" 
	d="
M107.554375,97.192322 
	C107.926170,96.427193 108.636772,95.701248 109.669647,94.983032 
	C109.292343,95.737679 108.592766,96.484596 107.554375,97.192322 
z"/>
<path fill="#FFFFFF" opacity="1.000000" stroke="none" 
	d="
M282.954285,130.103851 
	C283.494995,131.844803 284.327545,133.469376 283.900909,134.631805 
	C283.153961,136.666916 281.634125,138.418335 280.438080,140.288605 
	C278.599670,138.534012 275.985199,137.094910 275.112274,134.947784 
	C273.925781,132.029480 275.463013,129.379730 278.999878,128.956039 
	C280.176544,128.815079 281.449982,129.481903 282.954285,130.103851 
z"/>
<path fill="#FFFFFF" opacity="1.000000" stroke="none" 
	d="
M381.980286,139.636841 
	C378.612488,142.474686 374.590668,141.416229 374.188873,137.712509 
	C373.929962,135.325912 374.490021,132.739044 375.224670,130.413010 
	C375.503876,129.528931 377.344452,128.560913 378.391907,128.645065 
	C379.653259,128.746429 381.725006,129.777557 381.873779,130.668655 
	C382.340332,133.463440 382.068481,136.381500 381.980286,139.636841 
z"/>
<path fill="#FFFFFF" opacity="1.000000" stroke="none" 
	d="
M315.245392,131.783203 
	C312.625275,131.819595 310.405487,131.819595 308.042786,131.819595 
	C309.411224,127.788315 313.461639,126.344566 315.793213,128.814056 
	C316.258026,129.306381 315.720856,130.744720 315.245392,131.783203 
z"/>
<path fill="#FFFFFF" opacity="1.000000" stroke="none" 
	d="
M255.071411,96.771042 
	C255.692642,97.254944 256.062195,97.719818 256.431732,98.184677 
	C256.144287,98.303917 255.616074,98.546700 255.604614,98.524361 
	C255.310150,97.950424 255.069626,97.348808 255.071411,96.771042 
z"/>
<path fill="#FFFFFF" opacity="1.000000" stroke="none" 
	d="
M256.042572,101.501846 
	C256.172546,101.828163 256.098969,102.151093 256.025391,102.474022 
	C255.963257,102.148834 255.901138,101.823647 256.042572,101.501846 
z"/>
</svg>