<svg version="1.1" id="Layer_1" xmlns="http://www.w3.org/2000/svg" xmlns:xlink="http://www.w3.org/1999/xlink" x="0px" y="0px"
	 width="100%" viewBox="0 0 458 304" enable-background="new 0 0 458 304" xml:space="preserve">
<path fill="#262626" opacity="1.000000" stroke="none" 
	d="
M261.000000,305.000000 
	C174.000031,305.000000 87.500053,305.000000 1.000058,305.000000 
	C1.000039,203.666718 1.000039,102.333443 1.000019,1.000126 
	C153.666565,1.000084 306.333130,1.000084 458.999756,1.000042 
	C458.999847,102.333199 458.999847,203.666397 458.999939,304.999817 
	C393.166656,305.000000 327.333344,305.000000 261.000000,305.000000 
M439.906830,204.901749 
	C442.738678,199.561264 438.927155,196.577332 435.600891,193.795776 
	C431.833527,190.645355 427.369110,192.234909 424.112000,194.377365 
	C420.720917,196.608002 418.332916,200.380798 420.214203,205.782150 
	C422.273682,210.281250 425.646545,212.873947 430.722870,212.507538 
	C435.084778,212.192703 438.176605,209.970078 439.906830,204.901749 
M239.128494,175.455643 
	C255.937057,174.412506 269.792267,167.443832 281.017883,154.918640 
	C281.942719,153.886719 284.403198,153.443146 285.863922,153.823990 
	C290.659546,155.074295 295.271790,157.022110 300.059906,158.309784 
	C302.351410,158.926025 305.675842,159.710831 307.150543,158.594223 
	C311.382172,155.390152 315.186554,151.488403 318.619507,147.407227 
	C321.149841,144.399155 319.599915,142.095932 315.896851,141.521347 
	C312.852142,141.048920 309.762665,140.864807 306.693024,140.552902 
	C313.904877,139.456909 321.041656,139.287903 328.156342,139.608978 
	C329.473999,139.668442 331.120392,141.471878 331.899719,142.869308 
	C335.262482,148.899109 342.162720,152.799301 348.869843,151.891235 
	C357.062836,150.781982 363.188507,155.926071 369.769104,159.132767 
	C373.830597,161.111954 382.696045,163.267288 386.663025,160.744675 
	C387.593323,160.153091 388.394989,158.626297 388.442474,157.495621 
	C388.812897,148.669159 378.751190,140.928024 370.123718,143.811569 
	C370.141144,135.903015 363.602386,136.453079 358.122559,135.285889 
	C359.321503,131.397949 360.360016,128.030304 361.333710,124.872749 
	C368.614197,124.484238 375.306274,124.528198 378.602112,116.725716 
	C382.614868,107.226006 377.413055,101.352844 370.596741,95.893227 
	C379.709198,92.692055 382.736450,88.402138 381.250031,81.934692 
	C380.418182,78.315445 378.822723,78.302208 375.968201,79.795418 
	C372.917908,81.391037 369.741913,82.936394 366.437103,83.804329 
	C362.836121,84.750061 359.813507,85.969131 358.491638,89.741196 
	C357.080475,93.768013 358.837982,96.894714 361.454773,99.676720 
	C363.621368,101.980110 366.519348,103.801910 368.036804,106.443901 
	C369.239838,108.538536 368.842316,111.552483 369.155487,114.158226 
	C366.864380,114.376587 364.172150,115.472908 362.359161,114.644669 
	C357.404755,112.381348 353.095612,108.537384 348.027954,106.728279 
	C339.778442,103.783272 331.649567,100.969673 324.203766,96.101395 
	C319.148285,92.795998 313.333282,90.594040 307.728058,88.203026 
	C301.215210,85.424835 294.734436,81.930634 287.899719,80.796394 
	C284.016632,80.152000 281.369019,79.464157 278.699127,76.640556 
	C256.235626,52.884045 219.640350,51.588997 196.236099,73.650688 
	C192.015686,77.629005 188.726761,83.341843 181.392929,80.377182 
	C181.006073,80.220787 180.384018,80.448158 179.943375,80.652206 
	C171.852921,84.398651 163.700699,88.021828 155.712891,91.976799 
	C148.252182,95.670784 140.978729,99.741943 133.590302,103.584503 
	C132.893723,103.946777 131.902496,103.707512 131.152817,104.008446 
	C126.617157,105.829124 122.034035,107.561211 117.622299,109.651199 
	C114.347946,111.202354 111.490662,113.890335 108.101456,114.851936 
	C105.865623,115.486305 103.015732,113.956375 100.440781,113.395500 
	C101.042168,110.843437 101.036774,107.887489 102.398582,105.841583 
	C104.099274,103.286583 107.081543,101.626602 109.234497,99.322327 
	C114.419998,93.772377 112.722755,86.892998 105.666336,84.196579 
	C101.797791,82.718330 97.903732,81.288116 94.118813,79.615318 
	C90.706223,78.107071 88.697006,79.103195 88.999237,82.725838 
	C89.248451,85.713150 89.794609,89.169357 91.522667,91.400436 
	C93.241508,93.619629 96.598030,94.570381 99.675835,96.328323 
	C92.692627,100.715874 88.774948,106.553474 91.027710,115.108322 
	C93.593178,124.850700 102.116272,124.084984 109.261803,125.193871 
	C110.244049,128.735153 111.113304,131.869080 112.147827,135.598816 
	C106.129051,135.917358 100.471283,136.562332 100.020515,143.080002 
	C96.734406,142.915161 92.737534,141.532257 91.322037,142.873550 
	C87.621544,146.379990 84.796387,150.930801 82.206131,155.403397 
	C81.559135,156.520554 82.597710,159.439911 83.775993,160.610687 
	C86.007118,162.827576 97.428963,161.763824 99.938820,159.923340 
	C101.815773,158.546997 104.103470,157.729111 106.213173,156.672318 
	C108.124275,155.715012 109.972572,154.573715 111.973778,153.869324 
	C114.679306,152.917023 117.578552,151.466721 120.264519,151.703934 
	C128.293900,152.413071 134.079132,149.655899 138.316971,142.784912 
	C139.315109,141.166595 141.804276,139.675308 143.701614,139.549988 
	C149.857956,139.143341 156.057983,139.397980 162.241180,139.397980 
	C162.241928,139.813095 162.242661,140.228210 162.243393,140.643326 
	C159.631256,140.970398 157.019409,141.299820 154.406921,141.624023 
	C150.329941,142.129990 149.477417,144.772430 151.765778,147.448853 
	C155.373856,151.668777 159.579330,155.420837 163.837112,159.008789 
	C164.772171,159.796753 167.126938,159.470261 168.588654,158.964935 
	C175.192886,156.681824 181.711212,154.150253 188.427902,151.645767 
	C201.246765,167.454727 217.531616,176.137222 239.128494,175.455643 
M252.550781,196.624695 
	C250.466629,196.624695 248.382477,196.624695 246.258575,196.624695 
	C246.258575,224.266205 246.258575,251.138245 246.258575,278.056488 
	C258.634644,278.056488 270.760895,278.380219 282.861511,277.961670 
	C294.037018,277.575134 303.103119,271.203033 304.705383,262.234314 
	C306.697205,251.085358 305.894104,240.165283 293.852081,234.587479 
	C293.416168,234.385559 293.079498,233.969452 292.657379,233.620804 
	C293.150818,232.939941 293.528900,232.399261 293.926086,231.873032 
	C299.513672,224.470184 300.926239,216.469559 296.729706,208.028305 
	C292.621216,199.764175 285.232971,197.032028 276.496277,196.944794 
	C268.844849,196.868408 261.194000,196.732300 252.550781,196.624695 
M76.896835,212.083389 
	C82.190590,214.711411 84.704216,218.713882 83.511971,223.496674 
	C82.974762,225.651749 81.981308,228.487762 80.312737,229.398193 
	C76.993782,231.209183 73.064140,231.901001 68.779213,233.245911 
	C68.779213,237.288727 68.590538,242.095825 68.854858,246.877899 
	C68.997635,249.461060 69.357430,252.314377 70.586433,254.502640 
	C74.320732,261.151672 78.292572,267.700531 82.678932,273.931427 
	C84.141624,276.009216 87.007919,277.979797 89.455116,278.300354 
	C94.553185,278.968079 99.799706,278.502289 106.079147,278.502289 
	C97.854942,266.512360 90.473717,255.751389 83.543861,245.648468 
	C88.039528,242.637146 92.999397,240.555725 96.228981,236.932159 
	C108.765610,222.866211 100.925125,200.087997 81.882797,196.596573 
	C70.590889,194.526199 58.819118,195.073029 47.109665,194.434677 
	C47.109665,222.873688 47.109665,250.264374 47.109665,277.786011 
	C52.863747,277.786011 58.402405,277.786011 64.339966,277.786011 
	C64.339966,255.399216 64.339966,233.328308 64.339966,210.658905 
	C68.565956,211.123840 72.326996,211.537643 76.896835,212.083389 
M185.668579,279.123657 
	C191.671341,277.718719 197.674088,276.313751 203.782883,274.883972 
	C203.872452,275.367859 204.117874,276.693878 204.309967,277.731628 
	C209.848877,277.731628 214.934113,277.731628 219.992828,277.731628 
	C219.992828,249.620010 219.992828,221.844025 219.992828,193.948776 
	C214.424286,193.948776 209.045990,193.948776 203.209274,193.948776 
	C203.209274,206.228287 203.209274,218.115509 203.209274,230.554642 
	C201.598404,229.812469 200.553207,229.390121 199.562180,228.865448 
	C183.977997,220.614914 165.034012,229.234283 163.139252,248.962372 
	C161.616608,264.816254 170.370270,277.200348 185.668579,279.123657 
M130.644577,280.056641 
	C141.518127,280.447601 150.212601,276.521667 156.540573,267.138519 
	C154.667511,266.137146 152.990173,265.400177 151.483505,264.404846 
	C146.995209,261.439789 143.082535,259.953644 138.594879,265.094177 
	C135.715759,268.392120 131.229843,267.557404 127.470375,265.457581 
	C124.130920,263.592407 122.009010,260.923157 122.267044,256.298737 
	C134.323563,256.298737 146.064377,256.298737 157.739517,256.298737 
	C160.262695,231.143768 141.531067,222.143463 123.011520,226.628021 
	C110.757874,229.595261 103.478584,241.778046 104.681328,255.690094 
	C105.907013,269.867371 114.796623,278.500458 130.644577,280.056641 
M342.883209,261.978912 
	C340.519806,265.857208 336.924377,266.661255 332.904602,265.545807 
	C328.705048,264.380554 326.791718,261.140350 326.527954,256.959045 
	C326.339569,253.972977 326.401611,250.969681 326.394104,247.973953 
	C326.377991,241.548615 326.389160,235.123184 326.389160,228.673157 
	C320.526978,228.673157 315.414825,228.673157 310.343567,228.673157 
	C310.343567,240.657257 309.937744,252.424728 310.530365,264.141693 
	C310.791046,269.296112 314.097931,273.379669 318.766663,276.514404 
	C325.156555,280.804779 332.025909,281.359375 339.245392,281.017090 
	C351.626770,280.430054 360.099274,272.755920 360.759125,260.488281 
	C361.320831,250.044586 360.875153,239.546722 360.875153,228.832062 
	C355.291107,228.832062 349.858185,228.832062 343.997498,228.832062 
	C343.997498,233.445267 344.099518,237.902069 343.973022,242.352371 
	C343.794312,248.639099 343.446716,254.920990 342.883209,261.978912 
M412.759094,217.500168 
	C412.759094,209.725906 412.759094,201.951660 412.759094,193.865356 
	C407.209106,193.865356 402.152344,193.865356 396.822021,193.865356 
	C396.822021,221.918015 396.822021,249.775955 396.822021,277.723083 
	C402.158905,277.723083 407.335083,277.723083 412.759064,277.723083 
	C412.759064,257.707611 412.759064,238.103882 412.759094,217.500168 
M385.822052,272.349945 
	C385.822052,246.303024 385.822052,220.256104 385.822052,194.257614 
	C380.165131,193.890640 375.169342,193.566559 370.151520,193.241043 
	C370.151520,221.891815 370.151520,249.890961 370.151520,277.869507 
	C375.435425,277.869507 380.368500,277.869507 385.593109,277.869507 
	C385.676392,276.212128 385.749207,274.762939 385.822052,272.349945 
z"/>
<path fill="#EEEEEE" opacity="1.000000" stroke="none" 
	d="
M238.681458,175.491913 
	C217.531616,176.137222 201.246765,167.454727 188.427902,151.645767 
	C181.711212,154.150253 175.192886,156.681824 168.588654,158.964935 
	C167.126938,159.470261 164.772171,159.796753 163.837112,159.008789 
	C159.579330,155.420837 155.373856,151.668777 151.765778,147.448853 
	C149.477417,144.772430 150.329941,142.129990 154.406921,141.624023 
	C157.019409,141.299820 159.631256,140.970398 162.243393,140.643326 
	C162.242661,140.228210 162.241928,139.813095 162.241180,139.397980 
	C156.057983,139.397980 149.857956,139.143341 143.701614,139.549988 
	C141.804276,139.675308 139.315109,141.166595 138.316971,142.784912 
	C134.079132,149.655899 128.293900,152.413071 120.264519,151.703934 
	C117.578552,151.466721 114.679306,152.917023 111.973778,153.869324 
	C109.972572,154.573715 108.124275,155.715012 106.213173,156.672318 
	C104.103470,157.729111 101.815773,158.546997 99.938820,159.923340 
	C97.428963,161.763824 86.007118,162.827576 83.775993,160.610687 
	C82.597710,159.439911 81.559135,156.520554 82.206131,155.403397 
	C84.796387,150.930801 87.621544,146.379990 91.322037,142.873550 
	C92.737534,141.532257 96.734406,142.915161 100.020515,143.080002 
	C100.471283,136.562332 106.129051,135.917358 112.147827,135.598816 
	C111.113304,131.869080 110.244049,128.735153 109.261803,125.193871 
	C102.116272,124.084984 93.593178,124.850700 91.027710,115.108322 
	C88.774948,106.553474 92.692627,100.715874 99.675835,96.328323 
	C96.598030,94.570381 93.241508,93.619629 91.522667,91.400436 
	C89.794609,89.169357 89.248451,85.713150 88.999237,82.725838 
	C88.697006,79.103195 90.706223,78.107071 94.118813,79.615318 
	C97.903732,81.288116 101.797791,82.718330 105.666336,84.196579 
	C112.722755,86.892998 114.419998,93.772377 109.234497,99.322327 
	C107.081543,101.626602 104.099274,103.286583 102.398582,105.841583 
	C101.036774,107.887489 101.042168,110.843437 100.440781,113.395500 
	C103.015732,113.956375 105.865623,115.486305 108.101456,114.851936 
	C111.490662,113.890335 114.347946,111.202354 117.622299,109.651199 
	C122.034035,107.561211 126.617157,105.829124 131.152817,104.008446 
	C131.902496,103.707512 132.893723,103.946777 133.590302,103.584503 
	C140.978729,99.741943 148.252182,95.670784 155.712891,91.976799 
	C163.700699,88.021828 171.852921,84.398651 179.943375,80.652206 
	C180.384018,80.448158 181.006073,80.220787 181.392929,80.377182 
	C188.726761,83.341843 192.015686,77.629005 196.236099,73.650688 
	C219.640350,51.588997 256.235626,52.884045 278.699127,76.640556 
	C281.369019,79.464157 284.016632,80.152000 287.899719,80.796394 
	C294.734436,81.930634 301.215210,85.424835 307.728058,88.203026 
	C313.333282,90.594040 319.148285,92.795998 324.203766,96.101395 
	C331.649567,100.969673 339.778442,103.783272 348.027954,106.728279 
	C353.095612,108.537384 357.404755,112.381348 362.359161,114.644669 
	C364.172150,115.472908 366.864380,114.376587 369.155487,114.158226 
	C368.842316,111.552483 369.239838,108.538536 368.036804,106.443901 
	C366.519348,103.801910 363.621368,101.980110 361.454773,99.676720 
	C358.837982,96.894714 357.080475,93.768013 358.491638,89.741196 
	C359.813507,85.969131 362.836121,84.750061 366.437103,83.804329 
	C369.741913,82.936394 372.917908,81.391037 375.968201,79.795418 
	C378.822723,78.302208 380.418182,78.315445 381.250031,81.934692 
	C382.736450,88.402138 379.709198,92.692055 370.596741,95.893227 
	C377.413055,101.352844 382.614868,107.226006 378.602112,116.725716 
	C375.306274,124.528198 368.614197,124.484238 361.333710,124.872749 
	C360.360016,128.030304 359.321503,131.397949 358.122559,135.285889 
	C363.602386,136.453079 370.141144,135.903015 370.123718,143.811569 
	C378.751190,140.928024 388.812897,148.669159 388.442474,157.495621 
	C388.394989,158.626297 387.593323,160.153091 386.663025,160.744675 
	C382.696045,163.267288 373.830597,161.111954 369.769104,159.132767 
	C363.188507,155.926071 357.062836,150.781982 348.869843,151.891235 
	C342.162720,152.799301 335.262482,148.899109 331.899719,142.869308 
	C331.120392,141.471878 329.473999,139.668442 328.156342,139.608978 
	C321.041656,139.287903 313.904877,139.456909 306.693024,140.552902 
	C309.762665,140.864807 312.852142,141.048920 315.896851,141.521347 
	C319.599915,142.095932 321.149841,144.399155 318.619507,147.407227 
	C315.186554,151.488403 311.382172,155.390152 307.150543,158.594223 
	C305.675842,159.710831 302.351410,158.926025 300.059906,158.309784 
	C295.271790,157.022110 290.659546,155.074295 285.863922,153.823990 
	C284.403198,153.443146 281.942719,153.886719 281.017883,154.918640 
	C269.792267,167.443832 255.937057,174.412506 238.681458,175.491913 
M181.646317,131.854050 
	C182.992004,130.295547 184.337708,128.737045 186.466690,126.271393 
	C185.860031,129.237869 185.490265,131.046021 185.037689,133.259048 
	C188.895737,132.873077 192.365631,132.525940 196.472015,132.115128 
	C195.289291,134.076508 194.795914,135.660004 193.724075,136.534531 
	C189.888687,139.663864 193.090942,144.264206 191.277451,147.826202 
	C191.153976,148.068710 193.639465,150.486954 194.734711,150.360580 
	C200.486542,149.696869 206.388290,149.148422 211.811783,147.305664 
	C214.672119,146.333786 216.032455,146.454987 218.319138,148.097656 
	C220.479904,149.649857 223.344482,150.222321 226.855652,151.601212 
	C223.499451,147.043732 221.170929,143.881744 218.842407,140.719772 
	C219.123535,140.447128 219.404663,140.174484 219.685791,139.901855 
	C222.726471,142.360947 225.767151,144.820038 228.807831,147.279144 
	C229.158279,146.888077 229.508728,146.497009 229.859161,146.105942 
	C229.352859,145.320984 228.960236,144.425888 228.322830,143.767944 
	C221.327072,136.546906 217.961761,127.888145 216.708267,117.931427 
	C216.156921,113.552048 214.189758,108.660545 211.287750,105.410141 
	C205.107742,98.488213 198.119583,92.223686 191.022095,86.209618 
	C186.902740,82.719070 181.754669,81.776947 176.556549,84.533478 
	C169.253036,88.406494 162.290482,93.282677 154.560822,95.883049 
	C147.840393,98.143898 141.762177,100.822876 136.357285,105.289680 
	C135.659760,105.866150 134.500702,106.066566 133.539810,106.112274 
	C127.484818,106.400269 122.390793,108.831863 117.600334,112.447304 
	C114.987579,114.419205 111.842354,115.726105 108.845741,117.138748 
	C104.982658,118.959854 101.278122,118.758141 98.586113,115.079453 
	C95.947517,111.473778 97.390892,107.997177 99.931419,105.106033 
	C102.224075,102.496986 105.039536,100.354591 107.532532,97.912567 
	C110.870735,94.642616 111.083755,89.974823 107.391411,88.139183 
	C102.519592,85.717155 97.145264,84.305885 91.578011,82.313774 
	C90.350494,93.069092 98.730415,92.239326 105.180420,94.735565 
	C102.842087,96.766747 101.383293,98.208923 99.752167,99.418777 
	C94.338554,103.434212 91.901550,109.607315 93.699074,115.039925 
	C95.439972,120.301399 99.239441,122.549339 106.954613,122.148331 
	C110.287895,121.975067 111.920044,122.907600 112.278404,126.236061 
	C112.418190,127.534348 113.029411,128.778564 113.394012,130.056519 
	C115.132591,136.150314 114.571098,137.049637 108.517845,138.938705 
	C106.905258,139.441940 105.161705,140.210770 104.012794,141.381989 
	C100.946060,144.508270 98.145897,147.898941 95.286880,151.225006 
	C93.497040,153.307236 91.792427,155.462692 89.955978,157.699265 
	C94.084541,160.395691 96.581070,160.018753 98.841064,157.136887 
	C99.727898,156.006042 101.019341,154.652298 102.291855,154.452362 
	C110.167969,153.214920 116.730522,147.615372 125.538216,148.768280 
	C131.553696,149.555679 134.946167,145.397690 135.249985,139.212997 
	C130.353165,143.672256 125.603134,147.395874 119.025780,145.481659 
	C119.149223,145.199295 119.186249,144.906021 119.931717,144.421738 
	C131.175491,143.274689 135.355743,136.171783 135.506546,125.471283 
	C136.096359,127.869576 135.423676,130.307266 136.269287,131.975174 
	C137.290253,133.988907 139.491333,136.607742 141.368729,136.767639 
	C148.125778,137.343079 154.961578,136.993622 161.775894,136.993622 
	C162.128326,135.591400 162.440704,134.348572 162.629883,133.595886 
	C165.578079,136.224792 168.602478,138.508652 171.083282,141.279282 
	C172.730743,143.119217 173.600784,145.655228 174.818817,147.879654 
	C172.640045,148.928513 170.491745,150.687256 168.272018,150.782593 
	C166.731705,150.848709 164.813934,148.862595 163.552048,147.378983 
	C160.125626,143.350540 158.100082,142.922272 153.003433,146.310196 
	C156.107224,149.113083 159.312973,151.545364 161.917450,154.506500 
	C164.000656,156.875000 165.948639,157.557068 168.867279,156.506989 
	C173.232147,154.936539 177.696655,153.645508 182.087982,152.145416 
	C186.018707,150.802658 189.217499,145.704514 187.696060,142.366348 
	C186.300674,139.304688 183.937500,136.684097 181.807663,133.434509 
	C181.555008,133.031693 181.302338,132.628876 181.646317,131.854050 
M288.272308,134.016907 
	C282.912567,139.256699 280.585358,146.629715 284.605499,149.019348 
	C290.873169,152.744995 298.376831,154.393677 305.368927,156.888321 
	C305.608398,156.973755 306.057770,156.775116 306.276733,156.568436 
	C309.987671,153.065826 313.677551,149.540924 317.626251,145.778793 
	C311.094910,142.914536 309.770569,143.441650 306.026337,148.455490 
	C305.044556,149.770157 302.731323,151.198547 301.406433,150.900360 
	C299.181061,150.399490 296.787201,148.904739 295.449829,147.098465 
	C294.947479,146.419983 296.923309,143.469025 298.243042,141.971588 
	C300.870392,138.990509 303.819092,136.291733 306.656342,133.497986 
	C306.940155,133.218521 307.370514,133.087936 307.811218,132.845108 
	C307.964691,134.355911 308.095978,135.648438 308.282318,137.482651 
	C313.217590,137.198639 317.996704,136.845200 322.782379,136.664124 
	C333.525391,136.257706 333.524902,136.292465 334.110107,125.523994 
	C334.116669,125.403214 334.459534,125.300705 334.669281,125.175392 
	C338.466858,141.550323 339.105133,142.271378 351.951355,145.333160 
	C351.951355,145.333160 351.960876,145.806198 351.104218,145.961990 
	C344.242126,147.680008 339.722778,142.440857 333.874176,139.158310 
	C335.611847,145.561661 341.874023,150.394348 347.466949,149.542221 
	C357.233368,148.054230 364.357666,153.585587 371.865326,158.016647 
	C374.818390,159.759537 377.152832,160.151627 380.809998,157.593491 
	C378.790344,155.288208 377.098724,153.208527 375.248169,151.281433 
	C372.743744,148.673386 369.595886,146.516006 367.694885,143.544281 
	C365.913635,140.759842 364.329102,139.082855 360.828217,138.891266 
	C357.157593,138.690384 355.043213,136.459869 356.136810,132.454865 
	C357.049377,129.112823 358.153900,125.823181 359.215637,122.373108 
	C360.812042,122.373108 362.135620,122.370857 363.459198,122.373497 
	C369.030701,122.384628 374.266113,121.648460 376.544189,115.506340 
	C378.519897,110.179466 376.148682,103.939751 370.855804,99.718330 
	C369.334991,98.505356 368.009918,97.046928 366.279968,95.401283 
	C371.407227,91.929581 380.551544,92.856201 378.645874,82.614456 
	C374.459747,83.886871 370.383179,84.709045 366.702911,86.395874 
	C364.373169,87.463684 361.461700,89.547256 360.965454,91.677193 
	C360.484650,93.740807 362.359528,96.752426 363.922180,98.795052 
	C366.021454,101.539185 369.363525,103.418030 371.124084,106.306999 
	C372.382172,108.371391 372.942444,112.009705 371.932892,113.983543 
	C370.927429,115.949394 367.295227,118.119003 365.308563,117.722885 
	C360.771973,116.818321 356.462036,114.559250 352.203094,112.547478 
	C348.660248,110.873955 345.506805,107.762573 341.849060,107.088493 
	C336.264130,106.059265 331.381256,104.710655 327.332520,100.390709 
	C325.797943,98.753311 322.870575,98.450859 320.618866,97.448273 
	C317.965240,96.266739 315.339111,95.019928 312.731903,93.738678 
	C309.923309,92.358467 307.183716,90.834839 304.352661,89.504333 
	C301.510529,88.168610 298.454803,87.237785 295.735504,85.700119 
	C289.053772,81.921883 283.706543,82.064316 277.900513,87.153664 
	C272.146515,92.197411 266.244873,97.207146 261.300751,102.994461 
	C257.840851,107.044449 254.331635,112.142845 253.571136,117.184319 
	C251.921844,128.117538 248.072006,137.577515 240.279007,146.002609 
	C240.685135,146.210617 241.091248,146.418625 242.197403,146.549042 
	C244.741898,144.308899 247.286392,142.068756 250.231567,140.189270 
	C250.375748,140.296539 250.519943,140.403809 250.488968,141.215942 
	C248.470734,144.488510 246.452499,147.761063 244.001160,151.735901 
	C247.052383,150.332367 249.886993,148.934662 252.801437,147.730087 
	C254.125565,147.182800 255.715424,146.500931 256.999756,146.768387 
	C262.802917,147.976883 268.506348,149.685013 274.329285,150.760361 
	C275.486115,150.973984 278.250275,149.033508 278.160828,148.372025 
	C277.621948,144.386887 280.644287,139.876572 276.452423,136.347244 
	C275.371033,135.436783 274.943390,133.749817 273.909332,131.860199 
	C276.437378,132.278641 278.218445,132.694870 280.021179,132.838257 
	C281.890900,132.986954 283.781616,132.871384 285.748413,132.871384 
	C285.206451,131.435059 284.766998,130.270432 284.327545,129.105820 
	C284.580414,128.958237 284.833282,128.810654 285.086182,128.663086 
	C286.384979,129.826324 287.683807,130.989563 288.976868,132.712189 
	C288.979309,133.085114 288.981750,133.458038 288.272308,134.016907 
M385.275909,153.971649 
	C384.525269,153.011429 383.774628,152.051208 382.891632,150.921692 
	C380.008179,155.668503 380.515747,157.095932 385.498352,158.787064 
	C385.498352,157.345459 385.498352,155.979263 385.275909,153.971649 
M88.268158,157.795746 
	C88.615059,155.700302 88.961967,153.604843 89.362839,151.183380 
	C84.297684,151.607574 84.779594,154.586395 85.037323,157.070633 
	C85.099167,157.666794 86.917610,158.080704 88.268158,157.795746 
z"/>
<path fill="#F9F9F9" opacity="1.000000" stroke="none" 
	d="
M253.046844,196.623642 
	C261.194000,196.732300 268.844849,196.868408 276.496277,196.944794 
	C285.232971,197.032028 292.621216,199.764175 296.729706,208.028305 
	C300.926239,216.469559 299.513672,224.470184 293.926086,231.873032 
	C293.528900,232.399261 293.150818,232.939941 292.657379,233.620804 
	C293.079498,233.969452 293.416168,234.385559 293.852081,234.587479 
	C305.894104,240.165283 306.697205,251.085358 304.705383,262.234314 
	C303.103119,271.203033 294.037018,277.575134 282.861511,277.961670 
	C270.760895,278.380219 258.634644,278.056488 246.258575,278.056488 
	C246.258575,251.138245 246.258575,224.266205 246.258575,196.624695 
	C248.382477,196.624695 250.466629,196.624695 253.046844,196.623642 
M285.304810,245.031433 
	C281.153778,244.242142 276.959442,243.622284 272.873596,242.577988 
	C271.297089,242.175064 268.897797,240.974350 268.723206,239.849915 
	C268.180542,236.354736 268.524536,232.721909 268.524536,229.037903 
	C270.271301,228.906982 271.421509,228.823822 272.571167,228.734116 
	C279.080292,228.226242 282.086426,225.515747 281.997437,220.237198 
	C281.903168,214.649109 278.556305,211.344574 272.422485,211.018723 
	C269.334106,210.854675 266.229767,210.990097 263.249969,210.990097 
	C263.249969,228.997513 263.249969,246.379578 263.249969,263.999939 
	C268.032715,263.999939 272.506226,264.051483 276.977997,263.985687 
	C281.594238,263.917786 285.563141,262.374237 287.711121,258.025085 
	C289.918152,253.556427 289.168304,249.314438 285.304810,245.031433 
z"/>
<path fill="#F8F8F8" opacity="1.000000" stroke="none" 
	d="
M76.492439,212.017410 
	C72.326996,211.537643 68.565956,211.123840 64.339966,210.658905 
	C64.339966,233.328308 64.339966,255.399216 64.339966,277.786011 
	C58.402405,277.786011 52.863747,277.786011 47.109665,277.786011 
	C47.109665,250.264374 47.109665,222.873688 47.109665,194.434677 
	C58.819118,195.073029 70.590889,194.526199 81.882797,196.596573 
	C100.925125,200.087997 108.765610,222.866211 96.228981,236.932159 
	C92.999397,240.555725 88.039528,242.637146 83.543861,245.648468 
	C90.473717,255.751389 97.854942,266.512360 106.079147,278.502289 
	C99.799706,278.502289 94.553185,278.968079 89.455116,278.300354 
	C87.007919,277.979797 84.141624,276.009216 82.678932,273.931427 
	C78.292572,267.700531 74.320732,261.151672 70.586433,254.502640 
	C69.357430,252.314377 68.997635,249.461060 68.854858,246.877899 
	C68.590538,242.095825 68.779213,237.288727 68.779213,233.245911 
	C73.064140,231.901001 76.993782,231.209183 80.312737,229.398193 
	C81.981308,228.487762 82.974762,225.651749 83.511971,223.496674 
	C84.704216,218.713882 82.190590,214.711411 76.492439,212.017410 
z"/>
<path fill="#F8F8F8" opacity="1.000000" stroke="none" 
	d="
M185.225647,279.101624 
	C170.370270,277.200348 161.616608,264.816254 163.139252,248.962372 
	C165.034012,229.234283 183.977997,220.614914 199.562180,228.865448 
	C200.553207,229.390121 201.598404,229.812469 203.209274,230.554642 
	C203.209274,218.115509 203.209274,206.228287 203.209274,193.948776 
	C209.045990,193.948776 214.424286,193.948776 219.992828,193.948776 
	C219.992828,221.844025 219.992828,249.620010 219.992828,277.731628 
	C214.934113,277.731628 209.848877,277.731628 204.309967,277.731628 
	C204.117874,276.693878 203.872452,275.367859 203.782883,274.883972 
	C197.674088,276.313751 191.671341,277.718719 185.225647,279.101624 
M180.520370,251.014511 
	C179.665222,258.548615 183.384048,264.205933 189.756531,265.065125 
	C197.640335,266.128143 203.686188,261.429321 204.747787,253.413940 
	C205.650711,246.596649 201.004272,240.909607 193.456207,239.593536 
	C186.897888,238.450043 181.989914,242.527054 180.520370,251.014511 
z"/>
<path fill="#F7F7F7" opacity="1.000000" stroke="none" 
	d="
M130.189972,280.038910 
	C114.796623,278.500458 105.907013,269.867371 104.681328,255.690094 
	C103.478584,241.778046 110.757874,229.595261 123.011520,226.628021 
	C141.531067,222.143463 160.262695,231.143768 157.739517,256.298737 
	C146.064377,256.298737 134.323563,256.298737 122.267044,256.298737 
	C122.009010,260.923157 124.130920,263.592407 127.470375,265.457581 
	C131.229843,267.557404 135.715759,268.392120 138.594879,265.094177 
	C143.082535,259.953644 146.995209,261.439789 151.483505,264.404846 
	C152.990173,265.400177 154.667511,266.137146 156.540573,267.138519 
	C150.212601,276.521667 141.518127,280.447601 130.189972,280.038910 
M140.735031,246.389664 
	C141.118759,241.030243 137.750351,237.326874 132.394455,237.219711 
	C126.138771,237.094543 122.119453,240.880234 122.528572,246.729706 
	C128.314774,246.729706 134.116913,246.729706 140.735031,246.389664 
z"/>
<path fill="#F6F6F6" opacity="1.000000" stroke="none" 
	d="
M343.027283,261.591919 
	C343.446716,254.920990 343.794312,248.639099 343.973022,242.352371 
	C344.099518,237.902069 343.997498,233.445267 343.997498,228.832062 
	C349.858185,228.832062 355.291107,228.832062 360.875153,228.832062 
	C360.875153,239.546722 361.320831,250.044586 360.759125,260.488281 
	C360.099274,272.755920 351.626770,280.430054 339.245392,281.017090 
	C332.025909,281.359375 325.156555,280.804779 318.766663,276.514404 
	C314.097931,273.379669 310.791046,269.296112 310.530365,264.141693 
	C309.937744,252.424728 310.343567,240.657257 310.343567,228.673157 
	C315.414825,228.673157 320.526978,228.673157 326.389160,228.673157 
	C326.389160,235.123184 326.377991,241.548615 326.394104,247.973953 
	C326.401611,250.969681 326.339569,253.972977 326.527954,256.959045 
	C326.791718,261.140350 328.705048,264.380554 332.904602,265.545807 
	C336.924377,266.661255 340.519806,265.857208 343.027283,261.591919 
z"/>
<path fill="#F3F3F3" opacity="1.000000" stroke="none" 
	d="
M412.759094,218.000153 
	C412.759064,238.103882 412.759064,257.707611 412.759064,277.723083 
	C407.335083,277.723083 402.158905,277.723083 396.822021,277.723083 
	C396.822021,249.775955 396.822021,221.918015 396.822021,193.865356 
	C402.152344,193.865356 407.209106,193.865356 412.759094,193.865356 
	C412.759094,201.951660 412.759094,209.725906 412.759094,218.000153 
z"/>
<path fill="#F9F9F9" opacity="1.000000" stroke="none" 
	d="
M385.822021,272.831848 
	C385.749207,274.762939 385.676392,276.212128 385.593109,277.869507 
	C380.368500,277.869507 375.435425,277.869507 370.151520,277.869507 
	C370.151520,249.890961 370.151520,221.891815 370.151520,193.241043 
	C375.169342,193.566559 380.165131,193.890640 385.822052,194.257614 
	C385.822052,220.256104 385.822052,246.303024 385.822021,272.831848 
z"/>
<path fill="#3C3C3C" opacity="1.000000" stroke="none" 
	d="
M420.064728,205.113831 
	C418.332916,200.380798 420.720917,196.608002 424.112000,194.377365 
	C427.369110,192.234909 431.833527,190.645355 435.600891,193.795776 
	C438.927155,196.577332 442.738678,199.561264 439.424316,205.120590 
	C437.258179,206.641220 435.574493,207.942993 433.891663,208.785217 
	C433.540924,206.265030 432.867706,204.199585 432.898376,202.144638 
	C432.989105,196.067261 431.969086,195.198563 426.614258,196.953568 
	C426.614258,200.675751 426.614258,204.265594 426.614258,207.855453 
	C426.952545,207.876877 427.290802,207.898300 427.629089,207.919724 
	C428.014954,206.339691 428.400818,204.759659 428.887482,202.766968 
	C430.792053,205.154617 432.385803,207.152618 433.858887,209.497864 
	C429.099396,212.154678 425.539612,210.771271 422.606689,206.756210 
	C422.051117,205.995651 420.926666,205.650604 420.064728,205.113831 
z"/>
<path fill="#CECECE" opacity="1.000000" stroke="none" 
	d="
M433.890808,209.244766 
	C435.574493,207.942993 437.258179,206.641220 439.228333,205.491043 
	C438.176605,209.970078 435.084778,212.192703 430.722870,212.507538 
	C425.646545,212.873947 422.273682,210.281250 420.139465,205.447998 
	C420.926666,205.650604 422.051117,205.995651 422.606689,206.756210 
	C425.539612,210.771271 429.099396,212.154678 433.838013,209.522644 
	C433.937836,209.200195 433.890808,209.244766 433.890808,209.244766 
z"/>
<path fill="#2B2B2B" opacity="1.000000" stroke="none" 
	d="
M352.044037,144.869186 
	C339.105133,142.271378 338.466858,141.550323 334.669281,125.175392 
	C334.459534,125.300705 334.116669,125.403214 334.110107,125.523994 
	C333.524902,136.292465 333.525391,136.257706 322.782379,136.664124 
	C317.996704,136.845200 313.217590,137.198639 308.282318,137.482651 
	C308.095978,135.648438 307.964691,134.355911 307.811218,132.845108 
	C307.370514,133.087936 306.940155,133.218521 306.656342,133.497986 
	C303.819092,136.291733 300.870392,138.990509 298.243042,141.971588 
	C296.923309,143.469025 294.947479,146.419983 295.449829,147.098465 
	C296.787201,148.904739 299.181061,150.399490 301.406433,150.900360 
	C302.731323,151.198547 305.044556,149.770157 306.026337,148.455490 
	C309.770569,143.441650 311.094910,142.914536 317.626251,145.778793 
	C313.677551,149.540924 309.987671,153.065826 306.276733,156.568436 
	C306.057770,156.775116 305.608398,156.973755 305.368927,156.888321 
	C298.376831,154.393677 290.873169,152.744995 284.605499,149.019348 
	C280.585358,146.629715 282.912567,139.256699 288.951965,134.074356 
	C288.675415,136.508286 287.818573,138.931091 286.738007,141.249649 
	C285.363037,144.199997 285.693481,146.553452 287.656525,147.897049 
	C289.509644,143.120316 291.341034,138.399582 293.269897,133.427567 
	C291.743225,132.973633 290.362915,132.563217 288.982605,132.152802 
	C287.683807,130.989563 286.384979,129.826324 285.086182,128.663086 
	C284.833282,128.810654 284.580414,128.958237 284.327545,129.105820 
	C284.766998,130.270432 285.206451,131.435059 285.748413,132.871384 
	C283.781616,132.871384 281.890900,132.986954 280.021179,132.838257 
	C278.218445,132.694870 276.437378,132.278641 273.909332,131.860199 
	C274.943390,133.749817 275.371033,135.436783 276.452423,136.347244 
	C280.644287,139.876572 277.621948,144.386887 278.160828,148.372025 
	C278.250275,149.033508 275.486115,150.973984 274.329285,150.760361 
	C268.506348,149.685013 262.802917,147.976883 256.999756,146.768387 
	C255.715424,146.500931 254.125565,147.182800 252.801437,147.730087 
	C249.886993,148.934662 247.052383,150.332367 244.001160,151.735901 
	C246.452499,147.761063 248.470734,144.488510 250.726135,140.620728 
	C250.898117,139.764984 250.832947,139.504456 250.767792,139.243927 
	C250.455490,139.438812 250.143173,139.633713 249.830872,139.828613 
	C247.286392,142.068756 244.741898,144.308899 241.655060,146.346222 
	C240.972458,145.992676 240.832199,145.841949 240.691956,145.691238 
	C248.072006,137.577515 251.921844,128.117538 253.571136,117.184319 
	C254.331635,112.142845 257.840851,107.044449 261.300751,102.994461 
	C266.244873,97.207146 272.146515,92.197411 277.900513,87.153664 
	C283.706543,82.064316 289.053772,81.921883 295.735504,85.700119 
	C298.454803,87.237785 301.510529,88.168610 304.352661,89.504333 
	C307.183716,90.834839 309.923309,92.358467 312.731903,93.738678 
	C315.339111,95.019928 317.965240,96.266739 320.618866,97.448273 
	C322.870575,98.450859 325.797943,98.753311 327.332520,100.390709 
	C331.381256,104.710655 336.264130,106.059265 341.849060,107.088493 
	C345.506805,107.762573 348.660248,110.873955 352.203094,112.547478 
	C356.462036,114.559250 360.771973,116.818321 365.308563,117.722885 
	C367.295227,118.119003 370.927429,115.949394 371.932892,113.983543 
	C372.942444,112.009705 372.382172,108.371391 371.124084,106.306999 
	C369.363525,103.418030 366.021454,101.539185 363.922180,98.795052 
	C362.359528,96.752426 360.484650,93.740807 360.965454,91.677193 
	C361.461700,89.547256 364.373169,87.463684 366.702911,86.395874 
	C370.383179,84.709045 374.459747,83.886871 378.645874,82.614456 
	C380.551544,92.856201 371.407227,91.929581 366.279968,95.401283 
	C368.009918,97.046928 369.334991,98.505356 370.855804,99.718330 
	C376.148682,103.939751 378.519897,110.179466 376.544189,115.506340 
	C374.266113,121.648460 369.030701,122.384628 363.459198,122.373497 
	C362.135620,122.370857 360.812042,122.373108 359.215637,122.373108 
	C358.153900,125.823181 357.049377,129.112823 356.136810,132.454865 
	C355.043213,136.459869 357.157593,138.690384 360.828217,138.891266 
	C364.329102,139.082855 365.913635,140.759842 367.694885,143.544281 
	C369.595886,146.516006 372.743744,148.673386 375.248169,151.281433 
	C377.098724,153.208527 378.790344,155.288208 380.809998,157.593491 
	C377.152832,160.151627 374.818390,159.759537 371.865326,158.016647 
	C364.357666,153.585587 357.233368,148.054230 347.466949,149.542221 
	C341.874023,150.394348 335.611847,145.561661 333.874176,139.158310 
	C339.722778,142.440857 344.242126,147.680008 351.909637,145.954788 
	C357.059418,147.682953 361.403778,149.418320 366.915863,151.620117 
	C362.555298,145.792877 357.946136,143.811203 352.044037,144.869186 
M265.468567,125.903297 
	C264.879059,123.104004 264.947845,119.259972 260.874603,119.744591 
	C257.574890,120.137192 255.486465,127.513893 257.425903,130.902740 
	C258.947906,128.485718 260.403992,126.173363 261.867706,123.848869 
	C263.126312,124.717110 263.935669,125.275436 265.468567,125.903297 
z"/>
<path fill="#2A2A2A" opacity="1.000000" stroke="none" 
	d="
M119.022713,145.929413 
	C125.603134,147.395874 130.353165,143.672256 135.249985,139.212997 
	C134.946167,145.397690 131.553696,149.555679 125.538216,148.768280 
	C116.730522,147.615372 110.167969,153.214920 102.291855,154.452362 
	C101.019341,154.652298 99.727898,156.006042 98.841064,157.136887 
	C96.581070,160.018753 94.084541,160.395691 89.955978,157.699265 
	C91.792427,155.462692 93.497040,153.307236 95.286880,151.225006 
	C98.145897,147.898941 100.946060,144.508270 104.012794,141.381989 
	C105.161705,140.210770 106.905258,139.441940 108.517845,138.938705 
	C114.571098,137.049637 115.132591,136.150314 113.394012,130.056519 
	C113.029411,128.778564 112.418190,127.534348 112.278404,126.236061 
	C111.920044,122.907600 110.287895,121.975067 106.954613,122.148331 
	C99.239441,122.549339 95.439972,120.301399 93.699074,115.039925 
	C91.901550,109.607315 94.338554,103.434212 99.752167,99.418777 
	C101.383293,98.208923 102.842087,96.766747 105.180420,94.735565 
	C98.730415,92.239326 90.350494,93.069092 91.578011,82.313774 
	C97.145264,84.305885 102.519592,85.717155 107.391411,88.139183 
	C111.083755,89.974823 110.870735,94.642616 107.532532,97.912567 
	C105.039536,100.354591 102.224075,102.496986 99.931419,105.106033 
	C97.390892,107.997177 95.947517,111.473778 98.586113,115.079453 
	C101.278122,118.758141 104.982658,118.959854 108.845741,117.138748 
	C111.842354,115.726105 114.987579,114.419205 117.600334,112.447304 
	C122.390793,108.831863 127.484818,106.400269 133.539810,106.112274 
	C134.500702,106.066566 135.659760,105.866150 136.357285,105.289680 
	C141.762177,100.822876 147.840393,98.143898 154.560822,95.883049 
	C162.290482,93.282677 169.253036,88.406494 176.556549,84.533478 
	C181.754669,81.776947 186.902740,82.719070 191.022095,86.209618 
	C198.119583,92.223686 205.107742,98.488213 211.287750,105.410141 
	C214.189758,108.660545 216.156921,113.552048 216.708267,117.931427 
	C217.961761,127.888145 221.327072,136.546906 228.322830,143.767944 
	C228.960236,144.425888 229.352859,145.320984 229.859161,146.105942 
	C229.508728,146.497009 229.158279,146.888077 228.807831,147.279144 
	C225.767151,144.820038 222.726471,142.360947 219.685791,139.901855 
	C219.404663,140.174484 219.123535,140.447128 218.842407,140.719772 
	C221.170929,143.881744 223.499451,147.043732 226.855652,151.601212 
	C223.344482,150.222321 220.479904,149.649857 218.319138,148.097656 
	C216.032455,146.454987 214.672119,146.333786 211.811783,147.305664 
	C206.388290,149.148422 200.486542,149.696869 194.734711,150.360580 
	C193.639465,150.486954 191.153976,148.068710 191.277451,147.826202 
	C193.090942,144.264206 189.888687,139.663864 193.724075,136.534531 
	C194.795914,135.660004 195.289291,134.076508 196.472015,132.115128 
	C192.365631,132.525940 188.895737,132.873077 185.037689,133.259048 
	C185.490265,131.046021 185.860031,129.237869 186.466690,126.271393 
	C184.337708,128.737045 182.992004,130.295547 180.980499,132.087219 
	C179.161240,132.775589 178.007797,133.230789 177.037292,133.613800 
	C179.013260,138.550430 180.852173,143.144669 182.737885,147.855820 
	C185.544327,145.448578 183.854645,142.593063 182.740112,139.500244 
	C182.128677,137.803543 178.685913,136.152451 182.000732,133.869171 
	C183.937500,136.684097 186.300674,139.304688 187.696060,142.366348 
	C189.217499,145.704514 186.018707,150.802658 182.087982,152.145416 
	C177.696655,153.645508 173.232147,154.936539 168.867279,156.506989 
	C165.948639,157.557068 164.000656,156.875000 161.917450,154.506500 
	C159.312973,151.545364 156.107224,149.113083 153.003433,146.310196 
	C158.100082,142.922272 160.125626,143.350540 163.552048,147.378983 
	C164.813934,148.862595 166.731705,150.848709 168.272018,150.782593 
	C170.491745,150.687256 172.640045,148.928513 174.818817,147.879654 
	C173.600784,145.655228 172.730743,143.119217 171.083282,141.279282 
	C168.602478,138.508652 165.578079,136.224792 162.629883,133.595886 
	C162.440704,134.348572 162.128326,135.591400 161.775894,136.993622 
	C154.961578,136.993622 148.125778,137.343079 141.368729,136.767639 
	C139.491333,136.607742 137.290253,133.988907 136.269287,131.975174 
	C135.423676,130.307266 136.096359,127.869576 135.506546,125.471283 
	C135.355743,136.171783 131.175491,143.274689 119.123993,144.370316 
	C112.329956,143.510056 107.893234,146.010071 103.190147,151.193893 
	C109.348404,149.146210 114.185562,147.537811 119.022713,145.929413 
M206.310150,121.724670 
	C205.711151,122.968025 205.112152,124.211388 204.513153,125.454742 
	C204.822952,125.616699 205.132751,125.778656 205.442551,125.940613 
	C206.400970,125.164993 207.359406,124.389366 208.370377,123.571220 
	C209.959518,126.238541 211.395828,128.649353 213.499908,132.180969 
	C215.664871,125.040108 211.851822,122.216576 208.401825,118.922043 
	C207.709213,119.871986 207.227493,120.532661 206.310150,121.724670 
M188.008423,102.889961 
	C187.210129,101.386108 186.411835,99.882256 185.613541,98.378403 
	C185.013245,98.584526 184.412933,98.790649 183.812637,98.996773 
	C184.858231,102.603752 185.903824,106.210739 186.949417,109.817719 
	C187.325745,109.748299 187.702057,109.678886 188.078384,109.609467 
	C188.078384,107.657661 188.078384,105.705864 188.008423,102.889961 
z"/>
<path fill="#DEDEDE" opacity="1.000000" stroke="none" 
	d="
M288.979736,132.432495 
	C290.362915,132.563217 291.743225,132.973633 293.269897,133.427567 
	C291.341034,138.399582 289.509644,143.120316 287.656525,147.897049 
	C285.693481,146.553452 285.363037,144.199997 286.738007,141.249649 
	C287.818573,138.931091 288.675415,136.508286 289.307922,133.981384 
	C288.981750,133.458038 288.979309,133.085114 288.979736,132.432495 
z"/>
<path fill="#DEDEDE" opacity="1.000000" stroke="none" 
	d="
M181.904205,133.651840 
	C178.685913,136.152451 182.128677,137.803543 182.740112,139.500244 
	C183.854645,142.593063 185.544327,145.448578 182.737885,147.855820 
	C180.852173,143.144669 179.013260,138.550430 177.037292,133.613800 
	C178.007797,133.230789 179.161240,132.775589 180.682175,132.273224 
	C181.302338,132.628876 181.555008,133.031693 181.904205,133.651840 
z"/>
<path fill="#C3C3C3" opacity="1.000000" stroke="none" 
	d="
M119.024246,145.705536 
	C114.185562,147.537811 109.348404,149.146210 103.190147,151.193893 
	C107.893234,146.010071 112.329956,143.510056 118.726562,144.460358 
	C119.186249,144.906021 119.149223,145.199295 119.024246,145.705536 
z"/>
<path fill="#CECECE" opacity="1.000000" stroke="none" 
	d="
M351.997681,145.101166 
	C357.946136,143.811203 362.555298,145.792877 366.915863,151.620117 
	C361.403778,149.418320 357.059418,147.682953 352.337952,145.876892 
	C351.960876,145.806198 351.951355,145.333160 351.997681,145.101166 
z"/>
<path fill="#3C3C3C" opacity="1.000000" stroke="none" 
	d="
M385.387146,154.292358 
	C385.498352,155.979263 385.498352,157.345459 385.498352,158.787064 
	C380.515747,157.095932 380.008179,155.668503 382.891632,150.921692 
	C383.774628,152.051208 384.525269,153.011429 385.387146,154.292358 
z"/>
<path fill="#3C3C3C" opacity="1.000000" stroke="none" 
	d="
M88.098175,158.187088 
	C86.917610,158.080704 85.099167,157.666794 85.037323,157.070633 
	C84.779594,154.586395 84.297684,151.607574 89.362839,151.183380 
	C88.961967,153.604843 88.615059,155.700302 88.098175,158.187088 
z"/>
<path fill="#2B2B2B" opacity="1.000000" stroke="none" 
	d="
M241.305038,146.385010 
	C241.091248,146.418625 240.685135,146.210617 240.485474,145.846924 
	C240.832199,145.841949 240.972458,145.992676 241.305038,146.385010 
z"/>
<path fill="#2C2C2C" opacity="1.000000" stroke="none" 
	d="
M285.605255,245.283234 
	C289.168304,249.314438 289.918152,253.556427 287.711121,258.025085 
	C285.563141,262.374237 281.594238,263.917786 276.977997,263.985687 
	C272.506226,264.051483 268.032715,263.999939 263.249969,263.999939 
	C263.249969,246.379578 263.249969,228.997513 263.249969,210.990097 
	C266.229767,210.990097 269.334106,210.854675 272.422485,211.018723 
	C278.556305,211.344574 281.903168,214.649109 281.997437,220.237198 
	C282.086426,225.515747 279.080292,228.226242 272.571167,228.734116 
	C271.421509,228.823822 270.271301,228.906982 268.524536,229.037903 
	C268.524536,232.721909 268.180542,236.354736 268.723206,239.849915 
	C268.897797,240.974350 271.297089,242.175064 272.873596,242.577988 
	C276.959442,243.622284 281.153778,244.242142 285.605255,245.283234 
z"/>
<path fill="#2B2B2B" opacity="1.000000" stroke="none" 
	d="
M180.595337,250.614594 
	C181.989914,242.527054 186.897888,238.450043 193.456207,239.593536 
	C201.004272,240.909607 205.650711,246.596649 204.747787,253.413940 
	C203.686188,261.429321 197.640335,266.128143 189.756531,265.065125 
	C183.384048,264.205933 179.665222,258.548615 180.595337,250.614594 
z"/>
<path fill="#383838" opacity="1.000000" stroke="none" 
	d="
M140.327057,246.559692 
	C134.116913,246.729706 128.314774,246.729706 122.528572,246.729706 
	C122.119453,240.880234 126.138771,237.094543 132.394455,237.219711 
	C137.750351,237.326874 141.118759,241.030243 140.327057,246.559692 
z"/>
<path fill="#D3D3D3" opacity="1.000000" stroke="none" 
	d="
M433.958679,209.175415 
	C432.385803,207.152618 430.792053,205.154617 428.887482,202.766968 
	C428.400818,204.759659 428.014954,206.339691 427.629089,207.919724 
	C427.290802,207.898300 426.952545,207.876877 426.614258,207.855453 
	C426.614258,204.265594 426.614258,200.675751 426.614258,196.953568 
	C431.969086,195.198563 432.989105,196.067261 432.898376,202.144638 
	C432.867706,204.199585 433.540924,206.265030 433.891663,208.785217 
	C433.890808,209.244766 433.937836,209.200195 433.958679,209.175415 
z"/>
<path fill="#D8D8D8" opacity="1.000000" stroke="none" 
	d="
M265.106781,125.868530 
	C263.935669,125.275436 263.126312,124.717110 261.867706,123.848869 
	C260.403992,126.173363 258.947906,128.485718 257.425903,130.902740 
	C255.486465,127.513893 257.574890,120.137192 260.874603,119.744591 
	C264.947845,119.259972 264.879059,123.104004 265.106781,125.868530 
z"/>
<path fill="#EEEEEE" opacity="1.000000" stroke="none" 
	d="
M250.031219,140.008942 
	C250.143173,139.633713 250.455490,139.438812 250.767792,139.243927 
	C250.832947,139.504456 250.898117,139.764984 250.813705,140.268295 
	C250.519943,140.403809 250.375748,140.296539 250.031219,140.008942 
z"/>
<path fill="#D8D8D8" opacity="1.000000" stroke="none" 
	d="
M206.527969,121.459000 
	C207.227493,120.532661 207.709213,119.871986 208.401825,118.922043 
	C211.851822,122.216576 215.664871,125.040108 213.499908,132.180969 
	C211.395828,128.649353 209.959518,126.238541 208.370377,123.571220 
	C207.359406,124.389366 206.400970,125.164993 205.442551,125.940613 
	C205.132751,125.778656 204.822952,125.616699 204.513153,125.454742 
	C205.112152,124.211388 205.711151,122.968025 206.527969,121.459000 
z"/>
<path fill="#DEDEDE" opacity="1.000000" stroke="none" 
	d="
M188.043396,103.322006 
	C188.078384,105.705864 188.078384,107.657661 188.078384,109.609467 
	C187.702057,109.678886 187.325745,109.748299 186.949417,109.817719 
	C185.903824,106.210739 184.858231,102.603752 183.812637,98.996773 
	C184.412933,98.790649 185.013245,98.584526 185.613541,98.378403 
	C186.411835,99.882256 187.210129,101.386108 188.043396,103.322006 
z"/>
</svg>