<svg version="1.1" id="Layer_1" xmlns="http://www.w3.org/2000/svg" xmlns:xlink="http://www.w3.org/1999/xlink" x="0px" y="0px"
	 width="100%" viewBox="0 0 438 208" enable-background="new 0 0 438 208" xml:space="preserve">
<path fill="#222222" opacity="1.000000" stroke="none" 
	d="
M260.000000,209.000000 
	C173.333359,209.000000 87.166725,209.000000 1.000069,209.000000 
	C1.000046,139.666718 1.000046,70.333443 1.000023,1.000125 
	C146.999893,1.000083 292.999786,1.000083 438.999756,1.000042 
	C438.999817,70.333199 438.999817,139.666397 438.999908,208.999802 
	C379.500000,209.000000 320.000000,209.000000 260.000000,209.000000 
M92.769203,52.555016 
	C79.401505,46.225185 64.621002,52.675308 62.584087,66.507828 
	C61.863773,71.399406 63.898266,76.845032 65.315239,81.856720 
	C66.481186,85.980515 66.678123,89.395569 62.674049,91.878563 
	C59.023548,94.142296 55.383755,93.245438 52.121563,89.534348 
	C49.931881,87.043343 47.923660,84.281525 45.347370,82.261986 
	C36.736217,75.511742 24.122469,77.335533 17.276466,86.049599 
	C10.521430,94.647881 12.047688,107.701973 20.635344,114.778183 
	C28.964197,121.641121 41.357376,120.633560 48.449741,112.484924 
	C49.977230,110.729950 51.355328,108.845474 52.869411,107.078217 
	C55.513306,103.992180 58.766270,103.383133 62.256100,105.337555 
	C65.993858,107.430817 66.899506,110.823441 65.684517,114.775139 
	C65.105629,116.657944 64.166962,118.426941 63.470627,120.277344 
	C60.024857,129.433807 63.455894,139.553436 71.705414,144.643387 
	C80.237099,149.907425 91.319305,148.283600 98.076935,140.779312 
	C104.307167,133.860687 104.709435,122.448502 99.160400,114.879433 
	C94.705292,108.802513 88.330147,107.021690 81.333267,106.311241 
	C77.045105,105.875832 74.111130,103.864197 74.009254,99.101959 
	C73.918526,94.860664 76.552971,91.940681 81.266068,91.032074 
	C82.735268,90.748840 84.212280,90.504745 85.688522,90.259644 
	C94.630722,88.774940 100.844749,83.872322 102.662788,74.921745 
	C104.516182,65.797066 101.409210,58.203663 92.769203,52.555016 
M197.215027,151.388885 
	C197.215027,153.500748 197.215027,155.612625 197.215027,157.982269 
	C202.674622,157.982269 207.588028,157.982269 213.007904,157.982269 
	C213.007904,152.981323 213.007904,148.035004 213.007904,143.088684 
	C213.007904,138.044373 213.007904,133.000046 213.007904,127.754562 
	C230.609375,133.877563 242.155289,131.469635 250.781998,120.242653 
	C258.453400,110.258926 259.131165,93.824104 251.143494,83.882156 
	C247.572952,79.438057 242.291199,75.781387 237.044098,73.406883 
	C228.798569,69.675476 220.492310,72.258713 213.909927,75.841896 
	C208.324631,70.766830 202.639633,74.074692 197.215027,72.888992 
	C197.215027,99.214920 197.215027,124.812790 197.215027,151.388885 
M289.814819,130.893158 
	C307.958801,133.794144 321.180908,124.561943 324.568970,106.435638 
	C326.076447,98.370453 324.550873,90.508110 319.698578,84.093864 
	C309.090607,70.071175 295.589508,68.431190 280.347412,76.791832 
	C280.082794,75.388756 279.861633,74.216125 279.678375,73.244370 
	C274.822052,73.244370 270.385986,73.244370 265.820251,73.244370 
	C265.820251,101.583313 265.820251,129.674652 265.820251,157.900970 
	C270.973419,157.900970 275.892456,157.900970 281.248657,157.900970 
	C281.248657,147.777115 281.248657,137.891861 281.248657,127.505264 
	C284.201508,128.709457 286.610809,129.691986 289.814819,130.893158 
M382.801941,71.976326 
	C369.196564,73.910774 359.565338,83.804787 358.030518,97.423630 
	C356.321594,112.587196 363.764465,125.287201 377.121521,129.999252 
	C389.149292,134.242355 404.685486,130.282532 410.560303,121.429565 
	C407.954956,118.658569 405.339569,115.876907 402.766571,113.140343 
	C385.353180,121.122421 374.102020,118.388718 374.022766,105.854828 
	C386.780945,105.854828 399.542267,105.854828 412.243835,105.854828 
	C414.520355,85.411209 402.992249,71.903481 382.801941,71.976326 
M333.834564,120.478867 
	C333.834564,123.587296 333.834564,126.695717 333.834564,129.873779 
	C339.245209,129.873779 344.134003,129.873779 348.972290,129.873779 
	C348.972290,102.104446 348.972290,74.628387 348.972290,47.291595 
	C343.710419,47.291595 338.818207,47.291595 333.834564,47.291595 
	C333.834564,71.601433 333.834564,95.543777 333.834564,120.478867 
M123.994698,106.499969 
	C123.994698,114.271416 123.994698,122.042862 123.994698,129.796127 
	C129.459335,129.796127 134.470322,129.796127 139.757385,129.796127 
	C139.757385,120.088379 139.723862,110.801590 139.766586,101.515144 
	C139.811569,91.737671 143.704727,87.539833 153.319763,86.764427 
	C155.117523,86.619446 156.914154,86.460335 159.010864,86.282295 
	C159.638031,81.471199 160.245377,76.812180 160.855591,72.131187 
	C157.626541,72.131187 154.705231,71.618614 152.054993,72.247818 
	C147.766724,73.265930 143.656570,75.034241 139.269302,76.555794 
	C139.102905,75.478455 138.920395,74.296829 138.768600,73.314041 
	C133.655121,73.314041 128.919678,73.314041 123.994698,73.314041 
	C123.994698,84.254990 123.994698,94.877495 123.994698,106.499969 
M184.007050,118.485565 
	C184.007050,103.391281 184.007050,88.296997 184.007050,73.249191 
	C178.459549,73.249191 173.531769,73.249191 168.463135,73.249191 
	C168.463135,92.239227 168.463135,110.972031 168.463135,129.940308 
	C173.663025,129.940308 178.586395,129.940308 184.007050,129.940308 
	C184.007050,126.392311 184.007050,122.936607 184.007050,118.485565 
M182.935577,60.466072 
	C187.365982,55.020245 187.118912,48.955238 182.311844,45.154400 
	C177.855453,41.630814 171.209946,42.565453 167.703079,47.209007 
	C165.066513,50.700161 165.191254,55.779545 167.997238,59.188034 
	C171.607315,63.573242 176.129852,64.125221 182.935577,60.466072 
z"/>
<path fill="#FAFAFA" opacity="1.000000" stroke="none" 
	d="
M93.087585,52.753357 
	C101.409210,58.203663 104.516182,65.797066 102.662788,74.921745 
	C100.844749,83.872322 94.630722,88.774940 85.688522,90.259644 
	C84.212280,90.504745 82.735268,90.748840 81.266068,91.032074 
	C76.552971,91.940681 73.918526,94.860664 74.009254,99.101959 
	C74.111130,103.864197 77.045105,105.875832 81.333267,106.311241 
	C88.330147,107.021690 94.705292,108.802513 99.160400,114.879433 
	C104.709435,122.448502 104.307167,133.860687 98.076935,140.779312 
	C91.319305,148.283600 80.237099,149.907425 71.705414,144.643387 
	C63.455894,139.553436 60.024857,129.433807 63.470627,120.277344 
	C64.166962,118.426941 65.105629,116.657944 65.684517,114.775139 
	C66.899506,110.823441 65.993858,107.430817 62.256100,105.337555 
	C58.766270,103.383133 55.513306,103.992180 52.869411,107.078217 
	C51.355328,108.845474 49.977230,110.729950 48.449741,112.484924 
	C41.357376,120.633560 28.964197,121.641121 20.635344,114.778183 
	C12.047688,107.701973 10.521430,94.647881 17.276466,86.049599 
	C24.122469,77.335533 36.736217,75.511742 45.347370,82.261986 
	C47.923660,84.281525 49.931881,87.043343 52.121563,89.534348 
	C55.383755,93.245438 59.023548,94.142296 62.674049,91.878563 
	C66.678123,89.395569 66.481186,85.980515 65.315239,81.856720 
	C63.898266,76.845032 61.863773,71.399406 62.584087,66.507828 
	C64.621002,52.675308 79.401505,46.225185 93.087585,52.753357 
z"/>
<path fill="#F7F7F7" opacity="1.000000" stroke="none" 
	d="
M197.215027,150.899780 
	C197.215027,124.812790 197.215027,99.214920 197.215027,72.888992 
	C202.639633,74.074692 208.324631,70.766830 213.909927,75.841896 
	C220.492310,72.258713 228.798569,69.675476 237.044098,73.406883 
	C242.291199,75.781387 247.572952,79.438057 251.143494,83.882156 
	C259.131165,93.824104 258.453400,110.258926 250.781998,120.242653 
	C242.155289,131.469635 230.609375,133.877563 213.007904,127.754562 
	C213.007904,133.000046 213.007904,138.044373 213.007904,143.088684 
	C213.007904,148.035004 213.007904,152.981323 213.007904,157.982269 
	C207.588028,157.982269 202.674622,157.982269 197.215027,157.982269 
	C197.215027,155.612625 197.215027,153.500748 197.215027,150.899780 
M213.426331,110.816635 
	C218.723984,117.427727 224.851746,119.453423 231.781372,116.884346 
	C237.703888,114.688652 241.867844,108.218445 241.670670,101.517822 
	C241.458023,94.291580 237.246460,88.384949 230.618668,86.539360 
	C224.749527,84.905029 219.279922,85.824265 215.164978,90.664764 
	C210.118896,96.600616 209.570435,103.199684 213.426331,110.816635 
z"/>
<path fill="#F8F8F8" opacity="1.000000" stroke="none" 
	d="
M289.417480,130.783844 
	C286.610809,129.691986 284.201508,128.709457 281.248657,127.505264 
	C281.248657,137.891861 281.248657,147.777115 281.248657,157.900970 
	C275.892456,157.900970 270.973419,157.900970 265.820251,157.900970 
	C265.820251,129.674652 265.820251,101.583313 265.820251,73.244370 
	C270.385986,73.244370 274.822052,73.244370 279.678375,73.244370 
	C279.861633,74.216125 280.082794,75.388756 280.347412,76.791832 
	C295.589508,68.431190 309.090607,70.071175 319.698578,84.093864 
	C324.550873,90.508110 326.076447,98.370453 324.568970,106.435638 
	C321.180908,124.561943 307.958801,133.794144 289.417480,130.783844 
M294.501007,117.988823 
	C295.806488,117.762817 297.133301,117.621117 298.413940,117.296967 
	C306.093353,115.353241 311.257141,107.157684 309.770935,99.334793 
	C308.092255,90.498955 301.240356,84.681122 292.961670,86.213921 
	C289.194061,86.911491 284.695404,89.043602 282.594727,91.995522 
	C279.983002,95.665527 277.391052,101.536560 278.579742,105.241127 
	C280.663788,111.735840 285.447510,117.533607 294.501007,117.988823 
z"/>
<path fill="#F6F6F6" opacity="1.000000" stroke="none" 
	d="
M383.250183,71.952103 
	C402.992249,71.903481 414.520355,85.411209 412.243835,105.854828 
	C399.542267,105.854828 386.780945,105.854828 374.022766,105.854828 
	C374.102020,118.388718 385.353180,121.122421 402.766571,113.140343 
	C405.339569,115.876907 407.954956,118.658569 410.560303,121.429565 
	C404.685486,130.282532 389.149292,134.242355 377.121521,129.999252 
	C363.764465,125.287201 356.321594,112.587196 358.030518,97.423630 
	C359.565338,83.804787 369.196564,73.910774 383.250183,71.952103 
M379.634277,94.430084 
	C385.342987,94.430084 391.051727,94.430084 397.007599,94.430084 
	C394.802673,87.025742 390.194489,83.413254 384.722870,84.086510 
	C378.786865,84.816917 374.801147,88.596436 374.252563,94.430099 
	C375.755280,94.430099 377.217285,94.430099 379.634277,94.430084 
z"/>
<path fill="#F8F8F8" opacity="1.000000" stroke="none" 
	d="
M333.834564,119.982498 
	C333.834564,95.543777 333.834564,71.601433 333.834564,47.291595 
	C338.818207,47.291595 343.710419,47.291595 348.972290,47.291595 
	C348.972290,74.628387 348.972290,102.104446 348.972290,129.873779 
	C344.134003,129.873779 339.245209,129.873779 333.834564,129.873779 
	C333.834564,126.695717 333.834564,123.587296 333.834564,119.982498 
z"/>
<path fill="#F5F5F5" opacity="1.000000" stroke="none" 
	d="
M123.994698,105.999985 
	C123.994698,94.877495 123.994698,84.254990 123.994698,73.314041 
	C128.919678,73.314041 133.655121,73.314041 138.768600,73.314041 
	C138.920395,74.296829 139.102905,75.478455 139.269302,76.555794 
	C143.656570,75.034241 147.766724,73.265930 152.054993,72.247818 
	C154.705231,71.618614 157.626541,72.131187 160.855591,72.131187 
	C160.245377,76.812180 159.638031,81.471199 159.010864,86.282295 
	C156.914154,86.460335 155.117523,86.619446 153.319763,86.764427 
	C143.704727,87.539833 139.811569,91.737671 139.766586,101.515144 
	C139.723862,110.801590 139.757385,120.088379 139.757385,129.796127 
	C134.470322,129.796127 129.459335,129.796127 123.994698,129.796127 
	C123.994698,122.042862 123.994698,114.271416 123.994698,105.999985 
z"/>
<path fill="#F4F4F4" opacity="1.000000" stroke="none" 
	d="
M184.007050,118.983231 
	C184.007050,122.936607 184.007050,126.392311 184.007050,129.940308 
	C178.586395,129.940308 173.663025,129.940308 168.463135,129.940308 
	C168.463135,110.972031 168.463135,92.239227 168.463135,73.249191 
	C173.531769,73.249191 178.459549,73.249191 184.007050,73.249191 
	C184.007050,88.296997 184.007050,103.391281 184.007050,118.983231 
z"/>
<path fill="#F3F3F3" opacity="1.000000" stroke="none" 
	d="
M182.626526,60.700958 
	C176.129852,64.125221 171.607315,63.573242 167.997238,59.188034 
	C165.191254,55.779545 165.066513,50.700161 167.703079,47.209007 
	C171.209946,42.565453 177.855453,41.630814 182.311844,45.154400 
	C187.118912,48.955238 187.365982,55.020245 182.626526,60.700958 
z"/>
<path fill="#2A2A2A" opacity="1.000000" stroke="none" 
	d="
M213.239014,110.482719 
	C209.570435,103.199684 210.118896,96.600616 215.164978,90.664764 
	C219.279922,85.824265 224.749527,84.905029 230.618668,86.539360 
	C237.246460,88.384949 241.458023,94.291580 241.670670,101.517822 
	C241.867844,108.218445 237.703888,114.688652 231.781372,116.884346 
	C224.851746,119.453423 218.723984,117.427727 213.239014,110.482719 
z"/>
<path fill="#2A2A2A" opacity="1.000000" stroke="none" 
	d="
M294.089417,117.969276 
	C285.447510,117.533607 280.663788,111.735840 278.579742,105.241127 
	C277.391052,101.536560 279.983002,95.665527 282.594727,91.995522 
	C284.695404,89.043602 289.194061,86.911491 292.961670,86.213921 
	C301.240356,84.681122 308.092255,90.498955 309.770935,99.334793 
	C311.257141,107.157684 306.093353,115.353241 298.413940,117.296967 
	C297.133301,117.621117 295.806488,117.762817 294.089417,117.969276 
z"/>
<path fill="#2F2F2F" opacity="1.000000" stroke="none" 
	d="
M379.156799,94.430092 
	C377.217285,94.430099 375.755280,94.430099 374.252563,94.430099 
	C374.801147,88.596436 378.786865,84.816917 384.722870,84.086510 
	C390.194489,83.413254 394.802673,87.025742 397.007599,94.430084 
	C391.051727,94.430084 385.342987,94.430084 379.156799,94.430092 
z"/>
</svg>