<svg version="1.1" id="Layer_1" xmlns="http://www.w3.org/2000/svg" xmlns:xlink="http://www.w3.org/1999/xlink" x="0px" y="0px"
	 width="100%" viewBox="0 0 980 440" enable-background="new 0 0 980 440" xml:space="preserve">
<path fill="#13095F" opacity="1.000000" stroke="none" 
	d="
M609.000000,441.000000 
	C406.000000,441.000000 203.500000,441.000000 1.000000,441.000000 
	C1.000000,294.333344 1.000000,147.666672 1.000000,1.000000 
	C327.666656,1.000000 654.333313,1.000000 981.000000,1.000000 
	C981.000000,147.666672 981.000000,294.333344 981.000000,441.000000 
	C857.166687,441.000000 733.333313,441.000000 609.000000,441.000000 
M180.825165,197.354691 
	C180.853149,197.400833 180.910080,197.483643 180.904892,197.487732 
	C180.787735,197.580200 180.663742,197.664001 181.131546,196.969666 
	C179.445404,188.913040 176.163422,180.453995 186.577148,175.441620 
	C186.742096,175.362213 186.695404,174.843079 186.871613,173.781021 
	C175.984894,175.217468 171.592163,168.436066 168.762436,159.379822 
	C167.616913,162.924545 166.471405,166.469254 165.261597,170.212921 
	C160.820389,169.530014 156.607788,168.882248 151.307083,168.067154 
	C154.008682,171.060928 155.898117,173.567459 158.200500,175.608047 
	C161.546814,178.573883 162.779083,181.737869 161.068817,186.106598 
	C160.116226,188.539932 159.901535,191.262146 159.251205,194.342499 
	C163.572891,192.279297 167.407562,188.830688 170.532043,189.385010 
	C174.077026,190.013931 176.991730,194.219940 180.160141,196.894882 
	C180.383560,197.083496 180.439758,197.470215 180.825165,197.354691 
M270.101929,108.438622 
	C270.241852,108.339226 270.381805,108.239838 270.521729,108.140457 
	C270.290924,108.166595 270.060150,108.192734 270.227783,107.455147 
	C269.945557,106.328712 269.699158,105.191872 269.375427,104.077499 
	C266.917297,95.615868 269.320312,91.888885 278.220154,91.914200 
	C296.515350,91.966232 314.810822,92.418839 333.102417,92.861542 
	C337.263641,92.962250 341.409576,93.693489 345.562561,94.134506 
	C345.636383,93.724335 345.710236,93.314156 345.784058,92.903984 
	C329.238983,85.240158 312.078064,78.919174 293.725830,78.204956 
	C271.103790,77.324585 248.421265,77.946350 225.765381,78.039940 
	C221.798416,78.056328 217.781723,78.369774 213.876450,79.052284 
	C180.345093,84.912415 151.473145,99.662506 128.562836,125.064079 
	C108.244484,147.591843 97.760727,173.794800 101.023132,204.578598 
	C101.831985,212.210907 103.551010,219.659470 107.440262,227.796127 
	C107.842735,223.914551 107.883644,221.393570 108.388405,218.969147 
	C116.712654,178.987305 137.666382,147.368027 171.373047,124.274078 
	C172.384735,123.580925 174.500183,123.052849 175.121552,123.587067 
	C175.975906,124.321594 176.338776,126.219109 176.126266,127.486572 
	C175.598724,130.633087 174.625565,133.704895 173.831375,136.806702 
	C173.944931,137.288193 174.058487,137.769699 174.172043,138.251205 
	C182.713699,129.624313 188.112961,135.276199 193.469528,141.129410 
	C193.581406,141.251663 193.716904,141.352280 193.692764,141.288422 
	C193.692764,141.288422 193.910568,141.231659 193.910568,141.231659 
	C193.910568,141.231659 193.637695,141.400986 194.137070,140.650055 
	C192.609253,133.854935 189.134506,126.582253 198.604691,122.472313 
	C198.761841,122.404106 198.720367,121.878204 198.698746,122.010063 
	C194.339447,120.053085 190.090561,118.145668 184.524460,115.646927 
	C192.688568,112.072731 199.248062,108.876663 206.047043,106.316734 
	C212.697754,103.812622 219.848328,98.677353 226.130997,107.705017 
	C225.591354,105.261009 225.051727,102.816994 224.414001,99.928741 
	C234.740829,97.845276 244.736374,95.828636 255.364166,93.684448 
	C254.846176,97.857338 254.435135,101.168571 253.997894,104.690910 
	C261.851868,101.675529 261.846832,101.681450 268.257507,107.128632 
	C268.737183,107.536224 269.361542,107.773544 270.101929,108.438622 
M412.388428,258.846680 
	C393.175995,285.021118 367.336029,301.886475 335.920044,313.646240 
	C338.095123,309.436676 339.567780,306.586578 341.699127,302.461609 
	C331.220490,306.014343 330.400818,298.446259 328.105408,292.532440 
	C327.652985,291.366821 327.045166,290.261536 326.179016,288.430969 
	C325.364990,293.414825 324.681915,297.596985 323.997040,301.790161 
	C320.726685,301.790161 318.156616,301.790161 314.843933,301.790161 
	C317.676971,305.204102 320.182281,308.038452 322.476074,311.034698 
	C325.251709,314.660278 324.397003,317.001617 320.064697,318.208069 
	C317.572632,318.902069 315.087494,319.621002 312.278656,320.419861 
	C316.713257,333.715912 320.990356,346.539673 325.497437,360.053009 
	C318.220398,357.080444 312.097137,353.836212 305.572205,352.112762 
	C298.350250,350.205231 295.008179,345.878601 293.371887,339.048584 
	C292.433777,335.132599 292.537811,331.982666 295.472504,328.975708 
	C297.080475,327.328186 298.181732,325.186127 299.957092,322.623901 
	C295.191803,322.326019 291.615631,322.102478 288.339630,321.897675 
	C286.403473,317.111725 284.634674,312.739441 282.363068,307.124207 
	C281.503906,313.035278 280.864899,317.431824 280.181000,322.137085 
	C276.083160,322.137085 272.376312,322.137085 267.835175,322.137085 
	C270.422241,325.129395 272.200989,327.798950 274.560211,329.775696 
	C278.337799,332.940826 279.547852,336.396057 277.017151,341.457031 
	C259.559143,335.099854 242.034683,328.718475 223.705505,322.044098 
	C226.625000,319.515106 228.830231,317.604828 231.073578,315.661530 
	C234.778442,318.946930 238.173340,321.957458 241.568253,324.968018 
	C241.275955,320.247223 240.276810,316.070740 238.980743,311.988525 
	C238.105713,309.232513 238.141800,307.247437 240.711929,305.168243 
	C242.992920,303.322968 244.523056,300.549591 247.324844,296.992096 
	C243.776749,296.992096 241.976013,296.855865 240.202850,297.019165 
	C235.900726,297.415436 233.327408,295.883606 232.487305,291.354858 
	C231.845917,287.897369 230.564804,284.558594 229.568283,281.166992 
	C229.200333,281.123291 228.832382,281.079559 228.464432,281.035828 
	C227.190033,285.892914 225.915619,290.749969 224.658752,295.540222 
	C220.635223,295.540222 216.896423,295.540222 213.157623,295.540222 
	C212.866089,295.913879 212.574554,296.287567 212.283020,296.661224 
	C215.023727,299.313232 217.874756,301.863678 220.453079,304.665131 
	C221.549011,305.855896 222.810028,307.620819 222.716568,309.040619 
	C222.461136,312.921417 221.525513,316.757446 220.837875,320.734985 
	C198.678070,312.127472 177.528885,302.442078 158.034698,289.565338 
	C135.971802,274.991821 117.370079,257.267578 108.084137,231.597672 
	C107.984619,231.322556 107.572960,231.160355 107.002487,230.699371 
	C107.374130,252.246429 114.342712,271.218567 125.480812,288.833954 
	C144.664032,319.173035 172.662521,338.541229 205.213028,351.857758 
	C216.842438,356.615448 229.065308,359.922455 241.571091,364.075500 
	C236.797745,378.408844 231.900223,393.115021 226.649429,408.882019 
	C237.131714,404.615875 246.386536,400.577850 255.832886,397.053162 
	C291.002197,383.930725 326.464966,371.560913 361.373566,357.783630 
	C391.861877,345.750916 419.999146,329.425781 444.325806,306.993439 
	C487.058960,267.587952 490.192749,205.514908 455.446655,160.031845 
	C431.037628,128.080185 397.849365,109.395523 359.943085,98.139381 
	C359.172272,97.910484 358.274017,98.110657 357.435211,98.110657 
	C369.757690,105.766365 382.152710,113.101822 392.721558,122.492538 
	C435.751404,160.725845 443.049713,212.075485 412.388428,258.846680 
M781.034241,203.552063 
	C776.150146,191.944626 767.133301,185.293930 754.993591,183.573410 
	C740.654724,181.541214 726.467773,183.102707 712.715942,187.917862 
	C708.742554,189.309128 707.101196,191.864594 707.173706,196.210236 
	C707.390381,209.192978 707.250732,222.181641 707.250549,235.167999 
	C707.250305,254.814026 707.190125,274.460571 707.355225,294.105194 
	C707.369690,295.829987 708.770142,298.974091 709.680481,299.031738 
	C716.371521,299.455261 723.101685,299.260498 730.266541,299.260498 
	C730.266541,288.039734 730.266541,277.637573 730.266541,267.227722 
	C735.681641,267.748230 740.623840,268.398987 745.586731,268.668304 
	C762.371826,269.579102 775.338928,261.765839 781.092224,246.774475 
	C786.481201,232.732498 786.098206,218.467667 781.034241,203.552063 
M811.123169,186.555344 
	C801.999390,189.402756 801.767700,189.707611 801.767517,198.930756 
	C801.766846,230.245621 801.767151,261.560486 801.767151,292.875336 
	C801.767151,294.834473 801.767151,296.793579 801.767151,299.545227 
	C807.849365,299.545227 813.319397,299.357483 818.769775,299.604248 
	C823.180115,299.803955 824.976379,298.444183 824.771179,293.677551 
	C824.393555,284.907501 824.663330,276.109589 824.663330,267.239838 
	C829.961182,267.751587 834.722778,268.359528 839.503540,268.647400 
	C858.800537,269.809204 872.529053,259.712250 877.304077,241.003845 
	C879.867065,230.962128 879.796387,220.864960 877.590576,210.825287 
	C873.818359,193.656158 861.602661,183.089386 844.019897,183.133652 
	C833.299683,183.160645 822.584290,185.146851 811.123169,186.555344 
M579.793518,197.152573 
	C574.901245,213.501175 570.009033,229.849762 565.116760,246.198364 
	C563.810852,244.551880 563.382385,243.123764 562.988037,241.686264 
	C558.239624,224.378540 553.552551,207.053497 548.668579,189.784164 
	C548.152771,187.960144 546.569336,185.108261 545.341431,185.033615 
	C537.976440,184.586029 530.570496,184.811630 522.573669,184.811630 
	C523.203918,187.219528 523.548279,188.962967 524.113831,190.631439 
	C531.207153,211.555939 538.493652,232.416931 545.357849,253.416046 
	C547.606750,260.295929 549.926941,266.167511 558.890869,264.105194 
	C557.306702,277.141479 553.097351,281.790527 543.225830,281.979156 
	C539.612976,282.048218 534.678162,280.865143 532.735107,282.735199 
	C530.445129,284.939178 530.746582,289.835846 529.924805,293.565063 
	C529.817444,294.052460 529.492310,294.628754 529.646179,295.012054 
	C530.176453,296.332855 530.543701,298.277771 531.557617,298.762695 
	C549.539734,307.362640 569.650818,298.979614 576.040161,280.168274 
	C585.817322,251.382614 595.429565,222.540894 605.099548,193.718903 
	C606.022766,190.967331 606.859375,188.186722 608.080933,184.331497 
	C603.582153,184.331497 599.990784,184.331512 596.399414,184.331497 
	C583.695984,184.331482 583.695984,184.331482 579.793518,197.152573 
M683.597717,231.713470 
	C688.617920,230.171341 690.616272,226.378540 690.924316,221.522079 
	C691.113586,218.536896 691.200195,215.499878 690.878784,212.535370 
	C689.417358,199.055099 683.497925,188.674042 669.791931,184.558548 
	C665.231201,183.189102 660.316040,182.719833 655.527649,182.438034 
	C637.272888,181.363663 622.813171,191.804047 617.806763,209.400238 
	C614.535583,220.897858 614.803040,232.431198 617.603394,243.956436 
	C620.225037,254.745636 626.431030,262.560150 637.154480,266.077209 
	C652.028198,270.955536 666.671509,269.826294 680.974731,263.598602 
	C684.908630,261.885773 686.242493,259.373779 683.848389,255.373901 
	C682.746155,253.532440 681.793701,251.529678 681.188477,249.477631 
	C680.027649,245.541214 678.053406,245.233978 674.155884,246.193466 
	C667.640991,247.797302 660.829224,249.110062 654.169312,248.994247 
	C644.356262,248.823593 639.672668,242.986847 639.411743,231.908920 
	C653.871826,231.908920 668.319824,231.908920 683.597717,231.713470 
M188.689453,236.878799 
	C187.511490,233.333328 186.333527,229.787857 184.801331,225.176163 
	C183.165741,230.537704 181.892609,234.711105 180.645447,238.799408 
	C175.778595,238.367859 171.297775,237.970535 165.606796,237.465897 
	C169.061829,241.203873 171.401321,244.008743 174.033661,246.504776 
	C176.593506,248.932068 177.534058,251.357468 176.321243,254.916641 
	C175.156387,258.335144 174.765427,262.017334 173.855133,266.458160 
	C176.562302,264.678558 178.350784,263.494751 180.147675,262.323853 
	C182.058365,261.078857 183.977051,259.846161 185.912354,258.595093 
	C187.867050,260.271332 189.499878,261.666901 191.127457,263.068573 
	C192.835968,264.539978 194.539459,266.017212 197.424454,268.511475 
	C196.286026,263.645264 195.933594,260.154053 194.634476,257.060425 
	C192.781158,252.646988 194.330948,249.878540 197.708878,247.254715 
	C199.560135,245.816772 201.057541,243.923294 203.278702,241.660431 
	C198.954315,241.120483 195.648544,240.914413 192.453293,240.208267 
	C191.153580,239.921021 190.094025,238.547073 188.689453,236.878799 
M362.908813,278.548492 
	C359.437958,272.441498 359.088104,266.558990 365.113220,260.542755 
	C354.502960,262.847473 353.566864,254.525604 350.202057,247.601715 
	C349.889923,251.948441 349.678223,254.896835 349.437592,258.247711 
	C346.291382,258.247711 343.464966,258.247711 338.968842,258.247711 
	C348.037109,264.388336 350.914795,271.693665 347.649261,281.191589 
	C348.210083,281.336487 348.770874,281.481384 349.331696,281.626251 
	C350.920715,279.178986 352.509705,276.731750 354.127991,274.239380 
	C357.248199,276.938629 359.065094,278.623596 361.038574,280.099091 
	C361.344788,280.328033 362.367432,279.598755 362.908813,278.548492 
M352.454407,221.730469 
	C353.989746,219.994110 355.418121,219.282516 357.215118,221.594559 
	C358.316833,223.012085 359.878143,224.072418 361.233093,225.293152 
	C361.297455,221.564560 359.441284,218.545288 359.681519,215.703262 
	C359.919495,212.887390 362.271027,210.250168 364.028320,206.900238 
	C354.271576,209.000290 353.973358,200.470413 350.254242,194.568665 
	C349.921844,198.339066 349.682770,201.050903 349.411530,204.127243 
	C346.484131,203.801544 343.870239,203.510727 341.059204,203.197968 
	C341.252960,203.697174 349.170471,224.095718 349.273102,224.360123 
	C350.201965,223.591354 351.063171,222.878540 352.454407,221.730469 
M331.842224,149.389420 
	C331.500000,150.626572 331.157776,151.863708 330.793701,153.179916 
	C328.165833,152.826431 325.833405,152.512695 322.022705,152.000107 
	C328.539520,157.906769 332.853394,163.536011 330.747711,171.891342 
	C332.562622,170.554260 334.377533,169.217178 336.187225,167.883957 
	C338.872437,170.221741 341.391571,172.414932 343.910706,174.608109 
	C342.619263,168.613495 338.173584,162.887405 346.231323,157.115143 
	C335.931763,158.828247 336.254333,149.890732 332.188202,144.567566 
	C332.049896,146.609222 331.982635,147.602432 331.842224,149.389420 
M310.536591,123.818619 
	C307.437317,119.110016 313.928528,118.607506 314.366547,114.808876 
	C305.466705,115.465538 304.338623,107.969444 301.343384,101.239311 
	C300.632568,105.085503 300.122162,107.847168 299.530548,111.048431 
	C297.336395,111.048431 295.182678,111.048431 293.028931,111.048431 
	C299.753174,115.329498 299.033325,121.480278 297.540009,128.283112 
	C300.448303,126.806770 302.614349,125.707237 304.780365,124.607704 
	C305.262329,124.240646 305.744293,123.873589 306.226288,123.506531 
	C307.867065,126.071068 309.507843,128.635620 311.148621,131.200165 
	C311.512512,130.894531 311.876373,130.588898 312.240265,130.283264 
	C311.766174,128.377853 311.292114,126.472435 310.536591,123.818619 
z"/>
<path fill="#FDFDFE" opacity="1.000000" stroke="none" 
	d="
M412.607208,258.557556 
	C443.049713,212.075485 435.751404,160.725845 392.721558,122.492538 
	C382.152710,113.101822 369.757690,105.766365 357.435211,98.110657 
	C358.274017,98.110657 359.172272,97.910484 359.943085,98.139381 
	C397.849365,109.395523 431.037628,128.080185 455.446655,160.031845 
	C490.192749,205.514908 487.058960,267.587952 444.325806,306.993439 
	C419.999146,329.425781 391.861877,345.750916 361.373566,357.783630 
	C326.464966,371.560913 291.002197,383.930725 255.832886,397.053162 
	C246.386536,400.577850 237.131714,404.615875 226.649429,408.882019 
	C231.900223,393.115021 236.797745,378.408844 241.571091,364.075500 
	C229.065308,359.922455 216.842438,356.615448 205.213028,351.857758 
	C172.662521,338.541229 144.664032,319.173035 125.480812,288.833954 
	C114.342712,271.218567 107.374130,252.246429 107.002487,230.699371 
	C107.572960,231.160355 107.984619,231.322556 108.084137,231.597672 
	C117.370079,257.267578 135.971802,274.991821 158.034698,289.565338 
	C177.528885,302.442078 198.678070,312.127472 220.837875,320.734985 
	C221.525513,316.757446 222.461136,312.921417 222.716568,309.040619 
	C222.810028,307.620819 221.549011,305.855896 220.453079,304.665131 
	C217.874756,301.863678 215.023727,299.313232 212.283020,296.661224 
	C212.574554,296.287567 212.866089,295.913879 213.157623,295.540222 
	C216.896423,295.540222 220.635223,295.540222 224.658752,295.540222 
	C225.915619,290.749969 227.190033,285.892914 228.464432,281.035828 
	C228.832382,281.079559 229.200333,281.123291 229.568283,281.166992 
	C230.564804,284.558594 231.845917,287.897369 232.487305,291.354858 
	C233.327408,295.883606 235.900726,297.415436 240.202850,297.019165 
	C241.976013,296.855865 243.776749,296.992096 247.324844,296.992096 
	C244.523056,300.549591 242.992920,303.322968 240.711929,305.168243 
	C238.141800,307.247437 238.105713,309.232513 238.980743,311.988525 
	C240.276810,316.070740 241.275955,320.247223 241.568253,324.968018 
	C238.173340,321.957458 234.778442,318.946930 231.073578,315.661530 
	C228.830231,317.604828 226.625000,319.515106 223.705505,322.044098 
	C242.034683,328.718475 259.559143,335.099854 277.017151,341.457031 
	C279.547852,336.396057 278.337799,332.940826 274.560211,329.775696 
	C272.200989,327.798950 270.422241,325.129395 267.835175,322.137085 
	C272.376312,322.137085 276.083160,322.137085 280.181000,322.137085 
	C280.864899,317.431824 281.503906,313.035278 282.363068,307.124207 
	C284.634674,312.739441 286.403473,317.111725 288.339630,321.897675 
	C291.615631,322.102478 295.191803,322.326019 299.957092,322.623901 
	C298.181732,325.186127 297.080475,327.328186 295.472504,328.975708 
	C292.537811,331.982666 292.433777,335.132599 293.371887,339.048584 
	C295.008179,345.878601 298.350250,350.205231 305.572205,352.112762 
	C312.097137,353.836212 318.220398,357.080444 325.497437,360.053009 
	C320.990356,346.539673 316.713257,333.715912 312.278656,320.419861 
	C315.087494,319.621002 317.572632,318.902069 320.064697,318.208069 
	C324.397003,317.001617 325.251709,314.660278 322.476074,311.034698 
	C320.182281,308.038452 317.676971,305.204102 314.843933,301.790161 
	C318.156616,301.790161 320.726685,301.790161 323.997040,301.790161 
	C324.681915,297.596985 325.364990,293.414825 326.179016,288.430969 
	C327.045166,290.261536 327.652985,291.366821 328.105408,292.532440 
	C330.400818,298.446259 331.220490,306.014343 341.699127,302.461609 
	C339.567780,306.586578 338.095123,309.436676 335.920044,313.646240 
	C367.336029,301.886475 393.175995,285.021118 412.607208,258.557556 
z"/>
<path fill="#FCFCFD" opacity="1.000000" stroke="none" 
	d="
M193.841385,141.462997 
	C193.716904,141.352280 193.581406,141.251663 193.469528,141.129410 
	C188.112961,135.276199 182.713699,129.624313 174.172043,138.251205 
	C174.058487,137.769699 173.944931,137.288193 173.831375,136.806702 
	C174.625565,133.704895 175.598724,130.633087 176.126266,127.486572 
	C176.338776,126.219109 175.975906,124.321594 175.121552,123.587067 
	C174.500183,123.052849 172.384735,123.580925 171.373047,124.274078 
	C137.666382,147.368027 116.712654,178.987305 108.388405,218.969147 
	C107.883644,221.393570 107.842735,223.914551 107.440262,227.796127 
	C103.551010,219.659470 101.831985,212.210907 101.023132,204.578598 
	C97.760727,173.794800 108.244484,147.591843 128.562836,125.064079 
	C151.473145,99.662506 180.345093,84.912415 213.876450,79.052284 
	C217.781723,78.369774 221.798416,78.056328 225.765381,78.039940 
	C248.421265,77.946350 271.103790,77.324585 293.725830,78.204956 
	C312.078064,78.919174 329.238983,85.240158 345.784058,92.903984 
	C345.710236,93.314156 345.636383,93.724335 345.562561,94.134506 
	C341.409576,93.693489 337.263641,92.962250 333.102417,92.861542 
	C314.810822,92.418839 296.515350,91.966232 278.220154,91.914200 
	C269.320312,91.888885 266.917297,95.615868 269.375427,104.077499 
	C269.699158,105.191872 269.945557,106.328712 270.049927,107.804123 
	C269.872070,108.153099 269.918640,108.090019 269.918640,108.090019 
	C269.361542,107.773544 268.737183,107.536224 268.257507,107.128632 
	C261.846832,101.681450 261.851868,101.675529 253.997894,104.690910 
	C254.435135,101.168571 254.846176,97.857338 255.364166,93.684448 
	C244.736374,95.828636 234.740829,97.845276 224.414001,99.928741 
	C225.051727,102.816994 225.591354,105.261009 226.130997,107.705017 
	C219.848328,98.677353 212.697754,103.812622 206.047043,106.316734 
	C199.248062,108.876663 192.688568,112.072731 184.524460,115.646927 
	C190.090561,118.145668 194.339447,120.053085 198.698746,122.010063 
	C198.720367,121.878204 198.761841,122.404106 198.604691,122.472313 
	C189.134506,126.582253 192.609253,133.854935 193.951874,140.996460 
	C193.766663,141.342880 193.841385,141.462997 193.841385,141.462997 
z"/>
<path fill="#FCFBFD" opacity="1.000000" stroke="none" 
	d="
M781.166504,203.914825 
	C786.098206,218.467667 786.481201,232.732498 781.092224,246.774475 
	C775.338928,261.765839 762.371826,269.579102 745.586731,268.668304 
	C740.623840,268.398987 735.681641,267.748230 730.266541,267.227722 
	C730.266541,277.637573 730.266541,288.039734 730.266541,299.260498 
	C723.101685,299.260498 716.371521,299.455261 709.680481,299.031738 
	C708.770142,298.974091 707.369690,295.829987 707.355225,294.105194 
	C707.190125,274.460571 707.250305,254.814026 707.250549,235.167999 
	C707.250732,222.181641 707.390381,209.192978 707.173706,196.210236 
	C707.101196,191.864594 708.742554,189.309128 712.715942,187.917862 
	C726.467773,183.102707 740.654724,181.541214 754.993591,183.573410 
	C767.133301,185.293930 776.150146,191.944626 781.166504,203.914825 
M756.581055,207.997101 
	C748.854797,199.864777 739.613525,202.681839 730.470642,204.024811 
	C730.470642,218.619553 730.470642,232.845032 730.470642,247.906601 
	C735.802979,248.221161 740.923462,249.025940 745.967773,248.689163 
	C751.820068,248.298477 756.626831,245.059540 758.576416,239.457809 
	C762.184753,229.089966 762.565491,218.633575 756.581055,207.997101 
z"/>
<path fill="#FCFCFD" opacity="1.000000" stroke="none" 
	d="
M811.494995,186.404205 
	C822.584290,185.146851 833.299683,183.160645 844.019897,183.133652 
	C861.602661,183.089386 873.818359,193.656158 877.590576,210.825287 
	C879.796387,220.864960 879.867065,230.962128 877.304077,241.003845 
	C872.529053,259.712250 858.800537,269.809204 839.503540,268.647400 
	C834.722778,268.359528 829.961182,267.751587 824.663330,267.239838 
	C824.663330,276.109589 824.393555,284.907501 824.771179,293.677551 
	C824.976379,298.444183 823.180115,299.803955 818.769775,299.604248 
	C813.319397,299.357483 807.849365,299.545227 801.767151,299.545227 
	C801.767151,296.793579 801.767151,294.834473 801.767151,292.875336 
	C801.767151,261.560486 801.766846,230.245621 801.767517,198.930756 
	C801.767700,189.707611 801.999390,189.402756 811.494995,186.404205 
M824.657410,220.501434 
	C824.657410,226.324417 824.657410,232.147415 824.657471,237.970398 
	C824.657471,248.610870 824.657471,248.610870 835.650330,248.929214 
	C845.050964,249.201447 852.393433,245.241425 853.605652,237.322021 
	C854.787476,229.601318 854.504639,221.495010 853.677185,213.683807 
	C853.106812,208.299225 848.942993,204.085876 843.454102,203.351562 
	C837.383240,202.539398 831.119934,203.165970 824.657349,203.165970 
	C824.657349,209.563690 824.657349,214.533249 824.657410,220.501434 
z"/>
<path fill="#FCFCFD" opacity="1.000000" stroke="none" 
	d="
M579.883301,196.759949 
	C583.695984,184.331482 583.695984,184.331482 596.399414,184.331497 
	C599.990784,184.331512 603.582153,184.331497 608.080933,184.331497 
	C606.859375,188.186722 606.022766,190.967331 605.099548,193.718903 
	C595.429565,222.540894 585.817322,251.382614 576.040161,280.168274 
	C569.650818,298.979614 549.539734,307.362640 531.557617,298.762695 
	C530.543701,298.277771 530.176453,296.332855 529.646179,295.012054 
	C529.492310,294.628754 529.817444,294.052460 529.924805,293.565063 
	C530.746582,289.835846 530.445129,284.939178 532.735107,282.735199 
	C534.678162,280.865143 539.612976,282.048218 543.225830,281.979156 
	C553.097351,281.790527 557.306702,277.141479 558.890869,264.105194 
	C549.926941,266.167511 547.606750,260.295929 545.357849,253.416046 
	C538.493652,232.416931 531.207153,211.555939 524.113831,190.631439 
	C523.548279,188.962967 523.203918,187.219528 522.573669,184.811630 
	C530.570496,184.811630 537.976440,184.586029 545.341431,185.033615 
	C546.569336,185.108261 548.152771,187.960144 548.668579,189.784164 
	C553.552551,207.053497 558.239624,224.378540 562.988037,241.686264 
	C563.382385,243.123764 563.810852,244.551880 565.116760,246.198364 
	C570.009033,229.849762 574.901245,213.501175 579.883301,196.759949 
z"/>
<path fill="#FCFCFD" opacity="1.000000" stroke="none" 
	d="
M683.182800,231.811188 
	C668.319824,231.908920 653.871826,231.908920 639.411743,231.908920 
	C639.672668,242.986847 644.356262,248.823593 654.169312,248.994247 
	C660.829224,249.110062 667.640991,247.797302 674.155884,246.193466 
	C678.053406,245.233978 680.027649,245.541214 681.188477,249.477631 
	C681.793701,251.529678 682.746155,253.532440 683.848389,255.373901 
	C686.242493,259.373779 684.908630,261.885773 680.974731,263.598602 
	C666.671509,269.826294 652.028198,270.955536 637.154480,266.077209 
	C626.431030,262.560150 620.225037,254.745636 617.603394,243.956436 
	C614.803040,232.431198 614.535583,220.897858 617.806763,209.400238 
	C622.813171,191.804047 637.272888,181.363663 655.527649,182.438034 
	C660.316040,182.719833 665.231201,183.189102 669.791931,184.558548 
	C683.497925,188.674042 689.417358,199.055099 690.878784,212.535370 
	C691.200195,215.499878 691.113586,218.536896 690.924316,221.522079 
	C690.616272,226.378540 688.617920,230.171341 683.182800,231.811188 
M659.436401,217.650528 
	C662.539917,217.650528 665.643494,217.650528 669.138123,217.650528 
	C668.628784,211.418762 668.126099,205.831116 662.343262,202.980545 
	C657.103882,200.397858 651.595642,200.372513 646.734131,203.885590 
	C642.274414,207.108337 639.995178,211.676315 639.904480,217.650497 
	C646.485962,217.650497 652.470947,217.650497 659.436401,217.650528 
z"/>
<path fill="#F7F7FA" opacity="1.000000" stroke="none" 
	d="
M188.807312,237.273193 
	C190.094025,238.547073 191.153580,239.921021 192.453293,240.208267 
	C195.648544,240.914413 198.954315,241.120483 203.278702,241.660431 
	C201.057541,243.923294 199.560135,245.816772 197.708878,247.254715 
	C194.330948,249.878540 192.781158,252.646988 194.634476,257.060425 
	C195.933594,260.154053 196.286026,263.645264 197.424454,268.511475 
	C194.539459,266.017212 192.835968,264.539978 191.127457,263.068573 
	C189.499878,261.666901 187.867050,260.271332 185.912354,258.595093 
	C183.977051,259.846161 182.058365,261.078857 180.147675,262.323853 
	C178.350784,263.494751 176.562302,264.678558 173.855133,266.458160 
	C174.765427,262.017334 175.156387,258.335144 176.321243,254.916641 
	C177.534058,251.357468 176.593506,248.932068 174.033661,246.504776 
	C171.401321,244.008743 169.061829,241.203873 165.606796,237.465897 
	C171.297775,237.970535 175.778595,238.367859 180.645447,238.799408 
	C181.892609,234.711105 183.165741,230.537704 184.801331,225.176163 
	C186.333527,229.787857 187.511490,233.333328 188.807312,237.273193 
z"/>
<path fill="#F7F7FA" opacity="1.000000" stroke="none" 
	d="
M180.573700,197.764816 
	C180.439758,197.470215 180.383560,197.083496 180.160141,196.894882 
	C176.991730,194.219940 174.077026,190.013931 170.532043,189.385010 
	C167.407562,188.830688 163.572891,192.279297 159.251205,194.342499 
	C159.901535,191.262146 160.116226,188.539932 161.068817,186.106598 
	C162.779083,181.737869 161.546814,178.573883 158.200500,175.608047 
	C155.898117,173.567459 154.008682,171.060928 151.307083,168.067154 
	C156.607788,168.882248 160.820389,169.530014 165.261597,170.212921 
	C166.471405,166.469254 167.616913,162.924545 168.762436,159.379822 
	C171.592163,168.436066 175.984894,175.217468 186.871613,173.781021 
	C186.695404,174.843079 186.742096,175.362213 186.577148,175.441620 
	C176.163422,180.453995 179.445404,188.913040 180.864899,197.317566 
	C180.598251,197.665451 180.573700,197.764816 180.573700,197.764816 
z"/>
<path fill="#F6F5F9" opacity="1.000000" stroke="none" 
	d="
M362.983765,278.930542 
	C362.367432,279.598755 361.344788,280.328033 361.038574,280.099091 
	C359.065094,278.623596 357.248199,276.938629 354.127991,274.239380 
	C352.509705,276.731750 350.920715,279.178986 349.331696,281.626251 
	C348.770874,281.481384 348.210083,281.336487 347.649261,281.191589 
	C350.914795,271.693665 348.037109,264.388336 338.968842,258.247711 
	C343.464966,258.247711 346.291382,258.247711 349.437592,258.247711 
	C349.678223,254.896835 349.889923,251.948441 350.202057,247.601715 
	C353.566864,254.525604 354.502960,262.847473 365.113220,260.542755 
	C359.088104,266.558990 359.437958,272.441498 362.983765,278.930542 
z"/>
<path fill="#F5F5F9" opacity="1.000000" stroke="none" 
	d="
M352.189392,221.948090 
	C351.063171,222.878540 350.201965,223.591354 349.273102,224.360123 
	C349.170471,224.095718 341.252960,203.697174 341.059204,203.197968 
	C343.870239,203.510727 346.484131,203.801544 349.411530,204.127243 
	C349.682770,201.050903 349.921844,198.339066 350.254242,194.568665 
	C353.973358,200.470413 354.271576,209.000290 364.028320,206.900238 
	C362.271027,210.250168 359.919495,212.887390 359.681519,215.703262 
	C359.441284,218.545288 361.297455,221.564560 361.233093,225.293152 
	C359.878143,224.072418 358.316833,223.012085 357.215118,221.594559 
	C355.418121,219.282516 353.989746,219.994110 352.189392,221.948090 
z"/>
<path fill="#F4F4F8" opacity="1.000000" stroke="none" 
	d="
M331.878784,148.992538 
	C331.982635,147.602432 332.049896,146.609222 332.188202,144.567566 
	C336.254333,149.890732 335.931763,158.828247 346.231323,157.115143 
	C338.173584,162.887405 342.619263,168.613495 343.910706,174.608109 
	C341.391571,172.414932 338.872437,170.221741 336.187225,167.883957 
	C334.377533,169.217178 332.562622,170.554260 330.747711,171.891342 
	C332.853394,163.536011 328.539520,157.906769 322.022705,152.000107 
	C325.833405,152.512695 328.165833,152.826431 330.793701,153.179916 
	C331.157776,151.863708 331.500000,150.626572 331.878784,148.992538 
z"/>
<path fill="#F7F7FA" opacity="1.000000" stroke="none" 
	d="
M310.677307,124.192825 
	C311.292114,126.472435 311.766174,128.377853 312.240265,130.283264 
	C311.876373,130.588898 311.512512,130.894531 311.148621,131.200165 
	C309.507843,128.635620 307.867065,126.071068 306.226288,123.506531 
	C305.744293,123.873589 305.262329,124.240646 304.780365,124.607704 
	C302.614349,125.707237 300.448303,126.806770 297.540009,128.283112 
	C299.033325,121.480278 299.753174,115.329498 293.028931,111.048431 
	C295.182678,111.048431 297.336395,111.048431 299.530548,111.048431 
	C300.122162,107.847168 300.632568,105.085503 301.343384,101.239311 
	C304.338623,107.969444 305.466705,115.465538 314.366547,114.808876 
	C313.928528,118.607506 307.437317,119.110016 310.677307,124.192825 
z"/>
<path fill="#FCFCFD" opacity="1.000000" stroke="none" 
	d="
M269.850708,108.185989 
	C270.060150,108.192734 270.290924,108.166595 270.521729,108.140450 
	C270.381805,108.239838 270.241852,108.339226 270.010284,108.264320 
	C269.918640,108.090019 269.872070,108.153099 269.850708,108.185989 
z"/>
<path fill="#FCFCFD" opacity="1.000000" stroke="none" 
	d="
M193.702179,141.371933 
	C193.637695,141.400986 193.910568,141.231659 193.910568,141.231659 
	C193.910568,141.231659 193.692764,141.288422 193.767075,141.375702 
	C193.841385,141.462997 193.766663,141.342880 193.702179,141.371933 
z"/>
<path fill="#F7F7FA" opacity="1.000000" stroke="none" 
	d="
M180.569656,197.707443 
	C180.663742,197.664001 180.787735,197.580200 180.904892,197.487732 
	C180.910080,197.483643 180.853149,197.400833 180.699432,197.559753 
	C180.573700,197.764816 180.598251,197.665451 180.569656,197.707443 
z"/>
<path fill="#170D62" opacity="1.000000" stroke="none" 
	d="
M756.796631,208.302765 
	C762.565491,218.633575 762.184753,229.089966 758.576416,239.457809 
	C756.626831,245.059540 751.820068,248.298477 745.967773,248.689163 
	C740.923462,249.025940 735.802979,248.221161 730.470642,247.906601 
	C730.470642,232.845032 730.470642,218.619553 730.470642,204.024811 
	C739.613525,202.681839 748.854797,199.864777 756.796631,208.302765 
z"/>
<path fill="#150B60" opacity="1.000000" stroke="none" 
	d="
M824.657349,220.002106 
	C824.657349,214.533249 824.657349,209.563690 824.657349,203.165970 
	C831.119934,203.165970 837.383240,202.539398 843.454102,203.351562 
	C848.942993,204.085876 853.106812,208.299225 853.677185,213.683807 
	C854.504639,221.495010 854.787476,229.601318 853.605652,237.322021 
	C852.393433,245.241425 845.050964,249.201447 835.650330,248.929214 
	C824.657471,248.610870 824.657471,248.610870 824.657471,237.970398 
	C824.657410,232.147415 824.657410,226.324417 824.657349,220.002106 
z"/>
<path fill="#1E1566" opacity="1.000000" stroke="none" 
	d="
M658.946167,217.650513 
	C652.470947,217.650497 646.485962,217.650497 639.904480,217.650497 
	C639.995178,211.676315 642.274414,207.108337 646.734131,203.885590 
	C651.595642,200.372513 657.103882,200.397858 662.343262,202.980545 
	C668.126099,205.831116 668.628784,211.418762 669.138123,217.650528 
	C665.643494,217.650528 662.539917,217.650528 658.946167,217.650513 
z"/>
</svg>