<svg version="1.1" id="Layer_1" xmlns="http://www.w3.org/2000/svg" xmlns:xlink="http://www.w3.org/1999/xlink" x="0px" y="0px"
	 width="100%" viewBox="0 0 326 168" enable-background="new 0 0 326 168" xml:space="preserve">
<path fill="#222222" opacity="1.000000" stroke="none" 
	d="
M197.000000,169.000000 
	C131.333344,169.000000 66.166679,169.000000 1.000018,169.000000 
	C1.000012,113.000015 1.000012,57.000031 1.000006,1.000033 
	C109.666634,1.000022 218.333267,1.000022 326.999939,1.000011 
	C326.999939,56.999966 326.999939,112.999931 326.999969,168.999939 
	C283.833344,169.000000 240.666672,169.000000 197.000000,169.000000 
M247.202179,88.499847 
	C247.192917,101.492722 247.116440,114.485992 247.192154,127.478371 
	C247.278076,142.223389 245.267014,139.620743 259.976501,140.121475 
	C264.606567,140.279083 265.669861,138.436905 265.537018,134.343445 
	C265.329010,127.935791 265.481873,121.516434 265.481873,114.816101 
	C270.494507,115.135727 274.788635,115.456062 279.087891,115.674812 
	C291.318787,116.297112 300.291962,110.638268 305.115692,99.426926 
	C310.283905,87.414970 309.718475,75.418983 304.950256,63.506401 
	C302.176697,56.577076 297.004303,51.818584 289.755646,50.237907 
	C277.373993,47.537895 265.003510,47.819508 252.836288,51.931499 
	C248.803864,53.294281 246.994354,55.631153 247.106781,60.016613 
	C247.341492,69.172485 247.192657,78.338181 247.202179,88.499847 
M200.520737,48.014626 
	C193.513382,49.297142 186.491470,50.505951 179.503693,51.887508 
	C174.664169,52.844337 172.873825,55.865726 172.915878,60.863369 
	C173.102280,83.017250 172.996613,105.173592 172.996613,127.329041 
	C172.996613,140.073746 173.003830,139.806702 185.566620,140.146652 
	C190.531464,140.280991 191.472519,138.316589 191.323730,134.076019 
	C191.103607,127.802376 191.266830,121.515274 191.266830,114.856758 
	C195.865189,115.188095 199.838913,115.459076 203.810074,115.763443 
	C215.983780,116.696465 226.195251,110.749924 230.944305,99.504242 
	C235.463547,88.802750 235.421829,77.746300 231.999634,66.796844 
	C228.928131,56.969402 222.111588,50.965752 211.868011,49.207516 
	C208.431961,48.617741 204.923813,48.447960 200.520737,48.014626 
M51.517647,124.219887 
	C47.640972,124.687149 43.746231,125.044067 39.896244,125.674332 
	C38.287128,125.937759 35.643093,126.498337 35.413895,127.411713 
	C34.484097,131.116974 34.242447,135.007126 33.978554,138.845001 
	C33.956501,139.165726 35.629955,139.734909 36.570404,139.960587 
	C38.183865,140.347778 39.833679,140.605240 41.480152,140.829727 
	C57.952316,143.075348 65.654610,138.306625 70.936615,122.602989 
	C77.017609,104.523926 83.095367,86.443764 89.166016,68.361229 
	C91.179260,62.364395 93.166153,56.358719 95.374680,49.727825 
	C90.360863,49.727825 86.205360,49.956821 82.086151,49.668091 
	C77.268456,49.330402 75.058952,51.263088 73.771507,55.992317 
	C70.052109,69.654976 65.791687,83.170349 61.293999,98.251366 
	C60.186146,94.970772 59.483768,93.167343 58.965862,91.312424 
	C55.579247,79.182907 52.312267,67.019012 48.787659,54.930061 
	C48.253365,53.097488 46.702770,50.286217 45.416210,50.167881 
	C39.734234,49.645271 33.976902,49.941925 27.566423,49.941925 
	C28.360395,52.526920 28.839436,54.247410 29.414885,55.935032 
	C34.710701,71.466019 40.100254,86.965637 45.289566,102.532043 
	C47.136272,108.071609 48.516541,113.761360 57.246685,112.484955 
	C55.220631,116.925026 53.670731,120.321609 51.517647,124.219887 
M160.567139,77.113518 
	C160.594086,60.066208 153.784607,50.590782 138.312164,48.511093 
	C118.679466,45.872208 108.598579,52.982422 103.016167,68.718666 
	C99.142029,79.639473 100.451080,90.376144 104.280533,100.969887 
	C106.437447,106.936737 110.615501,111.006531 116.595856,113.233727 
	C127.879593,117.436028 139.092209,117.140053 150.228607,112.732430 
	C156.772385,110.142494 157.071213,109.234558 153.806061,102.897202 
	C153.503769,102.310493 152.978226,101.805893 152.801880,101.192566 
	C151.675903,97.276466 149.368561,97.802673 146.001755,98.467056 
	C140.393280,99.573799 134.511871,100.304642 128.850327,99.859428 
	C122.881149,99.390038 119.583595,93.595673 120.699364,87.130882 
	C130.100723,87.130882 139.579300,87.013870 149.053497,87.167389 
	C156.828949,87.293388 159.221909,85.507889 160.567139,77.113518 
z"/>
<path fill="#F8F8F8" opacity="1.000000" stroke="none" 
	d="
M247.201782,87.999847 
	C247.192657,78.338181 247.341492,69.172485 247.106781,60.016613 
	C246.994354,55.631153 248.803864,53.294281 252.836288,51.931499 
	C265.003510,47.819508 277.373993,47.537895 289.755646,50.237907 
	C297.004303,51.818584 302.176697,56.577076 304.950256,63.506401 
	C309.718475,75.418983 310.283905,87.414970 305.115692,99.426926 
	C300.291962,110.638268 291.318787,116.297112 279.087891,115.674812 
	C274.788635,115.456062 270.494507,115.135727 265.481873,114.816101 
	C265.481873,121.516434 265.329010,127.935791 265.537018,134.343445 
	C265.669861,138.436905 264.606567,140.279083 259.976501,140.121475 
	C245.267014,139.620743 247.278076,142.223389 247.192154,127.478371 
	C247.116440,114.485992 247.192917,101.492722 247.201782,87.999847 
M264.983978,83.495819 
	C264.978943,85.487305 264.974091,87.478783 264.968811,89.470268 
	C264.938354,100.930840 264.938324,100.930878 276.490051,100.654984 
	C276.655914,100.651024 276.821838,100.644447 276.987457,100.634857 
	C284.053192,100.225578 288.353333,96.330826 288.976654,89.195244 
	C289.378082,84.600052 289.455841,79.931786 289.156494,75.330246 
	C288.659637,67.693626 284.790649,63.971329 277.136963,63.542736 
	C274.177795,63.377026 271.080872,63.444679 268.250092,64.184387 
	C266.902985,64.536392 265.210114,66.645752 265.095978,68.072792 
	C264.713531,72.853867 264.972046,77.686203 264.983978,83.495819 
z"/>
<path fill="#FAFAFA" opacity="1.000000" stroke="none" 
	d="
M200.984680,48.050415 
	C204.923813,48.447960 208.431961,48.617741 211.868011,49.207516 
	C222.111588,50.965752 228.928131,56.969402 231.999634,66.796844 
	C235.421829,77.746300 235.463547,88.802750 230.944305,99.504242 
	C226.195251,110.749924 215.983780,116.696465 203.810074,115.763443 
	C199.838913,115.459076 195.865189,115.188095 191.266830,114.856758 
	C191.266830,121.515274 191.103607,127.802376 191.323730,134.076019 
	C191.472519,138.316589 190.531464,140.280991 185.566620,140.146652 
	C173.003830,139.806702 172.996613,140.073746 172.996613,127.329041 
	C172.996613,105.173592 173.102280,83.017250 172.915878,60.863369 
	C172.873825,55.865726 174.664169,52.844337 179.503693,51.887508 
	C186.491470,50.505951 193.513382,49.297142 200.984680,48.050415 
M210.834656,66.565643 
	C206.116791,62.645042 200.685226,63.239857 195.163269,63.943230 
	C192.185699,64.322502 190.769501,65.484222 190.853409,68.714539 
	C191.034882,75.701988 190.953293,82.697548 190.907593,89.689323 
	C190.827042,102.015671 190.755493,99.314980 201.580933,100.491646 
	C206.054535,100.977905 210.196182,99.541992 212.777451,95.379578 
	C217.637207,87.543015 216.993835,74.641792 210.834656,66.565643 
z"/>
<path fill="#F8F8F8" opacity="1.000000" stroke="none" 
	d="
M51.819241,123.969040 
	C53.670731,120.321609 55.220631,116.925026 57.246685,112.484955 
	C48.516541,113.761360 47.136272,108.071609 45.289566,102.532043 
	C40.100254,86.965637 34.710701,71.466019 29.414885,55.935032 
	C28.839436,54.247410 28.360395,52.526920 27.566423,49.941925 
	C33.976902,49.941925 39.734234,49.645271 45.416210,50.167881 
	C46.702770,50.286217 48.253365,53.097488 48.787659,54.930061 
	C52.312267,67.019012 55.579247,79.182907 58.965862,91.312424 
	C59.483768,93.167343 60.186146,94.970772 61.293999,98.251366 
	C65.791687,83.170349 70.052109,69.654976 73.771507,55.992317 
	C75.058952,51.263088 77.268456,49.330402 82.086151,49.668091 
	C86.205360,49.956821 90.360863,49.727825 95.374680,49.727825 
	C93.166153,56.358719 91.179260,62.364395 89.166016,68.361229 
	C83.095367,86.443764 77.017609,104.523926 70.936615,122.602989 
	C65.654610,138.306625 57.952316,143.075348 41.480152,140.829727 
	C39.833679,140.605240 38.183865,140.347778 36.570404,139.960587 
	C35.629955,139.734909 33.956501,139.165726 33.978554,138.845001 
	C34.242447,135.007126 34.484097,131.116974 35.413895,127.411713 
	C35.643093,126.498337 38.287128,125.937759 39.896244,125.674332 
	C43.746231,125.044067 47.640972,124.687149 51.819241,123.969040 
z"/>
<path fill="#F8F8F8" opacity="1.000000" stroke="none" 
	d="
M160.519806,77.526566 
	C159.221909,85.507889 156.828949,87.293388 149.053497,87.167389 
	C139.579300,87.013870 130.100723,87.130882 120.699364,87.130882 
	C119.583595,93.595673 122.881149,99.390038 128.850327,99.859428 
	C134.511871,100.304642 140.393280,99.573799 146.001755,98.467056 
	C149.368561,97.802673 151.675903,97.276466 152.801880,101.192566 
	C152.978226,101.805893 153.503769,102.310493 153.806061,102.897202 
	C157.071213,109.234558 156.772385,110.142494 150.228607,112.732430 
	C139.092209,117.140053 127.879593,117.436028 116.595856,113.233727 
	C110.615501,111.006531 106.437447,106.936737 104.280533,100.969887 
	C100.451080,90.376144 99.142029,79.639473 103.016167,68.718666 
	C108.598579,52.982422 118.679466,45.872208 138.312164,48.511093 
	C153.784607,50.590782 160.594086,60.066208 160.519806,77.526566 
M134.974869,62.976299 
	C125.101112,62.326126 119.965286,66.722687 120.223694,75.770378 
	C127.799736,75.770378 135.379364,75.770378 142.950241,75.770378 
	C143.195999,68.172905 141.680664,65.535187 134.974869,62.976299 
z"/>
<path fill="#292929" opacity="1.000000" stroke="none" 
	d="
M264.984558,82.997368 
	C264.972046,77.686203 264.713531,72.853867 265.095978,68.072792 
	C265.210114,66.645752 266.902985,64.536392 268.250092,64.184387 
	C271.080872,63.444679 274.177795,63.377026 277.136963,63.542736 
	C284.790649,63.971329 288.659637,67.693626 289.156494,75.330246 
	C289.455841,79.931786 289.378082,84.600052 288.976654,89.195244 
	C288.353333,96.330826 284.053192,100.225578 276.987457,100.634857 
	C276.821838,100.644447 276.655914,100.651024 276.490051,100.654984 
	C264.938324,100.930878 264.938354,100.930840 264.968811,89.470268 
	C264.974091,87.478783 264.978943,85.487305 264.984558,82.997368 
z"/>
<path fill="#292929" opacity="1.000000" stroke="none" 
	d="
M211.123535,66.812866 
	C216.993835,74.641792 217.637207,87.543015 212.777451,95.379578 
	C210.196182,99.541992 206.054535,100.977905 201.580933,100.491646 
	C190.755493,99.314980 190.827042,102.015671 190.907593,89.689323 
	C190.953293,82.697548 191.034882,75.701988 190.853409,68.714539 
	C190.769501,65.484222 192.185699,64.322502 195.163269,63.943230 
	C200.685226,63.239857 206.116791,62.645042 211.123535,66.812866 
z"/>
<path fill="#2D2D2D" opacity="1.000000" stroke="none" 
	d="
M135.388824,63.031025 
	C141.680664,65.535187 143.195999,68.172905 142.950241,75.770378 
	C135.379364,75.770378 127.799736,75.770378 120.223694,75.770378 
	C119.965286,66.722687 125.101112,62.326126 135.388824,63.031025 
z"/>
</svg>